<mxfile host="app.diagrams.net" modified="2024-07-01T01:20:30.533Z" agent="Mozilla/5.0 (X11; Linux x86_64) AppleWebKit/537.36 (KHTML, like Gecko) Chrome/125.0.0.0 Safari/537.36" etag="fWPvBSLR7SG7OuyvIpJr" version="24.6.4" type="device">
  <diagram name="Page-1" id="C-D3ZHe6oumjZkahh726">
    <mxGraphModel dx="1572" dy="2034" grid="1" gridSize="10" guides="1" tooltips="1" connect="1" arrows="1" fold="1" page="1" pageScale="1" pageWidth="827" pageHeight="1169" math="0" shadow="0">
      <root>
        <mxCell id="0" />
        <mxCell id="1" parent="0" />
        <mxCell id="IFEILFXidvJx-HZbIcQG-1" value="Client Angular&lt;div&gt;&lt;br&gt;&lt;/div&gt;" style="rounded=0;whiteSpace=wrap;html=1;" vertex="1" parent="1">
          <mxGeometry x="90" y="120" width="120" height="60" as="geometry" />
        </mxCell>
        <mxCell id="IFEILFXidvJx-HZbIcQG-2" value="Client React&lt;div&gt;&lt;br&gt;&lt;/div&gt;" style="rounded=0;whiteSpace=wrap;html=1;" vertex="1" parent="1">
          <mxGeometry x="90" y="210" width="120" height="60" as="geometry" />
        </mxCell>
        <mxCell id="IFEILFXidvJx-HZbIcQG-3" value="Client Any&lt;div&gt;&lt;br&gt;&lt;/div&gt;" style="rounded=0;whiteSpace=wrap;html=1;" vertex="1" parent="1">
          <mxGeometry x="90" y="300" width="120" height="60" as="geometry" />
        </mxCell>
        <mxCell id="IFEILFXidvJx-HZbIcQG-4" value="API GATEWAY" style="rounded=0;whiteSpace=wrap;html=1;" vertex="1" parent="1">
          <mxGeometry x="350" width="120" height="620" as="geometry" />
        </mxCell>
        <mxCell id="IFEILFXidvJx-HZbIcQG-6" value="" style="endArrow=classic;startArrow=classic;html=1;rounded=0;exitX=1;exitY=0.5;exitDx=0;exitDy=0;" edge="1" parent="1">
          <mxGeometry width="50" height="50" relative="1" as="geometry">
            <mxPoint x="210" y="239.5" as="sourcePoint" />
            <mxPoint x="350" y="239.5" as="targetPoint" />
          </mxGeometry>
        </mxCell>
        <mxCell id="IFEILFXidvJx-HZbIcQG-7" value="" style="endArrow=classic;startArrow=classic;html=1;rounded=0;exitX=1;exitY=0.5;exitDx=0;exitDy=0;" edge="1" parent="1">
          <mxGeometry width="50" height="50" relative="1" as="geometry">
            <mxPoint x="210" y="329.5" as="sourcePoint" />
            <mxPoint x="350" y="329.5" as="targetPoint" />
          </mxGeometry>
        </mxCell>
        <mxCell id="IFEILFXidvJx-HZbIcQG-8" value="" style="endArrow=classic;startArrow=classic;html=1;rounded=0;exitX=1;exitY=0.5;exitDx=0;exitDy=0;" edge="1" parent="1">
          <mxGeometry width="50" height="50" relative="1" as="geometry">
            <mxPoint x="210" y="149.5" as="sourcePoint" />
            <mxPoint x="350" y="149.5" as="targetPoint" />
          </mxGeometry>
        </mxCell>
        <mxCell id="IFEILFXidvJx-HZbIcQG-9" value="Client Manager" style="rounded=0;whiteSpace=wrap;html=1;" vertex="1" parent="1">
          <mxGeometry x="570" y="30" width="120" height="60" as="geometry" />
        </mxCell>
        <mxCell id="IFEILFXidvJx-HZbIcQG-10" value="" style="shape=cylinder3;whiteSpace=wrap;html=1;boundedLbl=1;backgroundOutline=1;size=15;" vertex="1" parent="1">
          <mxGeometry x="680" y="-10" width="60" height="80" as="geometry" />
        </mxCell>
        <mxCell id="IFEILFXidvJx-HZbIcQG-11" value="Order Manager" style="rounded=0;whiteSpace=wrap;html=1;" vertex="1" parent="1">
          <mxGeometry x="570" y="140" width="120" height="60" as="geometry" />
        </mxCell>
        <mxCell id="IFEILFXidvJx-HZbIcQG-12" value="" style="shape=cylinder3;whiteSpace=wrap;html=1;boundedLbl=1;backgroundOutline=1;size=15;" vertex="1" parent="1">
          <mxGeometry x="680" y="100" width="60" height="80" as="geometry" />
        </mxCell>
        <mxCell id="IFEILFXidvJx-HZbIcQG-13" value="Product Manager" style="rounded=0;whiteSpace=wrap;html=1;" vertex="1" parent="1">
          <mxGeometry x="570" y="250" width="120" height="60" as="geometry" />
        </mxCell>
        <mxCell id="IFEILFXidvJx-HZbIcQG-14" value="" style="shape=cylinder3;whiteSpace=wrap;html=1;boundedLbl=1;backgroundOutline=1;size=15;" vertex="1" parent="1">
          <mxGeometry x="680" y="210" width="60" height="80" as="geometry" />
        </mxCell>
        <mxCell id="IFEILFXidvJx-HZbIcQG-15" value="Order Products Manager" style="rounded=0;whiteSpace=wrap;html=1;" vertex="1" parent="1">
          <mxGeometry x="570" y="360" width="120" height="60" as="geometry" />
        </mxCell>
        <mxCell id="IFEILFXidvJx-HZbIcQG-16" value="" style="shape=cylinder3;whiteSpace=wrap;html=1;boundedLbl=1;backgroundOutline=1;size=15;" vertex="1" parent="1">
          <mxGeometry x="680" y="320" width="60" height="80" as="geometry" />
        </mxCell>
        <mxCell id="IFEILFXidvJx-HZbIcQG-17" value="Product Images Manager" style="rounded=0;whiteSpace=wrap;html=1;" vertex="1" parent="1">
          <mxGeometry x="570" y="560" width="120" height="60" as="geometry" />
        </mxCell>
        <mxCell id="IFEILFXidvJx-HZbIcQG-18" value="" style="shape=cylinder3;whiteSpace=wrap;html=1;boundedLbl=1;backgroundOutline=1;size=15;" vertex="1" parent="1">
          <mxGeometry x="680" y="520" width="60" height="80" as="geometry" />
        </mxCell>
        <mxCell id="IFEILFXidvJx-HZbIcQG-21" value="" style="endArrow=classic;startArrow=classic;html=1;rounded=0;entryX=0;entryY=0.5;entryDx=0;entryDy=0;" edge="1" parent="1" target="IFEILFXidvJx-HZbIcQG-9">
          <mxGeometry width="50" height="50" relative="1" as="geometry">
            <mxPoint x="470" y="60" as="sourcePoint" />
            <mxPoint x="580" y="250" as="targetPoint" />
          </mxGeometry>
        </mxCell>
        <mxCell id="IFEILFXidvJx-HZbIcQG-22" value="" style="endArrow=classic;startArrow=classic;html=1;rounded=0;entryX=0;entryY=0.5;entryDx=0;entryDy=0;" edge="1" parent="1">
          <mxGeometry width="50" height="50" relative="1" as="geometry">
            <mxPoint x="470" y="169.5" as="sourcePoint" />
            <mxPoint x="570" y="169.5" as="targetPoint" />
          </mxGeometry>
        </mxCell>
        <mxCell id="IFEILFXidvJx-HZbIcQG-23" value="" style="endArrow=classic;startArrow=classic;html=1;rounded=0;entryX=0;entryY=0.5;entryDx=0;entryDy=0;" edge="1" parent="1">
          <mxGeometry width="50" height="50" relative="1" as="geometry">
            <mxPoint x="470" y="279.5" as="sourcePoint" />
            <mxPoint x="570" y="279.5" as="targetPoint" />
          </mxGeometry>
        </mxCell>
        <mxCell id="IFEILFXidvJx-HZbIcQG-24" value="" style="endArrow=classic;startArrow=classic;html=1;rounded=0;entryX=0;entryY=0.5;entryDx=0;entryDy=0;" edge="1" parent="1">
          <mxGeometry width="50" height="50" relative="1" as="geometry">
            <mxPoint x="470" y="389.5" as="sourcePoint" />
            <mxPoint x="570" y="389.5" as="targetPoint" />
          </mxGeometry>
        </mxCell>
        <mxCell id="IFEILFXidvJx-HZbIcQG-25" value="" style="endArrow=classic;startArrow=classic;html=1;rounded=0;entryX=0;entryY=0.5;entryDx=0;entryDy=0;" edge="1" parent="1">
          <mxGeometry width="50" height="50" relative="1" as="geometry">
            <mxPoint x="470" y="589.23" as="sourcePoint" />
            <mxPoint x="570" y="589.23" as="targetPoint" />
          </mxGeometry>
        </mxCell>
        <mxCell id="IFEILFXidvJx-HZbIcQG-26" value="" style="shape=image;verticalLabelPosition=bottom;labelBackgroundColor=default;verticalAlign=top;aspect=fixed;imageAspect=0;image=data:image/png,iVBORw0KGgoAAAANSUhEUgAAAv8AAAG9CAIAAAAN4Y6PAAAACXBIWXMAAA06AAANOgEDIh6FAAAgAElEQVR4nOy9aZAl2XUedjPfVu/Vq727q6r3nn0GgxlQAkAMQYIASZFBiQIpUrRkLbblsBwOiRGSRQV/OPiHtiMcISscivAii7IWh0RaNERKokSApEkQGACEgMFggNmnZ6a7q+rtW77c97z+8XWdPnWz6lVVd/WC6Tw/EMjqb76T55yb996Xee45WhzHopBCCimkkEIKKeQhkOB/+fvJN7+h3+/bKKSQQgoppJBCCrlHUnrqaSFEsfsppJBCCimkkEIeFil/9GNCiNLf/Jt/s16va5omhLBtu9VqLS8v41IIcePGjUqlUqlU8JfRaDQejxcWFnCZZdnW1tbi4iLhW61WGIZE6Pv+zs7O4uKirt/cZm1vb+u6Xq1WAZhMJr1ejwO2trbm5+dLpRIuu92u67r1eh2AMAxbrVaz2ST8zs6OlJIIp9Npu91eWFgghp2dnWq1Wi6XAej3+9PptNFogCGO41arxTW2Wq0kSWq1GvCO47TbbQVQKpUUnzQaDQDSNG21WvV6nfCdTsfzvLm5OWj0PK/dbtfr9XK5DEC73RZCEOF0Oh0MBnNzcwBIKdvtdq1WI3yv17Nte25uDirCMGy324SH09I0rVQq0GhZVq/X44BOpwMTcDkajabTaa1WA2EURd1uF3EnjUEQVKtVEDqO0+l0qtUqAbrdrhCCh3UymcDtQogkSbrdbrlcJny/33ddlzR6ngdAtVolQBzHpNE0zfF4TLckpez3+5qmEX40GlmWValUoDEIgl6vh5EGwGAw4CbYtt3v90ulEgdkWcZNmE6nRBjH8WAwEELUajXgh8Oh53nVahUmuK7b6/U0TeMAmEBhnUwm5PY0TaGR8KPRyLZtIgyCoN/vSynn5uYIwE2wLGs4HJLGLMuGw2GSJISfTCamaZbLZZgQhuFgMEjTlADj8RgmUFgHgwFplFKOx+MoiggPE8ircRzDxnq9DoBhGNwE3/ehkQCTycT3/bm5OfjEsqzRaEQmJEkyHo8xgZBGwzB4WAeDQRRFjUaDAI7jEKHjOKPRKMsy3HOaptBIeNM0eRSiKBoOh0EQcIBlWbVaDT7xfX80GiVJgluSUpqm6TgO4W3bHo/HNBTjOIZX5+fnAbAsiz8LQRAMh0NugmVZlmUR3nXd0WgkpSSfTCYTx3EIAI30NIVhOBwOXddtNpsEMAyD5kzP84bDIcU9yzLTNE3TJLzrusPhkAjjOB6NRo7jcMB4PCZCJQpSSmgkvOd5eDy5CaZpLiwsEGA4HJJPoigaDAae54FBSul5HhYa4DGQaGSmaWqapmEYCoAIEQWu0ff94XDYbDYxTsIwxAwDE7Iss217NBotLi4CjwmE5geMzMlksrS0RIB+v0/rSBRFmCQRJiml67qDwYAIwzDsdDpCCDLBMIzxeEyEYRj2ej1aOJIkGQ6HFAUpJTQSYRRF7XY7yzKMTIR1MBgQIQA0S6dpOhqNDMMghjiO2+024TFL87A6jtPr9ZaXlwmAtQ8+ybJsPB6PRiPOgOUeTk7TtNfr8bAGQdBut4kwTdOdnR1d1zFOpJSGYXS73ZWVFQ6gtTXLMqx9FNYoira3twmfZdn29raUkp5Wy7I6nQ4HbG1t1Wq1yvJytr1d+uVf/mVaAIQQmqY1Gg3azcC5tGpKKcvlMs01+AvtdXBZrVZpxgchB2BiKpVK9Bdd1xUAPWYgrFQqXKMQguMxnmhzI4QolUoKA9+LCCHyhLQ1Ab5Wq9FehO5QAZAJ5BMCCCFo9iR83icKgJug67pyS8plpVLhKjRNo80QRUExQQHQzoMIaRUknyiE3ASFUAiBNW+2TxQ817ivCUpYlXs+1AS+Zcz7BIQEyLKMb/hgAi3keUIhBPCkEY8xB3AT9iWk+RoCAPfJDBOklIoJCiE00jjRNA2LNNlIGnlY97WRCJUoaJq2r9O4CftqVAhnaFScBkLOMMME/JFrFEJg+j6IkAD8acWEgP9PGhU8mQCf5O9Q8YniBGUSzvtE0UgPF+6zWq3SNlrsjm3uEyUKANAlnMZ9gpFzECH3SZ5QSpkfSJxQSgkG7hPMaWQRLYp5nwAAJygAmAAAEXIbuQn5uB9ESD5RAMo6gnl+BiH9BKWRyQFi70qU9wkYFEIlCvTLgQj5hJPXqOAVE7D20WV+MS2XywqDsjrTyKSw5u+QPzulUol+GBAhX/uUoa6YQMs318gJyQRtdVVTsp4xLg+6PBQgpSStBWFhwvcu4YOp8WQJ74tGRW6DUBzH7SdOeBSNhxIe14STJTwRjQ/401RE4aE14eiE6u6nkEIKKaSQQgop5IMtRdZzIYUUUkghhRTycEnpl37pl+irWxzHruvyb96O4+i6Tl/dgiAIgoAnTyDJkS5d103TlHId0jTNE2qaRh8OwzD0fZ8DbNvm/J7nJUlChFmWOY7DAa7rCiF0XcdfoihyXVcBlEolMsH3/SiKOKHrujy/xHVdKSWlsMRx7HmeQpj3CU/vUAhhAhEmSeJ5Hr8lz/OklNwE3/c5IG9CHMdEmKZpnjDLMm6CQuh5nqZp3IQoisioLMs8z+M2ep6XpindIUzgAN/3hRA8rGEYkkYppe/7XKPv+4pPfN9XCLkJURQFQaDc0gwT0jSFRrolEJIJ8IkCUExQfKIAgiBIkkTxiQLgGqMoCsOQ7llKGQSBgo/jWDFBAaRpysMaBAGZIKUMwxBOIxMUwiAIMLYJwE0AYd4EulSikGUZADSBQCMfmXkA5gdOqJigAMIwVExQAFxjkiTcRillFEWYQDghRSFN07xGOI0TchMA4HNmGIbkNPiEEwJwqAl0mTcBXqX0DoUQIzNJEg7gU5xigpQSAI5XwqpoBMOMsCqEeJyVsCoARaNiAgB0qTwLCGteI004MIEDcM98YcKEwH2CIwVcI90hTAjDkAM44b4mYGkjPJ8fYIJC6Ps+J8SEoDiB8JilpZTcBAXAl6q8CQAohEpY84Q8rHh+FQBPTFR8AifwjDcs30SIHQjPD+NrH+ZM7hPsBxQ8+UQIEUWR53kc4DgOEepA49+CIMBxA7ErOPRBl47jTKdTAmRZNplMOB4HIugvURThCAYBDMMIw5AAyO1XAGma0qVlWbZtEz6O48lkwvHT6dT3fQLgjAZnMAyDf91zHMc0TWLAqRCON02T+ySKovF4nCQJ18hNcF13Op0SQ5Zl0+mU403TtG2bNOI8ggLghL7vcydIKRVC27Zt2yZAkiSKjZZlYQLFZRAEk8mEA0zT5Jeu65qmOYPQtm3XdcmEMAyVgaGY4HmeaZp0zzijwfGKCQgrVhECYHoiE/g9Sylt2+Z413Vt2yaNcRwjTARwHEcxYTqdKrfEneZ5nmVZpBEmKBodxyETwjA0DAO7B9KIKRvi+z53QpZllmVxgOd5nDCOY9M0OaHrupieuE/oluATjt/XBEzBBOA+iaJoOp0SA6YSxQTLssiENE0ty+KEvu9zE6IoMk1TYcCUTU7jJqRpatu2QmjbNpmQJAkeTw7gTysIyQRMjpwQTlNM4IRBEChPKw+TlBJOI3zeBMdxHMdRCHlYFY1hGHJ8nhAjjQN4WJMkwakxDlDmTB4FmGDbNuGjKMqHVSG0LIt8Ao1kAtYkjsdAUkxQAMqEg3meCKGR8MqzgHXaNE0FwIe6bdt5AF0qAwkm5AHcJ47jGIbBAdPplK8jWPsOIkzTlD9c2ChwQgD4OoJJkgjhVY6fTCY0trHVyBOST0CoMPBLnBpTfDKZTDgAyzcBFJ8AwLcHWPu4CePxWMErU5wC4KuzlNKyLCVM/A6llHmfjEYjBUDLhBZFEb2lkFLiJQRXr2nabMBx8ccizGc53YZGhfD+mnAPfHKoxjwgT6jcUp7wUMBsG2+DcDbgxE0QufS6GYAjEs5m+ICZcF/CepQ7PJYJJ0t4UhpPlvC+DKSjE4rDJslDpzj85eiERwQ8+AvHB8CEu7cfKLKeCymkkEIKKaSQh0uKrOdCCimkkEIKKeThkmL3U0ghhRRSSCGFPFyidrrY2dmZ0eliOBwqnS5u3LixtLRE+FarFQQB73Sxvb29tLREX9rynS663e6MThedTkfpdLG9vb2wsEB4pdOFaZpKp4vt7W1ecncwGBiGwTtd7OzscI3tdjuOY6pD6jiO0gpjZ2cHVeFBeDc6XfT7fQLIwzpdoHy40siCd7qwbVvpdNFut3nfifF4zDtdxHGcb2QRBAH5xHXd2Z0uDMM4tNMFbxOR73TR6/WUThej0Yh3ulAaWQyHQ5wWpH4C3W6Xl9Dt9/s470A+UTpd9Pv92Z0u+v2+OE6ni8FgcKxOF+PxWDGh1+vJh6zTBWzkjSzynS7CMDyo0wXaRByr0wVaoFAfCaXTBXoyzO50MRqNuE8O7XShmHCUThe2bfNGFsfqdIEmD2TCQZ0u6FlApwveTyDf6YI365BH63QxnU55pws086FePXiaZnS64F1fkK47mUyoacNtdLrADEOdLjAUeacLPiMdpdNFv9/3fX9GpwtMkrzTBW8TAQCtI0mSDAYDioKUEhOC0siCHi6Etd/vUx+J2+h00el0lLB2u13e6QJrH+90MRwOFcBxO11ouwWs5X6dLra3t3mni36/b1nWsTpdtNvt1dVVAty4cYMKZJd+5Vd+hRZFVObm58/RFIK2GihrTeu0tlssnPAA0FZD1/Varcbri6PSNu0MUJmbM6COtXIDpBGzDAdUq1XeOgMmKAy8pDrukDTiDvMmcxP2JeQmcKft6xPFBMUn0EiEikZtt3D+QYTQqNiY9wmvtZ/3iUIIn3A8B6CqPR8YB/lE3y3Gr2jMOxk+OaIJ5BMFz8O6r0/yYeUAxQTuBF3XoZEAwOdNyANm+CRPyAeSQkhNIQ4yQSEEnjbBMEG5Q946QzFB0zSlywQ9LEpYZ9whosABvCmEEveDCBUT+D4eKg7SuC+hEgVMIDxMvNFNnlAxAfi8CYqNyvywrwn8UomCMpCUkZk3IR9WmmHyJuTDmr9DHlbYyAn1vX0tDgor/fihGYY7mXeBOGiccJ/wJg9gUEZmHqBcKivRvndIhIpGZZ5XnEY+OUjjDBO4k+k3MAi5CaQxP4FwAI/CvibkCblGPCwEOGg/oPiEX3IT8k7e1yd5E/L7ASVMYlegkQ91Tih2Nww3nXzinS6OhT8KQJG7TXjvNR5KeKjcuY13m/Dea3wATThxwg+AxkIKOYrc+ax7GypmA+58Rrr3a9+DttreX8LizFchhRRSSCGFFPJwSZH1XEghhRRSSCGFPFxS+jt/5+/QVzHf9yeTyfz8PL0aGg6HlUqFvizatu04DiU1SylHoxHvaI+awvTxErUdOWA8HuPzHv6C4tEcMBwO+ZdF1AwlQmSfccB4PJZS0kduz/MMw1AA3ARUKaUPusiL5MkTKC5JdxgEgWEYCkDXdUpJgU8IIKVEkiPhDcNAzXXKjwOAbgnVKkkjSvQSA3LByuUy4VH2lAjjOEZmKAFQhJTuEFWGOcAwjFKpRJeoh1sul8kn0+mUA1AzlAAolMxvCTVDSSOq0xIAhVB1XacP+ahmy30CjRygmIAK5VQT3TRNDCQamSg8Tz5RAKg9zcOavyUMJO4T0ogCuAgTaQzDkPsEGonBsiw+kFAjGCNH7CZaco0gpCrsMEEBIArkE9u2yUZkKSLbfV8TUL5WsRFR0HZTQfO3lCQJzQ+oRk1Og0/SNCWA67poiUBhRRw5APMDLhFWMgHlaDkATiMTUCiZa/Q8D5ngZALKHMME1HpWCPlAQpVhnHIgABoOkAnwqqKR8CjlTCagKHAYhgRANWo+MhWv+r7v+z7hYYIQgpvACaFRMSEMQ0pOD4KA9xdSTJBSouI24aGRhxVPEwegv9C+JiCb1XVdjrcsi4cVZcoVjUSYNwEa6VJ5FlDrGadhAEC5aj7hoFi8AqCEDxBynwRBgKWNaySfIApcIwCUkoKHiwaS3C1XTXgU0Kf5AT6xbZuS3wHgC5MSBUySHI9GCzyspmkqAPIJHi5uAjKvCY9pP0kSMgGTJAcYhkE+kVI6jsNNAIBWcyRi87BGUcQ1Im+afIJs9+l0SicAAOBLIaqWcxPG4zHhcVBD8YlhGBwwGo1o8S0nSUJfwqSUURTxD2NxHPMuEGmaKgDeKwAe55cg5H/hR0hgHgg5A28tdCgh8PwOecsFmMABSZLwj31kMgeQdrE7jmcQpmkaxzEB9iVUak1yPABpmpJX4RPlnhU8SliSRuWW0KiIa8wT5n2iEHKNuD36y6GEaZoqf1EIW0Pzn//hG9f61k2TZZalma7rdNtpmgpN0zWNfJJlmV7SdU0XQkghszTTWJ8vjFJ9tz2TlBKNyQ4C3CTcC9A0TdM1TWhCiDTLBGu+JqVMs0w/WOOhhFmWZVLqunbTBClRlvR4JmhC125pXF+q/6XPfPiHnn8E+CRJ+BduJQoA0O4tH1aM5CrrwsOffQIohHykQSMfJwdpJBMUjcrTlzchjuO8jZyQ9xUir5IAoJjARyYA/FJ5mqBxNuGhGhUAv0ngeXX/NE35owSA8rRyn8w2AYR5wGyf5OeHvI10CQA3IT/rKiYoQxcaD/KJ2B2KikZugmKj4vZ9hy5fWfKESZLkATPmTMUExSf7atx3nqd/3ZdQeVqVuOSn5TyDgleikF++aecBjXmAsn/gTlaW70N9QoQHuUi5Q/DzHOe8CTysD0Wni/trwt3wyW1o5H+5jVsSMyvZH5dwZ2j+D7/24nev9cUtkULMTiFUAMfF3zngHmg8Hv6Jc6t/489+7IVnLtxEP2D9Rk6KkP/le9QEZQY7WRPuhk/kzD4St6HxuIR5/J0Dvqfn+e9FEx6Qte8gwK1W5EII/p9B+H92FMBx8UcBiL1ytzU++IT3PQonQCg0KW+tbbuiXOblDvF3DrgHGo+F18Te53fPv91xWG8DcFcJCxP2BdwNn/C/nIjG4xLOxt854Hti1v1eN+EBX/v2QAsppJBCCimkkEI+8FLsfgoppJBCCimkkIdL9nS6QFcH3rlie3sbZebxF1T7pnrhWZZtb29TZWshRKfTQY43/hIEQavVUhpT6KzThWEY/X6fA3hlayFEv993XbfRaAAfRVGr1Wo2m4Rvt9sZa1Bgmman02k2m8TQarWQ4w3AcDhE5ry+e36h3W5zjZ1OB6n7wKOrgwLA6STuE6ovmaZpp9PhJTi73S7OdECj7/udTod3uuh2u5IdWzNNczgcEqGUstPp8FKqqIBOlU9RIl1phYETGSBEVwcOUPpOoCUCZcLHcdzr9aithMi1iXBdt9vt8jqhvV5P7G3WMZlMqEFBkiRoK0H46zudr73VGlr+UcZoIQfJUr38kSunr2yuCSGyLBuNRmma0uEgwzB4p4soivKtMHinC3Q8ELvdPKSUOMJJeNM0ceijyro6cIBhGI7jVFmni+FwyHtrGIaBYyw0MieTiaZpVdZPgGdWoicDb9bBeywAgNNG9LTi0AdMwDEWfkgEfSdKrNPFaDRS+k6gWQc9rePxmJwmpcShUcI7jjMej7lPlN4atm1Pp1PySRAEikbbtvnBGc/zeKcLnKNxXZfOrTiOg7M8PKy80wUO0tK5V8UEnMRRemuMx2PyCcLqOA5vhTGZTIgwDMPRaERhklJCI+90MRgMyCeIAu+tARtpBoMJ1B5ESul5HhYa4NEehHwCEwzDUBpZ8L40k8mEt0RAdw7e6QKNaKhNBPqHED4Mw36/T5Mkzk/x3hpg4OsIb5kCE0ajEe/JgE4XFFbTNMfjMRFGUdTr9WjaR9cXioKUEk7gfSo6nY7c7f6RZRla31DnijiOu90uTeM4HjWdTjkD2kzhMkmSXq/HO12gew9vhdFut0u7HVGyLJtMJuPxWAFQIyw08+FhDcNQ6XTRbre13Y4oUsrpdNrr9XinC942Kssy3v1D7O4HiDDLsp2dnSzLaGTatt3pdHgrjJ2dHVq5tDAMeV4VP28F9XQIBf+xlFIB8EtkU99LwnyW06Eaxd6Pf3eocV/CGRpBqADyJswA3CVC5S93qFHOTMzcHkxzWc9HlU88feHPf+qZ3/jS6y+9076N//yDJE+eX+NZz7PDum9QxN6wzo7aEQGzc1HFYQm8M24Jl3nAbBMOtfFYhHeo8cRNuA3C29OoXBYmyFw67XEJJVv7jksocguNvPtr333ZDxy6mM7AzwaUuS80TeM4IYRyqaQUHQq4B4T3XeM9MOHQxK4TN+HONdL4259Q0495+umWVMt6s14tl4qPtkLJer7vKYcKII/PX9454WzA3TDhTjQ+CISFCQ/CQLrzp0+ZhLXvweX7bhPOBpRFIYU8MPLUhVN/9cee/9Dl9be2h//kd1+ulko//cmn67VyWdd/66tv/cknzv7wc5f9MF5o1Aj8zKUz//Gt1q//0asfunj66Utnzp1abI+s1sj8gWcuPrK5+tXXt/7VH722MzTvt2WFFFJIIYU8QFL8gC7kQRFN0/6TH/5wqaT/o9/51tJ87Sf+5GMbqwtPnl9brNe+/OqN9ZX5jz1x9gsvvfvtd7tJmmqa9nM/9CE/TP7+5752dm3hhWcurC7WP/HUedMNXnztxuX15Vql9I8//63f/MobY9u735YVUkghhRTyYIluGIbcLbviOM7W1havDrmzs+P7t1JTJ5NJp9MhACUZEaDb7SLrEJdBEGxvb/Niju1223EcAkynUwXQarV4AcrBYDAcDklFFEU7Ozu8amen00E1fVxalrW1taUAwjCky9Fo1O12CRDHsaKx1+sZhkGErutub29zQLfb9TyPTIBPCICsZ15fst/vI/cTl77vt1otDuj1eo7jcBM4g5Sy2+1yE4bD4WAwIBOQSsYB/X7fsiwiRDK7AlDC2u/3SSOy4YIgIMBgMJhMJqTRdd1Wq8UZBoOB67o8rL1ejzQin26PRsNIErW9br1WPr3cuN41Xnqn1RrZq4uN+bmKruu///J7X/ru9Wql7ATRW1uDb11tG3YwX6ucXm788POX//bPvvDUxVNLjVqtUh6a3hdfufbd93tf+OZ7jh//Vz/5Jz79/JVGrSI+oBLHMYUJWc9okgCZTqeDwYCiEEURBgYHKGHtdrvEIKVE6ijhLcvq9Xqe55H24XBomrfeqyGRk56FIAh6vZ4CmE6nNE5s2+71eq7r4hKZnuiaQhq5CchFNQyDAyaTCQ11z/P6/T6ZkGWZYRgcjxMANBSjKMLY5oRIHsel7/v9fp9MkFKapsnxruviZAb5ZDQajcdjAjiOg0xtMmEwGPBbQt40XSomoBXPaDRSNFLcYQLS1QnA58wgCHjckTLMCT3P448nwjoYDDhAmXB4FKSUtm3zG/B9v9vtkk+QuM0J4VXyCUygW5JSQiPhgyDodruKCf1+nwOUCWc0GimAfr9PAw8pxmQCsp5xdINsxDxPJozHY6QtE6DX69E4wUkRbgKeJsJHUdTpdHhYDcNot9sKgJ6dJEl4FKSUOC5DeJzXoYcFWc+cEGnRNE7SNB2NRtxGMNAlZmka21JKLBwc0G63KazIes4DaOCladrv97lPcAqK8Mh65hMO9gMcwNdKZD3zsGI/QJdZlrVaLf60WpbFCbFjIZ+U6ZyOEKJcLvOWW0IISreG3MyU3gVomkaHKSD8rJMQQtd1Oo5BAF75vlKpKBp5iy6xmyE/m5CbcCghDl/QX3Rdr9frikZeKT/vE8VGJMATg6ZpeRP4J9tSqZQH0AkyaORtxfY1QbAowCd5QsWEvBP4pa7r3Cd5Qp5KVi6XFScoGiuVCk/Q03Wdznfc1MhCRuKHsekE508vPXH+1Nm15rutiR/GQggvjMM4tdxgsVE7e2pxoV5baFT9KHb8+Jtvtz/34ut+lEws/wefvRilaRAlSZpNXf9/+3ff+OwLT374yvrLVzsj84P5+kfXtRIbePkoaKyTBqKgDAzBhi7CygG8XZ3YHZkUR13Xq9WqQsg1YqjnNfI75AMJd8gHhvIs7GsCH5mlUokDNNZ27SATlGcNTptNyEcyjsAoPuEmAMBNUJxGh2hmaJSsLigAh2rk80OeUMHnnZzXeBAhvKqYwMN6FI38hpGrkSecoVGJo6Zp1WqV/ywHQLmksaFpGgYGB3CNIOQmKGM1P2fiaZpNyJ2sMGi7ByG5T/KEigkKIO+T/OqsXCpjmwOwtM0wAQAeR+UGZhOK3QmBA/jKBULFaXwHAvyhhLdG5l3tdHEo4FBCeRKdLhTCY2m8c58cSngUjcfyyW1ovA1CxQmzCZW/7AzN//5ffjl/5uu5R9b/yo8+/8T5U9uD6f/1+Zc1TfvFn//kP/3dl7/03RvLzbn/5qc+9vEnz20NzNNLjf/9t78ZhMlf+pHnnrp4yg2if/BbX99YXfjUhy/92h+++vK7nb/yY8//1Pc/MV+vfuGb7/7mV97sG474IIpy5uu4Ubi9sM5mOK7G+0J4dI0nTnjvfXLvNd75/LDvjDSDUBxhkpSs/9RB93zcWfRYhPdl7TvZpepBWL5PkFBT+pwVUsg9kNbQ+pV/+eXvXuspfy+V9Ea1UinrSZp5YSyEmJ+r+mEcJammiUatWi2X0izTNM0LYyllvVaplHQphOtHuqZVKqUgjOM0q9cqc9WyJoQfJWGUZGpLjQ+IPHn+1N/47MdeePr8/b6RQgoppJDvMSnOfBXyAEmaZrYf8r+Y7s1vtFIKN4jcvXjb2wMO4pupCX4Y46tZIYUUUkghheRF5+9+0jTlqalCiCAI+NfTOI558iwAkv2wDsOQE2ZZlgfwHOckSRSAchlFURzH9Jd9CXmOc54wDMO8CQSQUu5LSH9J0/RQExRCRWMYhlEUKSZwQBRFeUKFQcFzwrzGKIryJigAxSf8L/sS8iikaZoHzDABhBwQxbGUt/7zQm5PpMwy5tU4jvmzkA8rBgYBkiTJh1VhUPDHIsyyLP94Kpd8YEgpZ2vMsgxDUdFIl2maKrcUx7GCP8KerdUAACAASURBVAohN2FfGxWNigl5wHFNOC4hP0WRpumhJih4JawYOQpAIczfEr/Mh5UDwKAQ5jVyfH4g5QHKyORLFVQoeCUKCj5vQp6QT8J5E/KEZMK+hMo6ohACQJdYufJPEwcoPlE0gkHBK2HNAxSf5AH8Mm+Cgg+CIL8fOMgEkduB5E3I+4QDxN4tjW7bNnnc9/1er8eVDYdDrgy1tPmDhwLkBEDPBPoLUusVQn5gCpn2CoDfPY5sEB49E7i/RqOR67r80AdPxQeARxRHNgiA1HqucTKZcJ/gsABnGI/HfJjikAgxZFmWN8E0TdKIav0cMB6PPc/jp8w4QErJz9GI3YYDBECdeD7IUBqf+0QBTCYTHlY0HCBCajhAgOl0alkWmYCa65wBHQzIJyjGz8/BTSYTTujYdsJiVMjtCV8DcBCGTqkIIRzHMQyDH+WbTCZ0ZEPs9ljgYcVQxKWU0rZtjkfHA5pNkiSZTqeOcyunynEc0zT5yJxMJgpAmXDQFwKXKP/Pj625rmsYBg0kmKAAbNumoR6GIdp3ECFsJDw08sNBhmHwc22e5ylPKzdBSgmNCiH3CbpzcEL+tMZxbBiGwsBvQDEBZ3n4OThopLDCBAXA50wQ8qM6ruvyOwSA+2Q6nfJTaWEYGobBzzehpQn5xPM8fgOIO4UVJ6oUQj4/wAR+VCcIAo4HIQ8rZhgFQD7BQMoz8HWED6Qsy9Bbg/Bo90E+QRT4QTkAaOCBkOIIE/hRPhxD42HFYUAOQEMSMoFHAfuAPCFFAWFVCPnyjfmB2wiNdIlZmpuA/iEcMBwOaahLKbEfUAB8e4D9AOGxVBEex1T5hOM4Dj+Vhg0GX1uVI5xxHPMjYFJK7hOMzDwhjRO100Wapjxl+riVrdM01dihD3lPKltzjVmWZVl2XBM4YF8TFECecAbgxAkVwL6Ed6Ixj983CvrM1hmzTbiTTheFkOQ7XQgWpizX6QJhUgCzw6oQKuNE7m0XcDc0niyhAsiboKRJnohGuberg0K4r8ZjmXAUwqObcBs+OYoJcm9Xh9sw4eiEBwGUyxlL1f0ivBONd0goTmj5vtv7gWOZMJuwyHou5D7IQVnPhRxLiqznQgoppJDbk6LWcyGFFFJIIYUU8nBJsfsppJBCCimkkEIeLimPx+PV1VV8BrNtezAYXLlyhT6bbW1tnT59utFo4HI0Gvm+f+7cOQCyLNve3r548SLh2+12tVpdW1vDX1Dy/NKlS/ThbXt7e2VlpdlsQiPy9S5evEiAra2ts2fPUgnLXq+nadrp06dBiALk58+fp8yenZ2dxcXFhYUFAFBr/8KFC8Sws7Nz+vRpqss5GAziOF5fXwcDinNzje12u16vLy8vgxCpZGfPnqXKm61Wa2VlpdFogBA+2djYAAM6XayvrxO+0+mUy+XV1VVo9H1/MBhsbGxQadFOp7OwsDA/P08mWJZFDFLKTqdz6tQpwqNk+9raGjSi8PyZM2eoqGW3263X6wsLC/AqUg4VwPLyMlXJRI7z2toaNKLw/NraGgF6vV65XF5eXoYJqM3PB0av12s2m/Pz8xRW3/dXV1ehEbnqcBrwljX9/ifWHz+3AnyWZUmSlsu3anAncaLpGn2gTdMU33dvAqSIk6RU0m/hk0RIoZdKug5CmaZJSS/pJQYQWqlEhFmapuXSHoCm6SVdR+/5NE2zTJZ2CaWUSZLoeqm0h1CUSiVuQqmk00hOkkTTNF0vabcIb5kgpUyTVNM1hk+FkIxQpmmi63nCWz6p6FpF3MxFRQphrVZbWlrCX5AHury8jChEUTQejzG2CSClXFpaQlhd151OpwsLC4uLi7jDyWRSKpUIb5qm67pLS0vz8/NiNwe5Wq2urKwAgPTe5eVljEyk39brdQ4QQiwvL8MEy7Icx1lYWFhYWBC72a+lUml1dRX46XQaBAGZEATBZDKp1Wpra2sESJJkdXWVnlbLsubn52EC0iSFEISHxuXlZQzFKIqg8dSpU2RjFEWrq6twu+/70+l0bm4OJkgpkRNNhMjjXlhYaDabYjcjGFMWAMgcX1lZwfMbBMF0Oq1UKvyWwjAkvGIC0qizLCMANK6srMAnyCDWdX19fZ0AruueOnWKm0BxRwJvGIaERxI0+QRhlVJubGwQwLbtU6dOYZwgJblWqyFMUkrbtj3PIzwSvTEtkwlRFG1ubhLANE0+4cCEM2fOcI1EiLg3m034JE1Ty7J83z979iwAyARfW1uDTxCFNE1JI5ywsbGBgReG4Wg0mpubQxSQl+26LhEGQTAajVZXV+ETjMwwDM+fP0+A8Xi8sbEBJ0dRNBqNKpUKwiSlxNNEeHQ4WVxcxOOJvGzXdS9cuJm0h1l3fX0dzw5SkikKlEZNhDhRtLCwgJEJE0zTvHjxIgBovrG2tgYT6OjJuXPnOIBuALN0rVbDs4AcZMMwiDBJkk6ns7a2hscfSc2e5ymA8+fP42FM03QwGNDIROJ2v9+/dOkS8Oh0sby8TBMO9gOPPPIIAVqt1ubmJsYJnbKisEZR1G63r1y5gsssy7AfoKfVsqzxeEyE2LFsbGxgnJRpxRJCwHJeSHFlZYXX2242m0p5b9o5QbBpoL/wnRARcgbUseYAmncgCwsLPJ22UqnQTEeEvIx6vV5fW1vjDJiLCbCwsIC8JzJhZWVFwdMKBBOUW1peXuYmwCe88DwYCL+0tMRtrFQqKysrPC97cXGRl1FHvXNeJ57WJzJBCEGAcrmcJ0QHAFzWajXauBCAdwCYn5/nNc6x0eGAxcVFnkqGiY8PjIWFBW5Co9GoVqvEoOv60tISJ7ywvvazp1ay7INZhPBeSr12q9R9s9nkA6/RaPBa+KVSCQODA3huabVa5WHSNI1PDmK3TQ3FvVQq0Q775s3U6zzHsFKp5DUKVqoVQ5229aVSiX4XESHvC1GpVJaWlvIa+dPKx7amafQrhTTyLgowIa+RP63cBBDyM6qYChRCwQTF/rkJ9FONbok/GooJpVJpfn4+r5EIy+UyHk9F4wwTYCPXyOOeN6FarfJ7BiGfoPLNf5aWliisuq5jhlFspP8EI1NxGrcIcefzCWYYBUA2YiBJdhgZ90yc5XKZ47W9DRCA53MgCHlTBWgkn4CQLjVNw6xLeMzSdM8wgccdPzP4OrKwsEAmaJqGWzqIUMt1WAIh19hsNvlpaP7DRuzO0vxpnZubUwCKxmazqfQbWVlZ4Wsr9zkGLf0QIjxvMDI/P89vAAAepsXFRR5WvFagS03T+MIEn9DPDALcIuSdLoTYp3q3cimOUz783hBywIkTfgB88gCakGVZHMd8Ti/kNkTX9Uqlwo9UiLvfEuFBJrxfGu+E8PYYPtiED4jGB5/wA+CTu2rCbHxx5quQ+yDF7udERNn9FFJIIYUUckQp5s1CCimkkEIKKeThktIv/uIv0neyMAxN06zX6/RqCCmB9DHSdV3P8+ijrJTSMAze1B6VXinPJo5j5AxyQiS14C+e59m2zb/yGobBv7tblhVFEeWUoA4px0+nUylluVzGX4IgME0TX76JsFwukwmO4/i+T4RZlk2nU64ROYZEGIahZVkKAJ/VAYBP6Ce4lNI0Tf6L3LKsOI6JMI5jy7I4ANUwySe+7zuOwwkty+J5PLZth2FIf0FSoaJRMcG2be4Ey7J4apHneb7vEyGSCnncbdtOkoQIoygyTZMDUCGUm+B5HhEiI0/TND6QxN4XkoXchqCWFz5jSylR4Ju+anueFwQBBRoVcrMso2wDz/OiKOLjBHEhBtd10zQlPMLKCaGRE4ZhSJndcRznAXEc02UQBK7rartZLKhXiwmENPq+T4RJkqA4NU1Zvu9HUUQTThRFrutyn/i+n9dIJiRJAo1EGARBEAT8aVVMgEY+Z6JYLTSmaQqvckJuAggVjWEY0mUURShWSz5RCKGRm+A4ThRFlD8RhqHv+3wS5iZIKWEj4aFRCSsnhFeJEBppYEgpoyjyfZ/wcRw7jsPDijgqhDysigkAKITkE5iQ18hnMAx+DnBdl68jKBFOJmDwU3JSkiR8ksTI9DyPA2zbJkI8XHEc01EV3BLHm6ap+ETRaNs2TeNZlik+iePYtm3CY5aWUnITbNum5CRlGocJvu8rDHSJdHh6uBBWToi1kpLYpJSe57muqwBouce0Tz4Ru8u3gief4Gm1LIsOx+DUAi2+UkrHccIwJJ+gIjYRSimxH+BPKyfEjoWWQp03bcDCTJdCCMdxeE+GIAgcx1EA/BLTH11iTHCA67r8Wxv8qxDyDyJ4bAiAMcEBmE85oWICbyIBE/hf9iXkPqE1gwO4T/DYEACLEE8uw95iBiEmaB4FTih2FyFugu/7BMBsxQGYoBVC5ZaUsHqeRwBMuAohb4+CNUMBKD7xfZ93hFEIlb5jhdyeZFnGO6IEQcDbiSAKfJxgHeUA3kYHYSUA5lOOxyKnaOTPexRFPLLQqACUkcmf3zwhGgnx8v++7yuE/GlNkgSDn5ugEPKRiUWIdwJS+gAmSaKYoHQaggkzfIJb4hOOYoLSLAl47pMwDPMAxQTen1HpbQQTuE8QJoWQ9xPADHOQCfkowKuKRiWsHICBofgkf0sKXjGBN3UBQIlCHkCXmOJ40wbEkeOVGYx+G3BCvjBxQrE7MBSNfKlSCAHgPuEmSCnzJriuS1GATxRC7LMP8gkAB/lEsE3nQYR5E/DbgwBY+wiAbS5dYq1UZhjeBIZ+0dElfoBxjTMIEdY8IYX1Tjtd4JUAx2t7K1sfSpjtbUyRJAk/coUb5ZWt84RartOFwnCoCQo+b8KhhPwv+U4XeRNmaDwiob63TrwC0E6008WJ+yRJEpwAF3vllVdeOXfuHB18bbValmVduHBBOYTywRYpJcou0GmFVqtVKpVOnz7NR74QAr/DaGhlhzWmyJfGF7mOBzMARyTUNO2IGvPj5AEx4eiEMte0Qea6f9xtjQCcVEuE2yDcFzBj1r0HJkDuWZuII/rkWBrzC8ddNUHcnU4X4vjL94nvBw4iLLKeC7kPkh2Q9Ywverz4k2EYV65coRo2D4mgtA/3Q6lUologJPtmPSvPfyGFFFJIIXkpHw4ppJB7JS+//PKVK1cWFxdfeeUV27ajKKIydB8kuXbtWrPZPHPmTKvVQgUdKsHXarWazaZt241Go16vt1otfDWgAl+Hiud5pVKJPnUXUkghhRSSl+IHYiEPkCDJ45133llZWXnhhRd4Ue8PksRxjFe4+AKYpmmSJPhigr8A0O/35+fnn3nmGV4i7FDhSW+FFFJIIYXsK6Vf+IVfoCRtx3Ha7fbS0hJ9ZtvZ2alUKvS+fTweG4ZB9VizLNvZ2eHFUrvdbhiGdGosCIJWq8XrhLZaLbyuB2A6nfb7fQ7Y2dlpNBr0zr/f73ueR4SobE1NIYQQ7XZbSkm595ZldbvdZrPJAdVqlT71jUYjnGuj4wbtdptr7Ha7SZLQsTLXdbvd7vz8PAE6nU6pVKJTIZPJZDKZUKlQdLrgxU97vR4y7aExCAJ0ouAAKSX5xLKs4XBIDFLKXq/HK94OBgPHcajAdBiGvV6vVqsRoN/vI3UfhLZtD4dDztDr9UqlEoV1MpngXBsI4zju9/uVSoVrDIKAcu9d1+33+7yac7/fF0LwsCJXn9qJ9Pv9crnMBxLOzSnD8fr162tra91ud2Nj48yZM9gMUVH/D4yMx+NarbawsDCdTnEoI4oi1H7FkUYcAgrDcG5ubnV11XXdcrmslHIWu3nKjuPg8MVoNMKZCCTeTiaT6XSKfFIcriSA53me500mE9M08W4JzQdGoxFSKUE4Ho9xwBB4wzBQ2x6EwPu+r+/KdDrFcUXcJ9oFJElC4cP90IRj2/ZkMtF2ayVTMX7Cm6aJ84wYSGhQEEURnfIwTZOfQvU8bzweZ1mGUyFZlqHpCuHR9YUGPxoUhGHIerBYOIWq7/bqmUwmaZrilqSUlmVhRgLecRxuQpIkcBEROo6D1hb0tKKxDL8lx3EIDxOklDABp1pc1+WEk8mkXC7DJzDB8zz0HyCNfMIZj8dkQpZlsJHw0IhpWex2unAcB707AJhMJkQIE+I4hglSSsdxTNMkQt/3R6MRDyu69xCh7/vj8ZgmHJjg+z6/JbS2wGUQBMPhkHySZZlpmtPpVAHQOEEUuEYMRapdHobhcDhMkgQmIHl2MplQfiEaU9A4SdMUTRg4YDgcNhoNOso3HA6DIECYkPA7Go0Ij8YUQggKK5oyUZHrKIr6/T5N++h04boufIKc5eFwSIToU5FlGYUV8zwRAkDLNx4u0zQVBsJjluZhdV0X3TkIgLWP+k4YhsFNAIC2B2maDodDCiuypLvdLqUxYK3UNA0+kVKaptnv96nANFph0FqZZdlwOLRtm8KK/QARZlnWbrfJJ1JK27bR1okAOzs7tFZqOOpMyuI45itNGIY8sSBJkizLeHFrTNO0+0HlaFrksizDmT0CKIkdSZLwrcZBhLTVQGa7AuBHr/cl5CbgdBWt0/sS6uxMPjJUOGBfn/BmGrNNACFnUEzAmwAFwE+8I1VrNiE34VBCxQSkyh9Xo2ICktHopKJCGEURMubEXvniF7/4+OOPozXb5cuXr1696nneE0888QHL+7l69erCwsLm5ubVq1dR9X86naJny87Ozurqqmma+P41Pz9//vz5q1evViqV8+fPK3k/yO8ht8dxrOs6ffnC+6QS6ywGAD3vAPCwIiWQP02CHYDPhxUHuNI0xUaNmjBwQkVjnpBrjONYY20c8s3R8iZwwizLkJh5dBMAIMdCI5/BkEelOI3juQn7EuJwOPcJnyTzGnkU4F5FI/fJEQm50/YFKD7BT0qO52FVfAIbCb+vCXzhAIBPOIrTADgu4QwT9iVUfJI3gRPuq5EuMTKVtS8PUExI05QObx/FJ3EcEz7/LGCe5wAUg+A+oR8GBLhtQiEEcjdnE3Kf7AtQFg6+A8mvzli+uVcx84hdQcWNGVsa/jO+yHou5D7IQVnP2P00Go3vfOc7OHi8srLyoQ996AO2+xkOh4PBAL84NzY2Njc3W60W3poEQXDhwgX8rq3Vau12O0mSMAw3Njbyu599s55RHeqe5f3gcE2apqhW8lCdziukkEK+d6XY/RRyH+Sg3Q+qtOm6jjo0eLfBS01+MAS/87BvwKtQ/CzTNA1/oaOqCox+A0H23f3gB5zyjeweCMoL1Wo13gyykEIKKeTBlGL3U8h9kIN2P4UcS/bd/dwvQf6Hpmn0Vb6QQgop5IGV0t/6W3+LZ/gOBgMli5lnv06nU2S30bdJZAQTfjAYIGmRksv6/T6lQQkh+v0+vixShu94PKbcMWiklGQhxGg0QsFybbdqe7/f5/h+v8+znh3H4cloAFB6nRBiMpmgXjhlPff7fa5xMBjge62227SB5yADwE2AT4gwy7J+v08pyUKI4XCITCBKQhwOhwpAsJRh5N8RQEqJhD7Cj8djNOsAYRRFSGomwGg04t/pkdXIAcPhkH8cNU2TJ6smScJTCKGRf/FFVqMCECwxyLIsdPOgTPDxeMw1osC58iajkOMKT+CQUk6nU567YFkWyv9TMrthGDzVACnPPKyGYfDP6qZp8lQD27ZRO59ySw3DoMwATdMsy8LTShm+hmHwzADLsnhWnOu6KP9PiZmKRsdxbNsmjVEUTSYTnkZt2zY+5NPTik41lJg5MaaW45fKlSTNkjSbWtZkMs2EEEJP0swPwtHYcP2gXK4SwLQcTS+lmUjSzPX94dgIo1gv3WKwbJfwluOMx0YqpdBKSZoFYTSaGI7rlys3AaZtG1NLaHomtSTNPD8Yjid+ENEtmbZtMkLbdUeTaZykml5O0iyM4rFh2o5HhJbjjCdTKTTJTLBdr1KpEcAwzFK5kmYyb0IUJ1PLmloO4W3XHY0N8glMsG23Ur0FmBimXirDJzAhiuL5xs30WOTU08fWIAiQCU5hVTK7gyDAqQg+MoMgoLeGaFhEeKTw08hEhq9lWZQljZHGZzDTNHmqOACNRoNOz4zHYxpIMIEnbgNAAw8jk6eKYyjStI9UcUpmR5KyYRiEj+OYZ4Ij9xzpfQTAYQh9t1nHdDrl6fNwAhEmSTIYDHgmuOM4OJPEATRLZ1k2nU65CZjnCZ+mKT+jIKVEcjoHYO1DWGECzz0HgPYDWZaNx2MeVqSK08dxrJVCCOqtYdv2eDzmgF6vxw8AKUcKkiTp9XoKnnyCxG2eCY4jRDRBlfkPR57xBFFetuffqCt4ntkqhOCZccSQJ+R/oRV03xsQrM7jvhrzhAq+VCrxZFteU44Aigl5Qg7gSVsHmXDoHeY1KreUt4j+kscrTj6UEAd2Zrj9UJ8oB7iO4kNRyEmLEgUlrIiCAsg/C7zSa56QxzFPSD+KOEAZJ8oNzx5I+PQ524S8B+iPmqa9tTP5119758bAIqOklHznneUqKcPwPXihabo2C3BMwsM1HkZ4bBMY/s5NOLNU/+kXnvipF1bI7fyJVuKu5ObvC9j3qy7HK/O8Muvmx8m+Y3sGYZpJO4grzs0+D3ESO2EivTBIbjrEDZI4jqt7ASX3ZqeEJE2cMCnFUqsE4ma6buiGCce7YZLpUSxvHl/y/DgM49ou4CaDF5b0RAiRZqkTxFLK0i4giiMnuHUDSZq4YZJqUard1BgEiRcmUwbwolT3wmosodHx4yRNFAbCp1nqRmmUxbJ0kzAMQxUQJpofRdnNNGrXj8McYOoEtPuxg1jXdX2vE4DXNa1Zr+y7OPJhkF9MlS8GfIORD+u+W5pbeKXTxR1Wts4/NnebENkS/MG+GxoVBmWmyBPqBxfvP5TwKBrvBiH/y52bkJ9PFX5kuohC7kD0XKeLGWG9vWX10LByBrTEajQa9NvrRBZyxYQ8YAbh197Y/tXPf/ut7eEdObqQvXLh9OJ//qc+8tkXnsTlHW7gbiOsd76BUzRuD6b/8D98682tYpzcC9F1/bGzK//zX//xO1yd8wCFcPZ+QH1Vk39JoNy0YsZswD0gvO8a74EJszWeOOGJmMA37PsCRCEnIdyTh46TQ4NyhwA999LxZDXm8UcDiEJOWjT9YLffq7CepMYkk4YddCeOKOTuS0nXlps1ccercx6gXM7eDzwQ+ZKFFFJIIYUUUkgh90z0dLfbu9gtTsj/GVXp6BK1gxQAv6QS/gcRKid90jRFwTQOUC5R9AkipcwD8hoVANeYJAlnOAphHpD3yQwTUIDx6BpPnDBvAv/Pxe53qBmEaL9Af4GTFa/O8IncLbTFAbJoyHDHInebY0NQP41fKmFFHA8CYJwogPzIJI37EmasiOW+gBmERzFh9h3mTciyrBhoJy5SyEzeihoqOPBLZZwgjgpAGScKID/tK+NkNmEekCfk40RmspiR7rFIKfMbjPyGQVmJlB1I/lKZH2ZsaXTLsojd87xOp8PvZjAYhGFIl6ZpDodDAiBnm+PH4/F0OiVClPfmdzMYDDzPI4Bt2yjXzQF8mBqGgWMjZJtCiNr8ROg4Trfb5YDhcMgdhPL8BEjTtN/vc43j8diyLNKIxhQcgGNopBGNKQiQpqmiET4hQjSmUAC+7xMAJ+8IIKVEXXnCT6dTnHwhJ+OoHQFQqJ4IPc/r9/scgFR8usTJO1KBswA87oZhmKZJTguCQBkYk8nE930eBRwTI5+gnwDhbdtGGVDKUYU5lLWKRZQAmM44QLnMsozqA+m7hyZmA/bVSJeKRk3TsGObTagAZhMqgH1NyBNynyRJQk7GmQ7P87iTDcMgAA6VOI7DAZZl8bCiZwINPMuyXNclvOu6k8mERg7OfHFCdMygkYnGFByAM1w0TtBHwvd9Gic4lqJopJGDgzaWZXFCHPIiE3AqhHzieR6fDQo5EcnSlKImpUQXFPpXtMIgAA4H4VgoAfgMhgNTnAFxpEucwKKhiPNNnBAAGidpmqIJgwKggYdngQZSlmW+7xXFX+6xZFk2HA4prFJK7AcIgNWZ4pJlGZrtEAD7AU6INlBE6Hlet9tVAESoBUHAsyZRlJ2z86RrTMc8iRodD+gSNdeJEBO0AqDJXeRqrgPA8//3JeS3pBDCBAXACWEC/WVfQq5xX0LFBE54kAn6bkrEUUxAotbRTUDm1wn6RCGkZVvbTeaf7RPFhH3vUHn/VMhtiKZp1O9JCJGmKUYaXQoWNURBGbpib1iRzM4BnFAB4M0TB7iui0O/dGh2X4384coT5gHKQFIeT54mmTfhq69v/eMvvHJ7Wc8/+fHHv++xs5/78uvvtseHo29LLq0v/9lPPGm6wb/4g+/eJRV3Q86fXvwv/tTzn33hKVwqUVDijrDyhUOZEPYNa5ZlCj4/w8wg3Fejcsk1vt+Z/L3/92uvvH9rKS3k7klJ1566eOqf/eLPHLofmL0D2XeDkV++DyIs70kCYvcBUSrr5w8qKwDldJnGenzsC9j3uPidEOZNmHHg7W4Q3hcTZmu8c8J86tlsQgWQJ8SKW+x+7lD4zkMcIQHwuGGdDdg3o5Dnkx5XY57wKANptgm6ztNzjyfNuerpxUatcherM1RK+upi/dA7bNQqn/nIlTPL8//s9165ezdzdNGEpmsH1h1QwpQPax5wGxPIDMBtaNT0E0uPX27OffaFp86dWvyf/p8XT4TwAyyH7gdm70BuYzHl+D3QQgoppJCHQZ66cOpnf/CZpy+efnN7+G+++tbGavMTT5/XNM32wpfeaX//0+efvnC6XitP7EAI8eSFUz/3g888eeHUt9/t/PbX33n+0Y3vf+q86QZ9w/nnv/8K9vDrK80/8/Ennr1yRgrh+NG/fvGNxUbtU89dzqQMo+RL373+/CMbn/nIlakT/Ns/fvuP39j+/qfP//ynnm3UyrquG7b/yQ9d/OHnL//uS+8KIX70+x79xtut9tD6uR965vlHN97YGmwPzD/3yafXFhvnTi3+x7daP/KRK5fXl7/9Xvdf9hZXrgAAIABJREFU/dFrrZE129JC7rGUdH15fu700uGN9i6tL/+XP/En/td/+x9HlncouJATl2L3U0ghhTxcsjQ/95nnr5xaavzON69+36ObP/nxx7tj+/se23y3Pf6j71x79Ozqs5fP/PEbO+dOLW6sNJfm5569fKZZr/7Gl17/2JPnfuKjjwVR8uzlM1/67o1vvdOh15flkr65tlAtl776+vZHnzz36eevvNeefOTRjWvdyb9/7cYjm6ufeObCl1/bWmnO/emPPz5XLX/08bNuEH39rZ1PP3dZCNGYq5xZmq9XK0KIU0uNjZXmlY3lK5srv/Gl1651jVq1/KFLp8M4+6e/98oPPHP+4pml3/nm1Zff7Uxs//558YMvC/Xaj3zkyp/66KOmGzbr1c99+Y1326PPvvDU0vzcQqP2jbdaA8P5z378+5abtW+81fr1L752Znn+v/4zH11brAdR4oXxmeX5v/DpD/th/JtfffOnX3hybXH+//wPL336+cs/94MfitP0a29sP3Z29cf+xKOXN5Z/++tv12uVn/jo47YXfu7FN/7oO9fut+kPheioII4L27avX7/Oc5C3t7d5HuVoNGq1WjzreWtri+M7nc5oNCLCIAhu3LjBsw5brRZPezQMY2triwN2dnZ49lmv10M3bFyGYbi1tcVzkNvttmmaRGia5vXr1zlDu93mScrD4bDT6RBDkiSKxk6nw/OsXde9ceMGTxnudDo8cXs8HrfbbWJI07TVanF8r9fjadG+729vb/MU4G63a9s2aTRNkzNIKTudDscPBgOeCxaG4c7ODs9i7vV6PBXUtm0F0O12KSdRCDGZTHq9HmmMoghOI0C/30dhePLJ9vY2Z+j3+47jkE+m02m326V7TpKk2+3ygTSZTIocwzuXOI55bulwOOQZwYZh9Pt9iiOOIJimSYDJZKKEtdPpEIOUcjKZcLxpmjyOcRwPBoPpdEoANDSgyPq+3+12OQCHGPiE0+12KUsR6fY8+9U0TW5CGIbdbpenPZqmOR6P+dPa6/V4NqttO0miZj0vNmrrq82e4fz+t97bHpjrK/NL83N9w/3Ka1tv3Bg0ahXLi776xvY7OyM3jBcatfXV5kefOPcXP/Psn3zi7NJ8rVzWt/rT3/vWe2+3RpxW00TPcL76+lZnbK0t1uu18nDqfuW17Vev9efnKlGS/vEb2+/sjOaq5UfPrtZrlaut0bfeaW/1p3tJNF3TmvXq5urCyPT+8JVrb++Mpk7gBrHlBt2x9ebWcGdoffaFpz7z3JXq3fwqN0PSNHG9PcmqaFkA8X2/0+lQWNM0xQxDAOSi8gkH8zwBEEe6DIKAj0xkx/NsVpxN4fn4w+FQYeh2uzTwwjDsdDo0kLIscx03jG7NsRBd11YX6xsrCy9f7Uws/2d/6Jm5auXy+srHnjj36rWeYfs/88mnbT/8za+8+dyV9b/46Wc/85ErKwv1f/2VN4M4FUKUS/raYmNloV7SteVm/fRS4+zawl/89Idfvd77R7/zrZfeaX/n/d5g6v6D3/r62zvDH3r20vXu5Fc//6132yPxcEiapjs7O3zCMQzjxo0bCoBnPff7fR7WKIq2trboMsuynZ0dmnCklKZpckLsWGiclKknlxCiVqstLS3xz5+Li4v8Q1q9XucpSLquLy4ucnyz2eRf5kqlUh5AXYSEEHNzczjGQn9ZWFjgH+rQQ4QA5XJ5cXGRAxYWFjghTFAY+D3X63XqpQIT8ho5vlKpLC4ucqPm5+fzPlEIFTzPz4AJCoAaFcEEnkKoaZri1UajIVnd0lKptLCwwG8Jd0iE1WpVAcBGupybm+Mlg0ulkqJRMQE+4QyNRkOJgs5qluu6Pj8/zz+41uv1Q7+yv/POO5VKZX5+fjqdbm5uUq+W25bXX3/99OnT6+vruOx2u6Zpbm5uLi0t3SHzyQr2u/V6fXV1FX9pt9ulUunUqVP5r9p8nDQaDR41hJX+k1KppEQBuck8rBiKREhtjCBot0eEuq4rGqvVKh+Z5XJ5X40czwEgVDTqrFZ9fmTWajVqkEcmEKGmadVqJZ/44wSR5Ybrq81nL59ZX5l3/Mj2wzBObC9yw9gL48VG7crGyunl+blq2Q9j14/e3hn+iz/4rh8mSZq+8MyFIE4sL4hz+6q1xcaHLp9ZX25ObN+P4jBJbT90g8jywnql/NjZ1c3VBSHEwHDPri6srzTPnlo4vTxv+2GSZuWSvr4yL4RYW6yHSeqF8YXTS4+fWxuZXrNe1TVtcb62ttCYOsGvf/HVjz5x7vse23z83NpL77TFPRdN08tl7uQq/9dyudxsNnkU5ubm+DBAmPiEw5tFEkAhJC26rvM+icSgjEz+oxojR7kkPMZJPoNTCKEJzQ2ir7y2VS7pf/YTTzbr1ThJr7bHv/vSexfPLJ1ZaX7xO9e++37v40+ee+ri6ZHlXe8Z33y7df7U4hPn1zhJSddKur6yUG/Wq199ffvVa71qpXTh9GKcpN2x7YXxi69t/cwPPPXX5uf+ye++3Bo+FF8zNU1Tlm/sB+hSWZ0xxXEGbDAUQuoSiIGnAPjiW6YOZEKISqWyvLys7H74JdZd/hdlt4SGpnyzsry8zKczEBJgbm6O70UA4Jfz8/NcY6lUym9uOGGtVqP2nxDetJUI+WZF0agQwid5Qr6d4osEAqCYoPhktsa8Cc1mM+8TZTs1Q2O1WuUrBAHosl6v57dTCl6wPSh2P3lCJax8l8w73ULjoT3ewzDMsuzMmTPLy8vKqp+XN9988/Tp06dOnZqxqXrssceU44pBEMy+h/simqadOXOGBxTn4/JJ4iXWODY/NSg/LfJrDJ59Hlalqw6fHMTuyFQIOQC7n1uTS7msxB27n4NGJhatGRqxneKE1GB1XxM0TatW90wvENMNXnxt689/6kO/8DPfv9U3v/DSu6cW5wXK2GTy9ev95x/Z+Ks/9pwfJUPDnTrBi69t/fxK8+/+/Cf7hvv5b1yVUoj98vVlJq9srPyFT384ipMvvHS1Wi4LKaQUUopX3uteXl/+qz/6vBPGv/fSu1/8zjUps5/7oQ9dXl9OMymE2OpPe4bzl37kOcuLTDeY2sF7rfHjZ9f+u//0h195r/vvvv72+93Jz3/q2b/x2Y/f6Bk/8bHHq+XSy+927tcyqetatXprN4M40qUSd13XMcMoAD7h5Hc//FHFZoWHVVkm8xqxVHEAV6HgkTxb0vd/kdaoVZ69cubimeUgThw/SqUMgsgNIj+MHT+6vL58vWusLc5v9adpll1aX95YbZ47tSiEyDKZZtmZpfnlZu3KxoobxEEUl0v64+fXOhOrXq0kmayUS+urzc7I+va7nes94y//yHM//NzlV6/1972TD5gob08QVtq7iN3NCl9blQkH+wEFzweSMjI1TeM7lj2THV/A6P745aGA4+IfQI0PPuF90XiChLZtR1GkjGPIaDR67bXXXNd9/PHHwzCsVCrT6dQwjAsXLozH462tLc/znn322fPnz7/00kt4w7m8vHzhwoX33nvv6tWrTz311Pr6+tWrV8fj8dLS0jPPPLOyskLkr7/++ubm5srKyquvvmpZVhRFy8vL+Xu4B3L9+vVms3n69Ol2u10ulyuViud5S0tL9Xq93W43m010zJ6bm+t0OkEQ+L5Pr6wUUZ5f5Z/uMKy3AThxwjs2QYjcfjjL5KvXe1uD6Vy1HEaJ6YaVsv6Nt3dsPxJCvL0z+vuf+2qtUk4zGaep7YVCiK3+dK5aTtLM8sKSrn/+m1eNXM6Npmnffb/3q5//VpplUyco6fp33u+Csz2y/+//7zu/9dU300xabuiG8e++9N7X32pJKdNMRnHq+OE//PffbNSqmZRxkrpBnKTZjf60Vin5UWK6wc7QfPHVrTBO4iT90qs3pBRuEJluoNp2j0TTxJ6BN3sdORQwewK5DcLjajyoJYoUcrk59/OfenapUfs3f/xWkt76sdSfur/zjXf+yo8+//wjG+/sjH7jy69tri585NGN//Znf2BkekIIywtfvtr563/6o7/8lz/t+KGUsjO2/+CVa3/uk0//yEcuf+7FN290DdsP//bPvvAH3772/CMbj2wuT93gOw/Tqfs7XNoOBcwmLLKeC7lHkqap67qO49D30PzLjDfeeGNjY2Nzc7Ner7/99ttCiCRJsPx3u91Lly7Nzc1hfzAejy9dunTp0qWXX345TdPFxcWNjY3Lly+/++678/Pzjz766Ntvv22aJn9T6HleHMcAPP7441tbW0oZ0HsmURQh2waftHVdpwqkKG4eRVG1Wh0MBvV6/dKlS9euFVmQJyxRnA6ntwo5hrFw/N00lCQdmuoZnAEDkzyyufoDz1xYnK/FSToyPaEJL4zb7BCWG+wW/MyyqRNQN2whhBNETrBn+I0tfyz27Kj6xq1CkVF8cx8mhDCc+7XpeehEE1pv4vyPv/YlTdOmThDGyf/x29/Eq78gir/2xvZb28OSrnthPHX89sj+u7/6e7qmRUkqhPCj5Evfvf7q9Z4mRJRkWSYN2//nv/fKb33lTSnl1A3COP2lX/39Uklz/OiLr7xfrZSjOCmCe8+k7Ps+vd+Oosh1Xf7xyzTNRqNB745834/jmD6LoBosf9dk23apVKKsjiRJXNflAMuy5ubm6FNfEARBEPC3W6Zp8i9HjuNomtZoNMCQpqnjOBxg23alUqHvLGEY+r7PCS3LajQa9B7Vdd0sy+bn5wFA2VD+Gta27XL5VjpUFEWe5/FUHtu2kVEBgO/7SZIQIXIA+VdtmFCv1/XdisCu6/L0Bdu2efpCGIZhGBKDlNJxHJ5ggeKYRIhdBbfRcZxKpUKfDKIo8n2ffxd3HAcmUFjTNK3X61CRZZnrushnIn5N08jJSZJg2HAG/rI6DMMkSebm5kDoeZ5pmnj5jO2IUsOKJIqiRqOBVzL8X23bRjXYubm5JEkuXbpUr9cXFhYQaE3TMOpqtRrKUvf7/el0ury8HMcxf5WK8XDu3LnV1VWUQhYPkiiftxCUer3Og8sFBf6pobrv+6VSiewNgiBN01qtRnH0fR9jGwBkTNOnZ3wKrFarxOD7vqZphA+CIEkSjFVxs0KuXyqVCBCGYRRF9J9jnFQqFc4gWPZPGIZxHFerVUwIWZYFQaDrOgdAI0zAVhixJkCWZfS0xnGMV4bkkyiM7t7HzfbI/J1v+iVdk1IkafqV17cekgpWWZZF8a1jGXEcx3FMb3MxkPDVEuAwDNM0pcwbhIkmnDRNgyDQ2KdbAAiPgUQjU0qJgaEAaEbCQMqyjAOCIKCPX2maep5XLt9M/JBSxlF0UE3wOE0741v1x8cWFUMXQZTwf0qzPZdCCC+MveGe4x2mG/A3dt3JTfye1PeHQ7BW1mo1HtYgCOiVPDYYtFaidrOUksKK/QB9/AJhtVrlE4jv+wohLYXlIAj43IGfy3yzwr+c+b7v+z7/YmpZFs8RwbpLc1OSJNPpVFnpdV2nlT4IAmx3yCN4589/r2PrQKMWd883KzxrOAxDaOT7J5o9xe4GjrYOqMJOl0II13URD1rpoZHvZni+Bd5MUOoPAkALPwiRpke7H2jkAE3TaDcQhqHC4DhOtVqlS4wAyg1K0xRjiO/w6vU6OTmKIgWQNwEvG2gysm0bHZTiONZ13fd9rEm0TKKqLw0M3CHf1MZxTDs27HGRgYt3HmEYKqnfEJTmVHLLhBC1Wm1hYeHChQvr6+tYj0ulEn+Hqe82gqjVapcuXTp//ny5XKb5l0u1WsVkjbVc3A8h6/DyCc9LlmX0TogEm6GDzsehNCrNHZ7n8b0LwkqJz9jFzs3N8akBlVXhySiK8EuACLHVIDx+CeD5Fbt9JPjmBo6lVQQbfa4Rux96uPBzizIfaQPH75BGjtid7KrVKt/9YHtEMxgG/63dTxxl2d3akoRxGsYP45lzKTM+JjEwaPeTJInjOLquU1gxFPlexHVdPuFgDuS7H8/zON5xnPn5eb5MYiVSCGn3g44reQZcQmOtVru1+9nbHwpi++FvffXNL7z07ok6r5CbkmWZbdv4XY2/YD9AmxUAaK3EFMe30VmWYceCS2xuFhYWqNZ8FEWcEABaCtVOF0mS8AUjjmO+zOxbiPpYnS72JeSvAZS3AlgMlMrWCp6ffIEJPJVy31LZJ9vp4igmzNbICQ9tTHEUwuOawH2SJAkOzOONl6Zp1PEAABDyOM4mxE8xvNNCjjbdudgr165du3r1apIkjz32GMZxvV4fDoeXL1/u9/vtdlsIsbm5+eijj7700kuPPPLIxYsXv/zlL1+5ciWO4/fff//s2bNra2vvv/8+XuA999xzPF3mxRdfvHjxYrPZfOONN9BYLZ8bdG9kOBwOh0NslNfX1zc3N1utluu6lUolCILz589jB1+tVtG0LgiC9fX18+fPK4VNtcM6XeQbmPCBcZROF2JmYwqFcN9OF3mNR+90cUQT7lKni0IOknynC953Yt+w8gYF+zYwEWyeP7TTRb7jQb51hti7cBSdLh4coU4XR9lgHLofUPDKfmBGpwutKLtSiCLj8RgvD/f9OHV7ghkwjuMoijDkcHJNgeENNt5nyN0Gn9iRIxtGSonvGngTjnxhDG68JKhWq/jiI4TACzAiB7JUKuFLH+Y+5ejsvZE0TdH0HuaUy2X89EQuVKVSweKhaRpaHBMsn8FHb24eBMFLPnr18iDIH7+586uff/nNrWL3c5Jy4fTSX/vxj/zUJ5643zdyYnKtZ/y93/jat9/rHg4t5I6Fdj/39zaKrOdC9gi+xVBux0kJthp4GY5VH/+rwMrlMv8MCsGd8IwWsXsIXwhBb8vphumfhsMhVWXc3Nykdyf7Hje7l5JvZ5P/QkfIe3JHhRRSSCEPlxS7n0L2CD6HH1pf5/YE5w+Ro3MPCu2srKzMz89DUaVSOdn9XCGFFFJIId+7UjYMgw55OY4zGo0uXrxI79J3dnZOnTpFOYaTycT3/c3NTUoZbrfb586dI3yv16tUKqurq5TU3O/3z58/Tz9h2+320tIS5d5Pp1OcwSFAq9VaX1+nher/Z+/NYizJkisxX96+v4h4sWdsuVdVL1ndZDemScwiCRw2NIIoCJjB/GiH9EO2qF8JpCBIX8LoW6MRBM2HJFDi/FEz4Ey32ATZTXaTNVVZ1ZVVlUtk7G9f3J8vz59v+jgdVhbXX7yIyIyIzKx0+yjUfWlh5nbt+r3X7z1m1mq1ZFmenZ0lYGaz2VxaWqLluV6v5/N5Ql7rut7v91dWVojh6OhoZmaGcJGdTsfzvFqtBo2e5zUaDa6x0WggQSQ0WpbV7XYXFxeJoV6vIzULBPZ6vdFoVKvVwOD7frPZnJubo6/5ZrOpKMrMzAw02rbd6XQWFhaIodFoFAoFwnrrum4YBkkIw7DRaMAE8AMyMjMzAxvH43G73Z6bmyOGZrOZzWYJ+m0YhqZpAkOpVCK39vv98XhcrVaBCE4mk81ms1qtEvi03W4jTB0aLcvq9Xqzs7MkodVq5fN5Cs3TNM227Wq1Co2+77fbbXQaabyGKyeOiflKEu7LcPoVBEG/30deb/zrYDAYj8flchleGI/H/X4/m81S8tPBYBAEAbnVNE1EWEACEs8DpwV+Xddt2y4Wi9DoeR40EurQMAxAu6BxNBoNBoNsNksMKEpDcRWGYSCEE6dxqGCgqiqhFHVdB0AeAhHTkEqlCKql67rneZSP1LIshE3AhCAIsmrwb35j7W9/fR38ABYQ1ACwAJklsI5C1oA4IdylAGGBQM4gIE7OqZFDXgSN5xEosbNPAYk40QSOrhBgfNCIy1bOwAUqslTJfgnuNE3Ttu1arYZfbNseDAalUoncivRaBMKzbVvXdUw4GJmDwUBRlLm5OTBYlmUYxvz8PJqO4/T7/Vwuh6EIMKxt24uLi2DASKMJB9E2vu+TRsBp5+fnCW7f6/XS6TQGUhAElmm+qvwXby35vt9oNEqlEk04mqZpmra+/uXbWq/XaXUOggB1tMitrus2Go0bN26gGQTB0dFRsVjEhINw6V6vRwKxY6nVar9MuwqoPP7N8zzHcWgNkyQJIRu0So3HY9/3eXEMxFpTE8FBtMoiJpYzICyF3mQAQQQGXgZBCBIBfpYzIIiXXlQI5DFclmXxXMxCiCwEcgbE3BJuGnATzgDEidAnFNKFAAeewBrBnBSV5vu+4ziCQB4ujsAZgYELdByHx3zBBL6ZAJKdZiuYIDAAAUMmBEEAgd1uF4gcbiMqdgkmCAL5VgN9QhLQJ1wgr7wW08sQH/yO41BAlnTsVnI0YspUVeUMkiTxoQ5IIGeQZZm/XIAQklvH4zHXOBwOkawB21zf96GRZhhopCaSG9Hgh0CZVU4QNMIECiYCA8Yqmp7nIUQAjxSGoWmNRuMT0MZQCnmmPqH5y9/OYBC4BQYM7FMlvJDGaQyhFMonNb6kQEkKQ0ma/syppFoqfBnkhQwXaMLv3K1I7M4ZkOmAZjAMDIFBEEgjE1hXrEScgU84wAieJhBB+DQywzBsD4yffLo39o4PpEMpCANFVshowO++xNiB4UQzlCVJVuQp/Dj8niaQawzCUJIURT7B8LICTzdBkoJgqsDzMZxsnugT0ihLciGb+s1fvY21T1i+CZmAIFAeT42ViPyIKDCBf7pAbDAgUMZ0Q48rBBtHY4+nM2BJe9MFXkjjpQu8FI0XEsh/abVa5XKZlxe4Co1AQF/D5ddXmwTU8ysfSLZtI48Lff9EJQj0Ahov9MwEMJ/yDDFdlIRgQ+nNnyQ93x+a9olPslCaumOc1JTOYnj9BV5I4wsLDCVVVcrF/KudssQokunNMxkuyh8LfA01RgfQVWiM6dLplQ+kM/mjFI+0N5QuNBJe/0lSkeVcOhnvkq+Nfnn68kqnrNclVjammGKKKaaYYorpekgZDod03GfbdqPR4Kd/rVYLN20gXdcBuUUzDMNms8n3y51OB8BGNMfjcaPR4Aztdtu2vzxgNAxDkNBqtXi6236/3+/3icHzvGazyZNydjod0zRJoGmajUZDYOBwNk3Tut0uMQCQyzV2u93hcEgaAdzmDJ1Oh8NWhsMhkNRoApnF+Xu9HiB4aDqO02q1eJqlXq+H9M1kQrvdJoYwDLvdLudHn5AK13Xb7Ta3sdfroaAHmrZtRxm4W1FHggT6vt/tdjl/v9/XdZ1MGI1GwsDo9/uCW/kzQyDnNwzjVeVZ/ioRgHr4/zAMNU2zrC8LVBmGATw7mq7rYmAQw3A4FNza7Xa5hOFwyPlN0wTGH02AlA3jy1pUlmWh8AuawJZyBsCcaZwgpAApCaTjzK3D4Ze1AkzTjJogMOi6zt9WvE0kELmdzu7KmC5CwBri/4Gl4EVjHMfhbkXueIGh1+vR/AC3omgxaDQacf7xeMxHZhAEQLMKDDROfN/XNE1g6PV6NPBc18U8TyYgPf3L9ElMF6UgCFqtFrk1DEPDMBqNhsBA80kYhoPBgLsV+wFqhmHYbrdpwgnDEPsBztBsNmmcJPjOA2gy/nwA//OnEaYS4agwPM7WyiUITc6A1MyCCoGfo6jC4wgIzh81gQuM8vNfziMw2gnT+2S6RVKkV4Vm9JGiDCfupyfZeKFOBv+URwLYTXjC6SZEe4k3AVqkEiioxUE1FiRJ0nUdVXigFyVWisUiwdk0TctkMsSPTTzVw3Jdl8qkk0BFUSiwbjQamaaZz+c5Ay8QY5qm53lU5A4zOC/agKmTqnk4joNybBTXpus6r/oCTEwulyOgJTQSg2EYQRAIJqDOFzHIrOYdpRbkfS74faKjBTcJbqVf8K+C36P8wusZHcnCI/HnEcbJaRo5g6BxokXCL1JMV0BnDqQpk2R0mZi+jkx0a1SgME6maIzHyWtC0Slr+tp35jAQJpyJ6zsJFCtdCGmhhRoLQnAmGISmPLXSxcSqDtM1SiznW3gyo/lpAqeUiZiYO18QKJ9VJmKKwCgDBFI9gfOYELA08Kf1yeUKJBNarRZCoKdojAr0T9ZYeDEThEz20wX6kaoOZwqMmjBdYxiGlyvw5U2ICnyFJtBmhcdXAvXMK10IQ1E6vvKPaowKnGiC8Hpi6KIZlYCosejatre3Nx6Pb926heazZ89Go9G7774rvd00GAyGwyGFEGua1u/3l5eXhWyccAEPiRe8EB1p4dTCFMHJCif4ZYpAjJzpAqMap1S6QFBYvAe6NlIUJZ1Ov8B+QHDry2ww4koXMZ0g7H7ohCOmmM5Pr2Gli9NivpA2gsb5o0ePLMv69re/fe0P+HoR+or2Or1eD1X2BIfKssxTZnwFKJgUheq6Lq74t7a28Euv1/vss8++973vvYpnfAPIdd3t7e27d++i6ft+s9mUZXlpaUngVFhmnFdFX+VccDHFFFNME+ng4MBxnJmZmadPn+LiNTpBf/Wo2+1qmra1taVp2mAwyOfzlmUhqSASkEqSNBgMlpeXG40GAJdfvXyhQaSY92mUSCRqtRrfEnmex2FnMQmUSCTW1tb4L67rnjMMMwxD5KW7mkebQImApScSjhOlY9gNPb1wwilFbr6Eo3LhvDEqMMrwAgKjDMJZGX/gqAnCI51HYLRPBAlCU4oc6k7hP5MhekUi8AeRnFTTGfB681+iNkrswuI8Aqf3yXkESievSM4UKFyRTBd4Zief0wSyeuKtjeCFMAyj3S7cCk0XeNFOi7r1JQUKfTKRQTqmM004j8AX6BPh/Z14nTEajQCXzmQy77777qNHj96GU3CCyeN/0uk0sr9KkoS8lJIkjUYjgNNv377d7/e73e5EUVFHT5nioldj/F2Y6LWowOiV6EU14s89zzNNE1P69HHiuu7h4eF4PF5eXv7FL34BLODbHK7huu7u7u7S0lImk2m321iLPc9bXl62bXtvb29ra+vJkydf+9rXdF1/9uxZMpl0HIdydkeJT6phGPZ6vVqt9pI7EIEzSTUnAAAgAElEQVR/ypZG0XWdvG7b9tHREd/qNhoNwvZLkqRpWqvVIoYwDKMhXf1+nwQ6jlOv1znsqNls8vgmXdeFEC0hwKrX6/V6PVKBzNacv9Vq8SgSwzCOjo4EBiE6CW6jvovGiPEoEsTB8UcSwtZ0XW+1WiQBZ31CEFm/3ycGx3EajQafahHOwE1oNps85ouHgMGEXq9HAl3X5Th2mMDD1izLijLwPtE0jcepeZ7Xbrc5Q7fbHQwGxIA+4QMDIR7cBB5q5/s+AuW4Cf1+n4xCHBxnQKwQN4E/M94TYWTyKBJU/6CoEykStmZZVqvV4gyDwYB7AXFwZILneUI81GAw4KF8iA0UGPjIRGwgmeD7Po9Oko6LtHATEM/IbRTc2ul0eCBMv98XQrp4IAziXHgE1nA41DSNTEANFh4xoWmaELHV7Xap2z3PEyKwLMuyLIu7NaqRB5kKJvi+D9yJoFEwQdM0zqBpGvUJwtaoE4Ig4MGPAjmO4/t+qVSqVCqlUikuA0eErQbK70z8Fvd9n96dMAwRDEj/OhqNBLfqus53UY7jCBMO5nlisG1biNji70IQBHibBIH8bRX2bZBAA891XczzJNC27ej2NwgCx3FM08Tk8K1vfWtjY4NPjG8bhWFo2za2IOPxeDweI5myJEm+71uWhTfO87z9/f3V1dX19fUpZ2xYK2l+QG/X63ViCIKAL75BEPR6Pe5W7Ac4f7PZJLdiZAoC6/X6lzFfhUKBNkrZbHZhYYG2w5IkCRsxVOQhBlmW5+fnOf/s7Cz/1kylUgLD3NwcP0cpFAq8KgU08p0dKv4QQzKZjGrkAhFTwyXMzs7yea1cLocsObeqqoJGFCkjhkwmMz8/zztB0FgoFPL5PElQFGVubo7zV6tVLjCVSlFRMGLg21XMOMQgy/Ls7CwXWKlU+P43mUxGNXLkVyaT4ZU0wMBNLhaLHEqWSCRgI9fIEYKZTEYYGJVKhfcJah0Qg8LKnIFQh4V+SaVSURt5pwFKQvyyLEPjaSZAYFQjFyj0CYpPcbfyr09VVYVOQ8kh+iWdTmNscwYuEH3Cx0m5XOYjuVAocIGol8cZUMyOBGYyGT7UIZAfMgsmJBIJDAzOwN8FjBP+dlP5vIkmqKoqmIB3mXshqlFiCccEtyqKgk47TWMymcTbxBm4CSjQS01FUXK53ETUs3RcOQslEVBeJsrzFSP6yPZ933EcDCd8HwOuDrbwmIAFjsrhkGdZlgWkVzqd5u+7oigYacSAgcEnHKo1CcJQpCb8jk0Sgrmwo6WVD0/b6/XIQKgTGBAdDYhPMpm0LIu28olEguohCOR5nm3bpVKpWq2i6tHZHf32UXgyMsswjHfeeScIArzyE/lbrVYYhpRWAz5KJpOoFloul7E683UEax8JSSQS/GAJiy9fJijGlhj4an4iW3kUiCRs3KJ3wAKD8P10pkBVVQXo3HSBMqsB9GICBROiAqMmTGe4dIFRE15S40UFRhle0gSZ1YqaqDEqUGB4gT65XI2vRCDfN5wp8AU0Cn9+UY0TBfJ9fFSgoDEq8NJNUBRFuI8jSqfTxWLx6dOnOLR7G3A/2J4+evQI5dKy2exoNHr27Bl6iYrL5vP5Xq/38OFDIV6GE+95wU2CF6JujTJEZxjO4Ps+7qpKpdJpV5nnJ9d1LcuiyrtEYSQOnx4mmUzibBs1E19G+5tOqqric8KyLHxsIPsdP0eXJCmRSKDgMQq0ReXgq57/EgRBp9OZnZ1FPyNHCY1JEisIeZn9wFcN0RZTTDHFdCbdvHkTgADMtlJk3vxKUj6fX19fJ7hVOp3OZDJzc3M4BMIWpFQqpVKpzc1Nwhe+2p5xXdc0zXQ6zY8JX5JUVnkXhAOhicyJRKJUKtm2/aMf/ShgtVrfQlJVdWZmZnt7O5vNolxooVDY399//PgxEruALZFIrKysfPrpp+l02nXdXC43UZrgAqASMQhRqVTTNGRluyJz4oj3mE5QHPEe0wvTGxTxHtPLkHxdEe84VBiNRsKN50vK5DfCoIkR70EQ4GI0lUoBQIZtIm69304CXh6+QKVb27b57TmKrnueNxqN8HsikYhuoKP3QmEYCulbbds2TbNWq12RLepv//ZvZzIZGAPIML96Pzg44PXigX7N5/N0vbq/v8/BAfV6HffH8nE62sPDw2KxSL1zeHiIg0QwDAaDVqtVKBSI4eDggN/0N5tN27ZJ4Hg8Pjw85NgjwLSpJrmu6/V6nQs8PDwEPAIMqMVBYCPP846OjrjGer3ueV46nQY/UmVTSl8wqKpK+Q97vV6/389kMmDwfb9er1NTkqRGo2HbdiaTUY6zDNfrda4Rl9MkELU4SAKg5alUig792u02PoYg0HGcZrOJQ0jqNN/3qU8Mw2i1WlxCs9nkN/e9Xg95h1VVxQlzp9PhsBggxwkUYlkWHokktFotSZLIrYinJQm+77daLa4RkGSaQG3bbrVaiUSCMyAqldza6/VIIJDg/MAc8FsS6DhOu93mn61AHKdSKZhgGEa73eafgCjhwkcm8k1T5mWgLIkfQG/SCBi1LMv0Sne7XW6CpmmaplEnAAkeBAHxA7OMPJMYJ3gkYkB9EvICEMFkYxAE0MgFDodDMgHAT9/3aWuL+iQk0DRNIAohIQxDVJng6bD7/T7eX+m4QIHneYLAVCqFRwL6lWscDAaj0YheLhRAoONrADsEjZqmkQkEbqUpEsU9SKBlWShoABOAP5Di0qeXTcAJ0TgBLpi+0QGfp5Hp+76mabquEwQEoGZCrWFk2rZNEuDHQqGAtTaRSAhuxcAggXhZaH4gPD5n6Ha7WLlkWfY8DyUUMJCCILAsyz+ZRlw6vrPDC4JzMp5f/u0kuBW7Aqyq1MTkCacLbFE5cMTR0RGfM7FU4bYL7yxmJEwIQRCgkAW51XXdo6MjusQMguDw8JDO5wAqajQadH0WBMHBwUEmk8E4SdDsLElSMpmkPPogvkhLkoRZhhhklnd/Ir+qqrRVIgZ+dZdKpaIS+BDEzowjCfjWB/yCCYJGbFzolyguUtAIPCw/xBOekO9spOOlYrpAboKqqlRvgQTyXNKofsDBp1GNISvDrqpqtNMEEwS/RAUCscFNEPg5ngMmCBK4W5PJJMeiRk3A6CSG6BNGBdL2EQKFY3Ds7TiYXRhp2CwKfSIwcC+gA3mf0DtD/FETBAbhCSWGlkCfcLhDKpXi6SdggsDAB5LQaegT4eXi+AmYIAjkbkokEtxGTGR8XMELHIQYdRNfQlRVnahREMjhsbSnJwbeyRAoaORvt8CA/XG89bl04lAe/D8/LYYX+MgUBhIYhJHJ3UQCgcjOZrMcgTQR/hV9F3gkLzRSE1McF5hIJISSCDFdNWH/IMyZ/J4LbqLrKcyZfAIBgyCQPlAxTvi9Gxi+XEccx6FG9EjwzGh7IZtONFnOSwqcmM9jisAr0qiclRhmusYLCTyPxukCo5lmpjPwrCq4+cLnzgtrjGaamchwRSacxv/KTQgj+X6u0wSCi5KE8wgUGKImcAZUuqAw6fNonC5QYIgKxC9TBCJBy0viZGMSCNsFXnBA8MKFBtIUt45Go+FwODc3Jwh8MY1CUzo5MqM3XzFdHeFT58zF1LIspN8kBol5TXq5HUiM+4npBMW4n5hemGLcz1tC8nXhfpBuZ2Zm5qoVxbufa6Yo7mciISHf6urqlTzDVQiNKaaYYooppphiehmiY6GrIIVnL0AKcH5KbFkWT1vsOA7PhytJksBv2zbKB6KJPA2CQH7aNB6PBQYhNyu+JokBqSSjAkOWxJPnCAYDv9B1HIdnJUbeAs5v2zZw/rxPBAbeJ+PxmEuIChRMoJyYXKBgQpQhKpB+IcgeZxBMiDLw5ng85ioAthf4BbdGBQp9wiVEBTqOQyn2SSCXIJjgum70kYSRyfsEuWgFhmifCBqFkcl7KQzDqMaoCVyC4ziCW4U+ETRONEF4pGifCI80xYQgCKI2crciq5vAwJuCRgjkE4jruvygBSZwBphwmsAwDOEmzhA1gSfbRarZ00wIwzC+9roKQsdSEwE+1BTevjAMMRQFBj6DYU7jDFF+7taJAvnLhXleEMjXET4yYU588HPNhLVSmGF4tvrwZBohzJn8F+wHBIHCBCIwmKZJ40ThuxmEVPDJgqfel44v4fjWgde1kCRJ13We2B7Yez6qNE3jsxXA/5yBVw+QJGk4HPJyAb7v86oREMi7YzQaRQXyF1VIjQ+BwhPyPhmPx7ysRNQE0zS5wDAMBRPQJ8RAkTKcgS9Co9GIP3MYhpqmCSbwigee5wk26rrOX3XHcfr9vsAguHU4HPJiHZqmcQak4ySG8XiMaCDOIJig6zpfJnVd5/woJMSLdQwGA4GBmzAajfgjhWE4HA45P0wgjTBBEMj3lI7jCBpN0+Qm2LYtCISbOL/QJ4PBQGDgEzQQDKQR4Uic37IswzB4+n9N07gE0zT5muE4jqZpvPoHOo34J5rAXxYUpuAmCBoty+L8EEhegAmcATtC7lZBo23b/NvDcRzeqxDIq38IJiAHmsDAP4dc1x0Oh2QCVkFAAUDhcUY7Ap0AVyswUFM6xiJwBqHJGU4TKGiMSpiu8UyBFzUhyjBFYJTB932+dcDYJqfA79ytpmlS/QGMNGHCwTzPGTg//M7diglB0MiHOiZJgUEQyAfSeDx+mwt4vRIKgqDf73O3ItaPMwwGA762Cm7F8k1NLL68Bgti/TgDXwpl27YJvIY7cn4bh0SNhCHyPO+f/quHHtsi+76nql9itoPAlyQBcwRQEgfwyrJMDMExKOlLBlVVqBkEyLhFF8zhMcrpAgIn4apIRej7Adc4CTYV1ThF4Gkm/PKXqMAgwOzMTQgFCYqi/Nb37s9X8pIkYfmhAKUwDF3X5W5yXVdRFLqVR254gYEHeeH7GAKB+1EUReCXZZmCa4IgQG250wQiFT39gk8rQaMkSdMFIl6JZtvzmzCxTwSNUYHI1kWdBoGCCbxXJ5rAU4sKAif2iSCQmzBRoGACkJ6nabx+E7CDzOVyFLCDl0XQyCccbkIYhlgRBQZBo8wCjpB2lppRja7rnlbpIqYXJsyQFFwDN1EIFbzAvQYXCAz8bcXAEBhQI9M0zUqlIrj1xTRSMzqQouVLQxZXO/GXKINAZ/Jfv8DXxwRZllOpFKZx7la+A8HXS6fTIdwP1j7uR6EsPIr1niZQOrmluTDq+e//D/9Pbzg6my+mS6V0Uv2f/ovfuLMyezbry1GMeo7phSlGPb8lJMeo55hejs6Jekb+vCtCPV+40sXQHuvmKP6SumbKphJBEPd6TDHFFFNMMV0CxTFfMcUU0+UQv5uIKaaYYnqdSf2d3/kdoaoDr1xxeHjIK130+/0//PPPR+M4J+Z1U0JV/t53786Vc5IkdTododKFUMii1Wrhkpvc2ul0BAYU60ATVR14pYter8ezmbXbbaHSRavV4gOj3W5LJytdaJrGK12grAQvmcLLRCBRPa900el0PM8jgcPhcDAY0COFYYhU+nxk8jIRuC3mDN1udzweC1UdhEcKWaULTdN4mQjP84RKF71ej5eJQHZ/mdUc7vV6rutSIvLhcIhKF9QngOcT/2AwiJoQskoXQJrzAia8TEQQBIDnE79gwng87na7nAEIQcrDa1kWOoFyFQ4GA9d1iR/lBahXEdPgui4vTAET8CcIQRAeCRUSJpoADKNQ6YLXG4EJvNIFsKu80gWCGHilC8LqxnRZFAQB4S0QR6NpGq900ev1uFs1TTMMgzP0+31e6QJvE6XlRXhNPp/3fR8QQD4yEUWh6zoJBLiVV7ro9/tcI4YiZe1HbQ0q0hKcUukipqsjvJWo8kQDSdf1drvNK1fU6/UwDPFLEATdbpe71XXder1OZdeInwSidIZQCoMy1Ku/93u/xxN+IyM4TRayLPPc87Is/8GffWY7MTb+uonvfiRJQgkVgo+pqiqUCECZhSkMQu55KmdjmmYmk0GpJu53bJ5OEwgGnmkele1+CS6TZflktnvgBngVAlVVuQRJkjCXkcaoQI48kFlFHnpC4ZGiJggMUYH8mQHzFPinCJRO1mEghtNMkI4rG08xYYrG0/qEa8TGRagUwet7wK1cIN8ES8cFC6MDg5rAQdP2BZ0mVEWICiSNwhMKbo0KlI5LLU7xwouR53k7Ozvdbvc8oJNut9tsNqnAmed5e3t7rVZrdvbKgXqXSygySMuJrutClUMQ+hlewDjhHxITR2aClbokR3O38q8pEojdD6pYTJxh6JH4yyWxOlPEoJwsVh8dmfTfmK6B4EGgfwS3Cnig8XhMA1JwKwYS5+dupYEnMNDKdeIfEokEP/iRJEkoqkXfWFMom07+o//8N/7Xf/GB7bj/wb/14L//P//UsMfT/ySmM4l3Oj58+YoVLW3GGRKJRKFQEBh4E2OAb3mjxdcEgdFqa/xpsQxMEYjVkQucrlHYKkU1CiaoqsrLu0zUyFdQYuAmcH7lZEGZiRp5hZqoRsEEWZYvaoLAcOkmRAUK05Dg1okCx+MxDQw6xxIeiYgveNLxt1aUYUqfCDYKGrEdfDHUczRJ1RQqlUq8wBD+lqczeFMon89zFyCRTzRiTmbRUlJk5ES9ILgVDNytwkASJEQF0kZzokC+/54oQRhIMIdSCUQpCIJOp3NwcPD+++9PZJhCw+Hw6dOn3/zmN09bOofD4ZMnT15A8utAyMVcrVaF2e88JMsy/yv5uGCqwEAh7rIsC25VFEWQIDyG8LEHhi8nKO4S7JUE6cLjnmmSKsv312qlXHqvpf3Jw+dj7+zpY66c/8Fvffd//L//XLfevPni+inqBeGX6c1LYZg+MF4HgdfcJ1fRyW+iCdlsFlmChP3r9ZjAf0FGOx7nzKndbj979kzX9Wq1evv27eFwuLOzoyjKwsJCMpnc3t5WVXU0Gi0uLhqGsb29Xa/XZ2dnb9++PRgMHj9+XCgU1tfXqfxQv9/v9/uLi4uapj179gx/Oz8/H9X7aqnX6+m6vrGxgaLruVzOsqxarSZJ0mAwwNYWZZWazSayiJ12iiYsHFP+9SoYrkLjFEJkNc80c37KZrM3b94U1CGLW71ev3//fjabvXXr1gtIvmZC+pxWq7W+vk4/qqo6Nzc38RU7D0WdclG/n7lwTNnSXDjmayLNVwv/yd99f2ux+rzR/yf//AP8uLFQ/Yd/5+t/8Wi/ks/8p9//1vp85bP99v/2L/715mL1t37t/mjsrS9U/vrx4R/8+Bc/+K3v/q1vbG4tVf/RH/7061sLv3p3xQ/Cf/ovP/roWd3z4xDEmGJ6YwgXVaPRKPqhdj2ExMFIWJrNZlEeXDi9cF0XQLQHDx7s7u7u7Ozgme/fv68oSqvVWlhYKBaLu7u7kiQ1Gg3bth88eFCv1/f29jzPc133zp07hUKBBI7HY8MwsLeYn58vl8v429eNkFxbOk6KDatx4EHlrpFhcjgcbmxsYFf3ih/61RGS43300UeqqiKf0Hg83t3d3d7ezuVy9+7dy2QyH330ked5pVLp/v37h4eHT58+LZfLa2trjUYDCYQ2Nja2t7ffe++9Dz74IJVKjcfjSqVy586djz76qNFo+L5/48aNX/ziF++///6jR496vV4ymbx//36xWPz000+R6zyRSHznO995JVkkPM87PDzUdT2ZTC4sLNTr9U6nEwTBysrKo0ePcFkUBEG1WgUEBx21traWzWYfP36MzfTKysrm5ub1P/yZpPA80NjZ8ZkCGENqCkUkiP7B33rv1vLMP/vzR3/+6R7tVwqZ5NZSVVWUv/+33psv5//3f/nhu+vzf+ebW7PF7PfeXWtr1qOd1m99751KPrPT6OvW6H/+o7/eb2v/9nfuNvvmH/3si4O2Fsd4E/GOAPiUzuQJfEoMSFdNngLijzNEEyvzdNJIwcn5hXTVjuMIAwNoVp7/GoBZEiho1HWdJ3sF7JHfFADNShoBk+TpZYXMy4Zh8GSvruv2+33OgHTVQp8IDEJiZZ5dGshNziCkq3Ycp9frcYbhcMjzGtu2zdNPA7kpaOR5jWECT5RsGIZggpApFRq5QJ7UG8mjeX5b0zQFt/JMqdJxgmxq2rbN/Yjk0ZwB6aqTyWQ+nx+Px61Wq16vd7tdy7KQCgir6eiYNE1rt9voB+Sw7/V6AgNwjmiaptlutznDYDBAL6HZ6/UODw/7/T7uPmRZFqrEUNe5rlsqlWq1WiaTQer2YrG4tLSE649arVar1YA2wNnP559/vr+/PxqNkslkpVKZmZmJrkYo7zA/P1+r1Qho+SYSeqxUKhUKhYmLbhAEPMk4xjb9K3LBCym8BQaenh4jk5+sII85NZELnufwBSxaYOBvK4IMBIaQVUQBLJoEOo4TzfU8Go3q9Xq5XL537x4Gw3A43N3dffDgwfLy8meffYYR+O677966dcuyrKdPnz548OCdd97JZrMIOLh3756iKHhrer3e+vr6rVu38Gy1Wm1xcXFjY8PzvG63i5H84MGD1dXVhw8fIkF2LpfD4dDR0dFUj10VIdpjaWnpxo0buVyuXC5XKpXFxUXP89rt9o0bN2ZmZjDsUXNmbW1tfn5+f3/fNE3P81ZXV7PZrHBbTYRADSHXM4JLiIEXk8CBGfc7BaMQA2Ybatq2jYgczkDjJIFSRDgdwpjm6RqRuZUrkyZlTf3axsKzo95PP90be34yclL63sbCymzxH/ztr63MFdcWyo92x6lk4scPn5dy6X/v19/NZVI9w3Zc/9Fus2+Mfvivn/3Nr2/MFDPbR/22Zkrx/idCcFnIatY4jsPvO8fjMT/u831fYBDyemHskqNxzMsZEHYxRaPruvzwE4nw6S4fAvlJACYaLpDzS8c5PU8TCBu5Rs/zkP6Va+QTN0ygZ4BG/khkI7oOcEtBIL9CxhNygY7jcCyCMJl6nscfCdmo+bUC1JHAqEZkpxX6hGNNkJKb8/OILQjkB79IBh2yMjKO45BGytA93QTBRsTRENwbe1x6MOwzKIW3UK0JxzY8bJ5qq8ERnudhlSIGlFqTj5Ozo1YaQjfweEgVLZx+o9Mw18F8ID8IyYu6BxjViURicXHxvffeQyzJ/v4+x4lzgiI8odDVrwnhsZEKGbOELMuoa+E4Dn9hQcgBGJUjQGQENh4RJh0PJIGBl8CLDt2JAoWRyb+mhAkEAjlmKypQ0DgR4IWqkSsrK7Ozs5ZlmaY5Ho/39vbS6TRGZj6fxynI4uJitVr1PG9hYUGWZTosqVQqtDwnk8nFxUXHcZrNpq7r2BYUCgUUYzFNM5/Pz83NybKMA7lEIjE3NzczM4OA1ujjXQMlk8mVlZVms5lMJtfX1wG3ymazuNoulUrUq4DUFAoFRVH29/fRRYDMnxY3gE2nMGfyCUGSJP6BCrfy0xlI4E1hXcCcJgikoXsCD5vJZObn5/lLOzc3x+ffQqEgT3qljdF4aaZQLWYyyUSjJ/ppYI5kWfq//r+PFUXu6fZCpSBJ0sAYqYosSaEiy74fZpLqbCnnesFPH+199LTxX/37f+NX763utzV/HMeXSdJJ1HO5XEYFAzSTyeTs7Cx3eaVSQZkINLEacT9WKhW+qhUKBV4uQFXVmZkZzoAPWRKYTqeFgVEul/kak8/ns9ksMSiKUq1WuUB8SNEvqVRqdnZW0MivbJE+mIcGQCM3gQtMJpOCCdDI+0SAapZKJa4RJpAEVVWFTisWi1xjOp0WTEAAAQlE/QdiUBQFNk43gb+MeFX528qjYBRFgQmc/7jqiyRJUiKRwMDgDNiLkEAehiPLchQsz01QVVUwIZ/PY2TKsgxgKeIkuApuYyaTKRaLvEBBNpuVWW2NTCYjVLoAOp4ch10ONdPpdD6fd10XWxAI5zs8UCqVqlarz549++EPf5jJZLa2tuicAMvVJ598ksvlHMdZWFhYWFjQdf2DDz7I5/Nra2vS6YSCDJ988gmOvubm5qYwvxLKZrOKonz++eeO4+BqcjQaAeTkeV6lUgEbgrw++eST47JCIgkRXplMhn9ppFIp/vYpioKRxhkqlQp5LZFICAOJYpJByWSyWq3yeC68ngIDH5mlUolrxIkdqQA/NWFCtCCuoiiJRAJ7ESyimMreeecdjOpsNnv//v12u31wcCCxwixSJMRMOr5tRIIAjA36QEIgErY4vCgbOkFRlHOi7y+dAOvJ5XK9Xq9erxeLRTwJnk3AfuEX/IjZ9caNGzztiECKovA5E/sn/kUqy/Ls7CxtHxVFqVQq3EeJRAKotdMEZrNZ7gVZlvnKdWIBiCafFvx32kfPP/uzR//x333w3/2H/8aTg+4//qO/Fv71D378yX/0G+//Z9//9mjs/i//7y9RQSE71fl8v61Zzn/9D//mP/nnf/3v/o37M6VsGIbP6z0/Bv1MIiEwR2Y5ZkDCaFNVVZjCBAZB4JkM0Rd7ukZZls8UKHwoCwwXNeE8GqNj+yVNuKhAgeGiJkT75KImCH9+US9ETRAERp9wenOixgsxIOwZX/aoYJ9gSaT4ky8uLpZKJeSUyufz1WoVX4SpVGpra2txcRFdkU6n0+n0e++9h/pB2Wx2dnY2uhTNz89XKpVMJlMqlRYWFvC3wnh4HQgbOAChcBSayWRmZmawaOGBC4VCJpPZ2Nig6n4TVy8hhIr/kzCQouMkyiCoEBiiI1MYWpeiUZZlYfeTyWRqtdonn3xydHSEI8ZCobC6uvrBBx9ks9n5+fkgCB4+fAjmubm5+fn5P/7jP65UKgSH5xrH4/Ff/dVf4XB0aWlpMBjU6/WPP/54ZWUF27VEIvHDH/5QUZS7d+9eCJR9deS67vPnz8fjse/7q6ur6XRa07Tt7e2ogQJhk/fkyZNUKrWysjLxIji6cl101o1KmC5QYLhwna/v/zf/R1ezhPuoTCqxOlfKppOGPT7o6HdWZw/aWhhKa/Plz/c7iiyv1kr5TMoPgh7k3oUAACAASURBVL2Wpsgyfk+qytbyzHa97/vB+kIlnVQPOvpCpZBKqo7rHbR123Hjiy9QNpX4x//l37t348q/JuM6XzF9BYgubvDfq6jf1Gg0dnZ2JEnC1dgVlSJ6PUl+a+p8IdQLJz04xLJt27ZtnBSkUild17FHpH9KJBI4ScJhKq7PgiD4yU9+8mu/9mtIcIo7I03TUqlULpcbDoflctkwDFyYFgoFVVUty8JRK65oT0PPXHW3ADmHcxRZlg3DgIGmaRaLRWBrkskkXjQc1uq63uv1cE5m23aj0fjmN78pSI4etUykq63zxVE+dAVO/xyt4DpRymjsPT36sjD9pzst/M8vjv9nu34icAC/e35AnE8Of1mGfmDEJVTPoPO4Keq1S2R4/QWe2SdnPsNEgS/PcOkCr9OE118g/wUrFkeDXS5Vq1VKmPQWfi0Ia8FLvo+X/oK/gMCJhEt5/ks+n+eQR/6vhUKBRwKCcMuGzPJ8G5dMJulutFqtSse380S4W5ciuc2uk4SEOhJ7SDyeLMvCtkxRlGKxqGka8nd7njdl83rm6zydX3q5lUX9wQ9+QDkMbdtutVo84WGj0eCQkcFg8Id//sUoxuJcO/Fcz71ez7IsSmyKrO0cAoKCBpQmDhUMeGLTTqejskoXyEPPK10MBgPud4RHkcbRaNTpdDhDt9uV2MUoImbp69D3fUEjwnYIZYIgMn7GjgoJSVasg5eJCMOw2+3yc1FEM1FOM5REUE6WwhAqXfR6Pa4RwQW8toZhGKQRgXUSOzgdDAbcBNu2oZEzcBOGw6Gu6yqrdAGNxK9pGj4cyQRBI2LQeJ8MBgOyEYF1vHQGwtxIIILIqAqEJEkItkqyAiaIp4CEMAwRCUj8CKxTWKULRO4QA4LOuFv7/T6vdDEcDnmxDmgkP/q+j8gd2kwYhjEcDjkYGdGInAHFOmgGQ2gPVf8wTZOwCJdLiUQCEfXAkF26/NeZcFJC9QQsyxoOh7QKIriPxgkisAzD4AxIL8RHJoddI4gsl8tRpQv+LgRBgBmGFmZEXBKSD0FkwBETQ7/f55UuMMNgIMGEIAiuDqgOEPQr3MdcJ2FLVC6Xy+VytVoVEJPEI8tys9mk26swDIfDIU81HgRBs9kMggAXZ2EY9no97lbXdZvNJm0TwR+ySheIEiWBYRjW6/Uv09ljwsW/Yajx7xhe3QnK/p3/9g96uh1fSF0z8ZsvBDvQKoiZiLsJx6cEQ/Z9H/gGzoAs42gCSI9fcPOFBYnzywzmNlEgv2FFdl1SAay+oFFiuyWYwPOxCiYgpGuKRm7CRIEEYuAmCAw82miiCYJGbsJEgRx/cE6BhPCFCXzLON0EBMJM0RgEAcpQcAZ02oVMoGeGCVMETtQosct73/eBq72QCXzXC43UjArEdcZph9YxvTABYoX/R7dTE24S3Mo3+mDgM5jgVhKIm69KpcIHUhiGONITBPKXa6JGoSkMpCjqOaarI3woYiXisy4VX5MkKQxDVHCjmy+sfTzQ1XEcYcfC58zolmY0Gn1Z/OdScD8xXTXFuJ+YYnoBwpbuii6/3lp6e3A/MV0RvQ64n9cuI0VMMcUUU0wxxRTTlVK8+4kppphiiimmmN4uUjRNo8tO0zQPDg743We9XueZ7weDQRDn4HkVxK8au91up9OhTFnj8bjRaPDMp51OZzgc0imuaZr1ep2nvGy32zyl5mAw6HQ6PE98s9nk/EjETmlObNuu1+tcQqfTQWUlNHVdb7VavCRCq9Xi/L1er9frkQnICspHWrfb5SYYhtFqtXhy/W63K4xMnsIcCVV5EYZer8fLg1iW1Wg0BAbTNLkJnU6HNCKlOudH0QYyAYGdPCVrv98fDockcDgc8m73fb/b7XL+wWDAC5I4jtNqtSgZPxh0XedubbVa9EhIG8/5YQJ5AcWteD0BpI3nbuUawzAcDAacHyZQtyNDv67rXCPvE8dxUMiCM+i6ziecdrtNJgAJzvmHwyH3wng8brfbPNX9cDgE1ptMaLfbZAJQz77vy8ckHQd98F+kYwxmtCkf54CZwn8ehlco8JwaOf+ZDAiEpnFimibiHkComMTdihmGM7TbbRrqrut2Oh3gmsmPnF94FxBTzSsYgIG/rb1eT5DQbrdp4KEMC6W4BOr5oiCQmF6ScKtFc2AYhrquHx4eEgOhmKnZ6XS4313X5TVAgiCo1+s0gYRhaBgGElHSL0dHRzROEhzlHk1sxZGqYJAVSVakC0RQhNIZ3GcyXJRef4EXJx6zkkicyFMgR9JuEnIWhOAL/kvUrULcIAESJ/IDfjiFAbgzgUF4Qm7deZ5wuo3AAhMDnlBgUFk26qhGCOQMnF+WZUEjgHXTBQoZ4bgJ8NpFTYh6gX6JChTcNFEj/9Q5UyNM4BqjNvI+kY/LR0zRyFVEOzmqMSpQOumFaCdIJ8Oz5UhSO4Ehyv/yDG+WwPMw8JeRhwtIkZEGtwrSoiNTEMjD6CYO3SkMaPKklPLJ/IcTBSKrDf2CJv0ShmHIEqODQWieyX9RgRJLT/9iAl9nE2RZFhaa6A4kmUySH+G16EDiTQGOpkQyTXONMpX2xbMisoZYAd0n7iAIPnxyGNddv35SFPmdjcV8JiUdl6ShpRoRENxN+NjlbhWqHfm+z1d6BMXgF6CescZw/otqDFk5p6jG6xGoKApJmNgn0xm4xjAMeT2pF9MYNeFCGoWphDLiv7AJUYYLmXAegddggnRyehUY4lieqyCsOrTwwE206kQHUpQBbx93q8Q+ivALEv2ZpolM3NGBIWikCWSKQN4UBp5QQyqmKyVFUdLpNEL5hGmZb2hwSkeoZ8y6gt85/5kC+ZbmwjFf/LohpmsjWZYpTu9KKY75iumrRHHM11VQ9CP7iiiO+fqqkhLHfMUUU0wxxRRTTDFdMyn87AdFaPk/j0Yjfnsa48JeBxqPx+PxmGPBUIWYM/DTft/3BQbHcXgTNbGnMIzHY34sDIF8YKAMHjU9z+MSwjB0HEfg5yZMFMhNEARGNaKqJTEEQRDVeCETBIFhGEYZogIJ8AsG3oQJJOFMgTBBEChoFGwUNE7skzMFXtQEYQI504TpAqMMUROiGqkpmICD8fg649IJHUtN3/d51IUwMuFWHkUBBu5WTAinCRQGUhiGGDkCg/C2RhmEJh85uCJ5ga6I6YUpDENhEhZ2IFg4+J8IboUEoSlMIMKWBmXL8P8Kj3MBMJ4Pgm63y0chqrW9kKUxvRTxGRw1E2jQIMCBv8momUB/MhqNBAZd17lbTdMkgaqqIvSGMyBRPbkeeeUFgSjFh6ZlWSjLgKbv+7wpHZfCoGGKVPdco67rPIgMqfGJIQxDwQQUYRAE8vfEMAwksyeBAsNwOByNRtwEXdcFE/ibZhiGYRjkBRRhEBi4F2zb5gIRt8LfTNM0hT4ZDAYCQ7RPyIQgCGAC8QsmeJ4naLQsyzRN7laU76BONk2T86P+AA/liwocDoe8T1CBhEvgE85oNOK9ChN4HJzQaVTBQBBIJozHY5TvIBOEfX9Ml0J8MxGGIdxE/4qhy92KGYYz8BkMLxePLsTIOU1gGIaYYTiDMOFgkhQ08q+pwWBAAwkfkHwZjukaKAiCfr8vBA/ySL0wDFEOiPgRNEoMCDvl/AjdpaYQPIjAWBonsmVZPL/4eDzmtUhQBohnvucbq5iujTjuJ1rpArWTCBUUrXThuq7AMLHSBXYV+Xw+DMPplS5QW4MXphAqXfDCFPgUEwRKkWIdV13pQppamOI8xTrOrHQRLUxxoUoXUROuv9LFmSZcqNKFYEK00sVFTYBGodIFNwF4WyqJcImVLur1+nA4XF9fPw9eQfhDy7Ju3ryJZqPRGAwGm5ubF5VzDaTrumEYy8vL1NQ0bWFhgWoLEE2vdMHfvvCUuhPCyJRYBQOqWIKtcz6f5wMJJ08+qx8XnKz2A79zgUGk0oUwkOKl7ZpJOa50IcwPQqUL27Z7vd5plS6w9nF+x3E4Hh9nw8KW5sUrXUxEPX/xxRezs7Ozs7OYg0aj0Ycffvjtb39bCDaLKUrPnz9fWloi/+GwbW5uTui660E9W5Y1Ho8LhcLbVrUxpq8qXSLqeXt7u9/vv/POO1NqVSLL1MbGBo/jxWk8Vf/e2dlpt9vvvvuuUBz7dSBsAsjAXq/Xbrc3NjaEjRp24Vc9vY9Go+FwWC6Xo3uvS6cXQD0PBoMvvvjiO9/5zguo03X90aNH3/3ud1/gb18tua67v7/veV6pVKpWqy+8g38dUM+Xs8gtLy/zAer7fqfTia/bz0Pz8/N8EhmPx6/wrN6yrHQ6fQ2RZTHF9Gppe3t7e3sbddo3NzfH4/He3p6iKPPz86lUant72/O8+fn527dvj8fj58+f40S9VCo1m83xeLy6uooEmMViUVGUZ8+eDYfDWq1m2/be3p5pmmtra1RZGgkYb9y48fz58263a1kWFam+ZkIyyfX1ddwg5HI5y7JqtVoYhpqmYQ7XdX1xcRHJAHHiMlHUeDweDoeqquZyuavYBuEiIp1Ov7af0K7r8gyNF/1bfmXzphDuph3HWVhYaDQahUJhyg4GJzGtVmttbe06H/L8dDm7n+fPn8/Pz8/Nzf3sZz9DIof4DhW0t7dXKpVKpRIgGjMzM3t7e6urq9ls9vHjxzdu3Dg8PLxx44aiKDs7O0DO0jfimWQYRjabvay4U1yHxbufmN4GQobod955Z39///DwMJlMmqZ59+5dVVU7nc7MzEy5XG61Wru7u7IsG4Zx//79nZ2d0Wg0Go2QP9p1XcMwZFm2bdvzvPfeey+dTh8cHMzNzeEFJ10AYGE/cf/+/f39fY5duE4aj8e4S3Jd17KsRCJh2zbm6tFohPMq0zSBoltdXR0MBjyzNidcfANwI0lSNpu9rC0dLsoty1IUpVAo8FO0aybXdQ8PD58/f57L5VZWVqrV6ueff24YRiqVevDgAXjG4/H+/v7Ozk4mk7l79+7c3C8LURuG8eTJk5s3b2YymaOjI8uyVFVtNBqKoty7dw9zrGmaT58+3dzczGQyh4eHqqpWq9UPP/xQkqRCofDgwYNXaPtEchxnd3fXcZxyuez7fhAEhmE8f/5cluV0On3r1i3XdZ8+fYpESjdv3tzZ2Wm1WkEQbGxsvOpnn0AJTdNKpRJ62bKsbre7srJC69/R0dHMzAzdywwGAyGhLQhCdnd3wzC8ffu2kGX8bSbLsrLZLN5nAOsIFor/AVa31Wpls9lisViv1yeOeH6Q1u12wzCsVCr4NvJ9v9frzczM0PFbu91Op9OFQoHeMV3XZ2ZmaJ/ebreLxSJ3q2ma+JNkMgkoWaVSIf5ut6soSqlUwk7Ltu3BYFCtVklCp9PJ5XLZbBYPD+RppVLBI6GqA08jhG8mpFWUjgG85XKZ1oxut5tKpfL5PEwwDMM0zXK5DAlhGHa73Xw+T/yo2FAqlfClCAxysViky4Ver6eqaqFQgAmAGJdKJc6QTqdpBseHb7FYRCd4ntfv93O5HDH0+31JkorFIkwAIrhYLHKGRCJB0zcgydTtSP+PPicTgiAoFotkwmAwyOVynAHrAbnVNM1CoQATgiAYDAapVIr4gRcuFovwAqCjmUymWCySjWEYFotF9IllWYZhkEacB6iqSvwwoVAooNuBQU4mk3TIgcFMJoxGI13XM5kMZ0Cn0ULLTcDroChKuVwmjY7jkBcAhk0mk5VKhRjgd/SJbdv4JIAJwNsKeYRBiUSiVCrNz8/jOAT9sLy83Gw2fd9fXl6enZ3VNE3TtHw+n0gkFhYWdF2PfusjdKhSqSwsLEiS1Gq1CoVCuVyOasQ5ysLCgmmarznEBBNUpVLxfX8i1AG/I07KdV28v+R3RHilUikMPArIolcD0YiZTAYDD199sizncrkgCIDc8n1/bm4ODI7jaJpGIxOLruM4tVoNAsFQLpfpbQWqmjPouj43Nwe/4OVKp9MYaYBRS5Ec9KjIMTMzg+1sKpXa3NxE4aBms4lBaxjGzs7O/fv3TdP87LPPfv3Xfx1/i5vB3d3dtbW1vb29u3fv5nK5crk8GAyePXt2+/ZtiYWDpFIpgPdHo1Emk1lcXDw8PGw0GktLS5fp15emRCKBGaxYLKKyUKvVmpubS6VS7Xa71WrVarWVlRXP8/b29gCiGI1G5AWBfN9vtVrFYpEmHETDrKysgCEIgkajQWsfQM1BEJBAVO8hmFoQBM1mM5/PY8IBjHowGNDFWRiG9Xp9dnYW4ySRSqXoRU0kEvl8nr+3uVyOD4jp968wvlarpdPpZ8+eXahb33LSNO3mzZulUsk0TR7KxMm2bYC0MHXyAJ8wDA3D4HlLefwn+Hn8ju/7lmXRFRuQYrlcLp1OI5G5cKSEAyE+ToSBkclkOFQIg4pnNI8KlFiyfFVVowx80Uomk5xBluWoxoAlWVcUJZvNcoaoCVEGfsaeSqU4JFlRFEEjTCCNEwXy7wRAvKcLFEyY2KvcBM6Azy/Ojw8VQaBgY8gqnEAgMUAgnw3wT4JG7jWcBwh9wjXi/0/zQhTcJnSaqqq0ZHKNfCAJJpx2b0Kx9K7rAj8LeDXt24ACSSaTyAsMpC1lkgXccjQaYSNIAVAE946eyJIcIUr/Ookn9UYogyzL2MQ4jkPfEuExER45KieVSiWTSYpFB8wZyxiWczBIkhQEQSqV8n1/yu4HnLlcjlQDFg3+iW7lIxNjm79ccCgxQIIw4QgvS/S+IpPJLC0tPX/+/NmzZ/fu3QvD8ODgAN859OE0Ho93d3czmYzjODyGNJ1Oz83Nffzxx4uLi/jsOTo6QuQaD8zkHY7vE0RBInzyddv9YOJVVRWzH4Kwbt++LcsydsClUqnT6QRBYFkW8Mv8kzIqTbg2TaVSHAyHhYPHeKbTaX4QoCiKwJ/L5WiXgnEiaOcrV4Jn9U0mk8JXCx0LgbLZbNRz/NERM8yDn99yQvkYSZKw1eAZuPkGJZFIICzitKz8MitMg+GiKAoFXtGuBcyYGqhJi1yUARuCXC6H8Acw4IxE2ARLJ1d6+nwnBi4/nU7zXbWiKMKuGvPs+QViJo0yUBPDmAsUTMC51BSBdHBFAvnO4DQT+EIumIDZ9rQ+wYsd1UgmRL0gaBRMOE0gn/EFE9BpfFQIxyRCym/BBGA+ppswUSORYAL2rJw/qlEQKGyjBROwSE9EPcuyfHR09Cd/8ieSJG1sbNC0Vq1W+/3+F1988fjx42KxeOvWLcdxut3un/7pn1qWVSqVyuWyaZq4ngiCYHFxMZFIPHny5Ec/+tHKygqObz/66KPbt2/TiRdJbrVaP/7xj0ej0avC/WQyGUVRHj9+DHszmcxoNHr+/LmqqnyXgxXi008/xW4vKgfzBlJIqKqKMxV0vnT8rSIMfj4wwMAlC98S2A3QvwrvAtZgziC87xhI/IExcoQmF0gbNf5XyWRyYWEhk8l0u92PPvpoeXnZcZzV1VUeRYijyjt37vDnl443ZLIs7+zszM/PW5a1vb39/vvvt9ttqruJWR27T9M0U6lUNpvNZrNAzb+GoHiB0G+O46TTaURvHR4eZrPZXC6Ho3FZlqdgYBRF4XMmvqb4ZkiW5VKpRCkzon2iqip/y2RZFibhVColFAKjc2JJkk5Mdvwzi55PsHZKX2xtbf3lX/6lpmnw6BTOt4dmZ2ex5ccJP97bg4MDHO1Sfy4vLx8dHaGy+mkzo1CWTzoGKb8MKvA0hwqKosNA+MOLMly1wGvQKPzrpQgUXsaoims24SU1vg4mnEbJZHJpaenevXtYOJFSAb+vra3NzMwEQYATft/3M5kMTkpwG5vL5XBTgz2xJEnFYtHzvFwul8lkcIDBV98bN24sLi7mcrmvf/3rjuNAzisJd8/n8zdu3MAnFs4/0ul0pVJBv+GR8vl8JpNZX1+HyafFduGIGvew/PhNOsXv0xleYCC9jMAow0Sybfv58+edTkc+XjVRcpyf8aBLP/7440wms7CwMDs7S/+UzWZrtdpnn332/e9/3/M8y7J2d3cBrwRDKpWamZl5+PBhPp/XNG1tba1arX788cfAxd+9e/fMJ3y1lEgkVlZWnj59ihV/c3MTNdhxBIjFTtf158+fb25uTpQQdZOwAznTa2fO81O2NJcT8Q48QSqVAiQF9XVnZ2dj/CzumCRJQrfgYwvzrO/7xWLRNE1MoMgCJ8sy2KJejEa8m6YpXATEFFNMnE6LeP/0009Ho9G3vvWtq1BqGMbR0RHgwKVSaXV19VUd9lwRYeennKzE/kbTxIh33/cBMMJOUVEUXddhMj47h8NhtVoFYA6XawSSk1hWxsXFReD8MFfLslwoFDRNm52dRVS/qqrYMafTaeT3w6nG6xbvRhc76XTasiwc5eJmCpBEXAfjxgOna+ixaCjP6xDxLuu6Tp8pQNrzyy/8K/kAuWvP+XUV0yUS3/1gtNE9CE5Nc7kczUSGYSSTSboywIgUGDhkBHEfBKzBjo3fi5umicGKB0DACL+yRRwE3WIgwQmpwDUwP6bCjpBQI67r2rbNR5ppmnSjJ0mS4zjIw8kfiYAF0nH+co4kgEa6A0YICc8YCdAGf6REIkH8E00gICeZQPtUmJBOp+mVRpQHeQHwWOoEzIwIsiMTMK3ABM/zkGuUM8gMi4PiAPRIyAxGV/LScZkaAgMBW8o14p6a3Ios8vxYwrZtPkkJJgRBAI10n4XrXeoTmIDdPDFI7P4LAjk8djQa4cqAGDzP4yZAI01ZMIEgHcDbUqcJifA5IW5LuJy6LMKHPj4sk8kkf/W+SsQXDtd1OaxnNBrR2zcR9QyYEb2tGNsCMIiawruANZinUAIDf1sxFAUGuu3C/ADYmcTKzrzk0mbb9vb2NmaGXC53586d12378voQZuPhcEhzJtyKcBnwhGE4GAyQLUI6njPDMCS3YntKQRLATadSKT6B2LbNBSKdL8aJwjE6nufxdOOSJPFc/pAVA3peCfFuH41GWOxx++77PqZyYrBtm1fRcl03ysCv+TFEeNkdy7IEfp6FyPM8QaBQXQXbaF7oRxBIJqCJyYhLAOyUm8AZsNIL/DxX/USBfPSiT/jBp6AR7yEJxErP+QFyFPpEYOAA9vF4TNHF0vEEPcULcCuXAIGnmYCVXngAQSOyWQomhKzOF63Z0vFkJJjAexV9IjDwcQKBAoMw4QhuhZtO6zQsk5wB6ygXyN0EJOnEKYsCQ66CEFCGBLAU2PhVIo6GRifzO4HoQKJIe2IQJhwBC4yBcSGBfIaBQOGRok1erOOiqQ4nUiqVWllZ2dra2traWllZiU/lpxO+2/mUNR6PDcOgJsXiEQEPziUI/HzOhFs5g3T82YP/FytduK7LkYn4kKILlzgd+KsieWqlC57lXZpU6cLzPIEhWumCBIaTClPIJytdRAWeWSZC0CixMhETC1PIkaoOL1npIipQYECnTTHhzEoXUY0XqnQhSRLFTF200sU5NSoXqXQhFKZ4gUoX0doa0slKFyhocP5KF2B4JZUuYuJ0oUoXyA0j1J3gEw6GLl+JBIF8IJ0mkA/1ibU1ThMoHddYiMfJtZFyGZUu8IUm7Fi4wOiW5vIrXcR01TQR9xNTTDFNp0usdBETEXYqX6WzjReodBHTy9DrgPuJV9OYYooppphiiuntonj3E1NMMcUUU0wxvV2k/uAHP6AoEsuykHmaoO+NRoPXi9c07fwZNWK6XCJwQ6/XQ/wRwYA6nQ5yE4Oz2+0CLUFu7fV6nKHT6fDLUU3TTNOko2yUb+R+7/V6HAFm23a32+UMqNhHGpGwnC7+UemCa+z3+wjigMDRaCQI7PV6HBlgmibySNHFf6/X49f2mqYhiAMax+MxGAhJ0O/3OfYIfcJzmSDQlJq6rhuGQQJR6UI6TjUpSRLStpJAmIALSmLgJhiGMRwO6ZkRAcuxC5qm2bYtmMCxC5qmAY9Fbh0MBjJL1IZyH8QvmIBMslwjCpJwt6KoEwWRoXIF8aP8E5ngeR5spBPs4XAIEyDQcRw8EmdAWBm5FbUvYAIqXaB+C2nkAwkFTPhFvmEYtm2TQCScpU4D0FuSJIClZFlGGj1EaxPoJMpATTDIx3lBowznFPgyGnEdc3UmgGGKQPzCm7hPpHGCkG8eiNfv92lkorwP4lKJAUWT+MikxNkYiijCiqbjOHj7yK0YGAIDn8Ewp3GGwWBAuTRRoJRGJvAlQIxJMV0LYUC2Wi2aMxGx1e12KWtAEAQoE0YFSfr9PncrSm1wfiRkIreapolSxGAIw7DRaFAKRPX3f//3eaZ5BP3S/gYRtjQm8LvwIglNzsDtPA//ywuUTr7JLybwZUx4YYFnMhDcFYs6bTXk44xk5CYwED/cyhkwMQn8POuuIFA+TuRKD4BxEtU4USBsifJPMQGvxGkmQCCHUaPJNU7sE65xoglRk7nGKZ0sSRIEUidQJ08xIdppQp9EBQp9MsULURPQJ1EG4QkpKwl6dYrAqEbsUAUvRBkEr50pkJsg9Al21dwLAiSF/oma0V+mNKN0Jv81aLxcgdMlhJEsJ9Tt9DDcreQmwa3CQhN9WwUGQaDwsiSOy5JwjXwG43l+5ZNpG6MDicTKxxRt8jn5TIaJ/ALDpWskd3AG3nx5hpcUiNUZj40ID/KCfDxOeEEtWZYdx6HwTPBHRxrxc7dCoyCQr0Qi6jk60AWaUunixehMjTGBYtRzTDFdlGLU81WQ/BVFPccxX9dG8nFu8el06ahnvt8QE1GcuRG5ivERj7kzKd4gxhRTTDFdKcUr0bXRq1rRuN74LCGmmGKKKaaYYnq7SP3d3/1dui61bbvT6fBiuc1mk1/HxqjnV0gEbhAgw0Dw8YPoXq8noJ45JBAMHDKs6zpQz8pxgYJer8cBHwJkeDQagYGjmPkTCmBV3/f7/T5HPQuQYYAWBVi07/sk0DRNVMMh1DMAv9wEAfXc7/eVk7BobgIQvsIjBUFANyp0PwAAIABJREFUyADgNCkRHxC+EkM9a5rmOA7vE470BIPv+xy4bRiGwlDPmqYJOGuUcSATOIAXDALqWdd1maGedV3nqOfhcIhqG4Qt1TSNo56BQeYmoDQV1eIYDocc9QwvKAz1DBs5LFpAPQsaUTWJJhzBBMBjUUyDNHIvwASBAenL5GPUs67rpJFQz/GUdbmEdIK8xApHPcPv3K2GYZimyRl0XeczGN4mXhFFKMEkgNnxNgkMfMLBhMAZNE3jFVE4Hj9GPV8/AeXTbrdpnIRhaBhGv9+nQhZBEHQ6Hd/3CfU8GAxQEwkMnudRUVUwtNttGifA4/d6Pc7QarUIGKTwsz7EAvBHjP4S0+tAglMEWMNEP05vCn8yvQmNAsP0J5zenPjLRQVO/2Vic7oJ0QeYznOhPpSPQ2+mGBV1a1SjIHAKw3meMOrWM718oQnk5Z/w5f0Y06XQy7zgZ04451F35p9faGTG9ErozDkw2pwyK0bH1XSBMiqyogHkF8ciCSURPM+7aG7omC6FZJbrGeUCKPYnDENUuqAPXKFog5AGHgxUUUGKlAsIwxAVDzgD1xgViLTx1EQe+gsJRMUDziCzIDgIFBi4xmifRDVygRM1CiaEx1G+5+8TOqUgjdScaAJnmGiCcrL4Buc/rdO4xqgJXKDAAIFTNAomhGGIwpDnF4gKOxcSKDAIpTCgkZpRja7rgke6Gmo0GqPRaGNj44rkXwNRecdqtXrOP5GPozjRDIIA7zs1+cjEisUPVsEgzA/crWAQ+IWBNF0gnC4wUDOq8bIqXbiu22w2x+Px1tbWS4p6JTQejw8PDzc3N69aEcaPUO1HqHAShqHjOJ1Oh1DP8BH3I8ok8+efIlA6uaV5sytd9Pv9bre7vr4ulNL9yU9+8v7779P52GtFrVYrnU4Xi8ULnbLKcaWLmGK6OF1RzFez2RyNRuvr6yiuadu2bdtra2tv4hUbPnolSRJicBzHMQwjk8lQrXWir2rM1/RxYhjG/v7+/fv3p/A4jrOzszMajb7xjW9c9jNeB+FWkRLkgJCcLJFIUDX1lyflNah08WYXH87lcvyDgKjZbPKK4q+KPM9rNpu1Wo3vPYvFIk8SE1NMMV0/tVqtnZ0dnBAsLCwkk0nHcW7fvt1oNEzTXF1d7XQ6Ozs7YRguLS2VSqWDgwMUqK/VaouLi48fP261WvhyNQxjPB7v7OwAFJVKpW7durW/vz8cDu/du/f6f7F4nocklrZt7+/vA44zOzsbhuHz58/z+fzS0tL5j4W+SuS67tHR0e7ubi6Xm52dHQ6HDx8+9Dxvc3Oz1Wrt7e0lk8nFxcXNzc12u/3o0aNsNjs3Nycdp2Pd3t7+2te+dp41/vUhz/OOjo42NjY+//zzdDodhmG1Wi2VSs+ePUulUktLS/l8fnd3V1XVUqm0sLDQ6XS63a7neb7v37p1y3GcRqOhqury8nIul3v27BkuJV7Pk7AErjDQwHfS9JuviVJ+8Ytf4Pj0G9/4xmAwODo6sizrzp07xWLxyZMnnuc1Go3f/M3fbLVah4eHtm3funVrZWXlyZMn7XZ7PB6jyTcxH374IeCKDx48GA6HT5488X2/Uqm88847qqp++OGHhmHkcrnl5WVN027fvv3FF18g2++DBw8qlcpV9dY5yDCMo6OjIAhKpZLjOEdHR8PhcGtra29vbzweFwqFMAyxAUIWS9d1FxYWZmZmms0moHyyLN+6dSufz5+2Q5p48yVcbAmnxDgWPv/NV1SgzNItnnmVFr3liWqUzrpKm35tdOmXd+cRKNwKRQVe4s3XafdQ0y/vBIG4h+LXRq//zZd0sgh89Ar1QjdfEwu8e57X7XbDMNzY2Hj27Fmr1SqXy5hwAMQOgqBSqdy8ebNerwOcPhwO5+bmKpWKaZqWZRUKBdd1a7Xa4eGhYRjFYrFarS4tLTWbzX6/DyGO47wRHzlBEIxGI4wrzNu6rne73VqtlsvlyuUypdblhLFH/x+9hxLcGr2HuvSbrzM1Trn5mjhOHMdBKuHV1VVURCgUCisrK7ZtP3v27P79+5Zl7e3t5fP57e3txcXFmZmZRCLR6XSGw+Hnn3++vLxM8t8UwjEP0v2///77uAirVqvZbLZYLGaz2aOjo0qlkkwm8T/1en1lZcXzvO3tbUVR9vf319bWPM/b3d29e/dup9PZ2toi0LFAWGim33wJd1MvcPMV3dIQSkQxTZO87jgOINPE2u12UVMeZBjGxLPBfr+v6/rm5mYmk5mZmdnc3FxfX3/8+HEikVhfX/d9v1QqybJcrVY3NzfX1taePn06HA6fP3++trZ269athw8fciPxzbG4uLi1tZVKpT788MPl5eXbt28fHh5qmra3t2ea5sbGxvr6uuu6CA7CBjyfzzcajdO2aNdDiH6am5vDrIGPBlVVj46OCoVCtVodjUaO4yDqoVwu12o1bAGbzWahUCiXy0KiTBB3iq7riLVBEzFf3GpsBMlTKMLAexg1E6iJOhIkAfFNnB81E0ig4zjCwMBcTw+JIgwkEG+UwI8AJTQRouU4DmfgJti2jbgz6g1oJH4UYSCNGBicATFcvE96vR5P3TkcDnnTsizeSwjREjQahkEmOI4TFWjbNvWJbdtRgZwfEVXcC/1+n180IwCKC0T0H5pBEEAjN4H3CUK0sMZzE7hbucYwDLHSEz8C5agTYIJpmlzjcDjkI3MwGHAGwQRUPBBMEDTquk5+jwq0bZu7FdFGZALW9eiU5TiO67qVSmVxcbFcLguHx1g7NU1rNBrdbtcwDM/zstns/Pz8/Px8Mpn0fT+bzZZKpXK5jCU5lUoVi8WZmRkc9D558sR13cXFxTdi90OkKEoul8NSh2+DbDabz+ejpxe+79MwCMMQIVr0r3iduVsxw3AGYcLRNI1LwPRITfiduxUzjMBA4wQxXwIDdrGcnwYSTIguHOl0emFhwbKs3d1dSZLy+Xwul5uZmQEeZWVlZX5+PpFIdLvdwWCwtbW1sLBQKBQcx3n+/LmmacIn/RtEsixnMhmc+uBbGhegqVSq0+lgczwajVzXxbGoaZpra2uI4ep2u71eD6+5LMu1Wo0yNQuEEzIaJ5hw2u02Z0ABImpqmsYHEnZp1AyCAKqJH2HsXCBfChNU+kSSpFQqNTMzw58Puzxq5nK5026UarXa0tISjjQQpYabwlwuZxjGt7/97WQySf/U7/fxrwsLC6lU6qc//SkXK8vynTt3jo6OisXi7Oyspmnz8/OFQuHp06e6rrdardnZ2eXl5WQyub+/jz9pt9tYXaRIpMw1U7VaHY/HrVZrcXExnU5nMplCoaCqajKZrFQqHO6TzWbL5XIymazX65hPe72eLMv4Q0Esn0ZxDU/vFa5j+UcGtNCfpNNpwY+FQoE3s9lsJpMhgTjV5AKRBIGePJVKRQXy67xMJsMTJSiKUiwWOT9MIIHJZLJUKvEtfD6f5yZkMhkh832hUOBPmMvlcOpAfSKYIGhMpVLofM7Ap6psNptOp4lBVdWoRol5YaJAvouFNN4n6LTzm4BXlQtUWcS+LMvoNMEEYlBVVUCbQSPvE65RlmU+OUAjLy8AE7jATCbDBSYSCRxz8keS2GAWTFAURTjyFDoNArlGHM7zGYyfEAAtFw0DoegBfDvyyQfXW51OZzAYlMtlTKDwCz9tlU5+kNBZV6VS6fV6n3322erqaq1Wk94ooq7jLpgIBFZYBT1Zlvkwk45fZ+5WzDCcgQ9+jEwuX8A4JpPJYrHIRyZmGGLAwOBDPZ/P8ydPJBI8k8vEgRTd/eBiK5PJdLvdzz//fGNjg2TKsgwoN6rOqarqOA7m7UQiUavVKpXK3t7ezZs3o733+hM/0KVfgiAA3qtarWYyGaxTONSYmZnJZrPIIDA/Py9JErb+fJxM1MLnTEw4fCDJslwqlXCgABKOkVRV5Vc9ECiME+HquVKpfDmf8CWHLzAgATicSqVOQz1jovR9/6OPPvrWt77lui72yx988MHW1lalUgmC4OHDhw8ePPA8b29vL51Oj0YjmpiEj6Rbt25pmvbZZ591Oh0KcrNtO51Op1Ip/CExt1qtdru9tbU1Go1e+cdWPp9fXFy0bbter8/Pz9NWjJeIAuHgV1F+mXQgCIKZmRkcF03/YhD2RphcpjBE3cpnIum4diAXKDAIAlVVna4RRb6oiVH4MgKjJggMZ5ogMJwpUHhpoyYIAqMmCAxRgdM1XtQEmRVYPU3gdI38xPg0E/ifvIBAgeEFTBD6ZLpGXG1EY3nS6XQ+n9/Z2dE0rd/v40prMBj87Gc/GwwGeAFHoxGO4ibiNlKpVK/Xe/z4Mb4ji8VivV7/+OOPb926hZU+l8tNmfffCEIWpYODAykSDiasjoIfo16IviycITqQogzc71iDefdGNV5UoKqq2M3wvxqNRjs7O7gkxbKKBe7GjRvz8/N/9md/hg8AnA/9xV/8RalUqtVqqqrOz88vLCw8fvwYlwDSG0h8JcVnycHBQRAEKysrSJmTTCbX1taCIGi325ZlFYvFxcXFlZWVg4MD7G4nXpgKKoQ5c/rCEXUrTiunCIzOMJzhkm8lFUXBTSFG28HBwfb2tizL/X7/G9/4Bv4JYAvclP/85z8PgmBzc5Pb7Pv+w4cPwzA0DCOVSr3zzjsffvihoig45Mjn8z//+c9/8pOfFAoFnFSlUql+vw9E0SuP8+r1eriHwnLoOM7u7u45AwiRW7JcLgOGedWPGlNMbycpirK8vFwsFoMg2NvbU1V1bm4uk8kg6gd7o0KhgGtKVEn0fR/z7MbGBuZTXAkpihIEQS6Xe/fdd8MwTKfTKEm9uLj4io08N6VSqbm5ORwrYv4sl8vZbDaVSi0sLFQqlTOXsa8q4XYCd6M4L/+VX/kVRVFKpdK9e/cAcs/lcvl8/ubNm9VqFXcdGBI4eX3l69FFKZVK3b17N5VK3blzh5pAwadSqWw2m0wmkTRSURTg5bG6NZvNcrm8urpqWRb2u8lk8t69e6/aoGl0ORHvvV4PXzyyLDebTeRNwWX5YDDAfg0AF/qnWq2GO35MFvzEOwzDVquFY6FarYY7Wsws1WpVluV2uw1YLi5Zi8Vit9vF1h47pFarNTc390oQZ6PRCEdTuPbC7XWxWBwOh7g6MU0Tpz6u6+LATNf1MPz/2XuzJkmu7EzM3SMiIyIj96qsBBqFWtDERgAku8FeyLbppmhGGm1GmpkHDWWSniQ9SmZsGpcH2TTJ/zEPND1KL6KNSTSRHIr7UCQbbKK7STQBFPaqyszYN9/C3a8ePsTBF+d6eERUZRWAKj94gWd9+Z17zrl+/ab7ueeYu3fv7u/vb21tIV9MveIrT7yXUso9yMoT72+88Ybv+6+++ur968J5mXfffff4+Pj555//nOZ8rCOP54n3UpSEYfj6668fHR0hwe6FF15Y/4DbZ+HEe+VXfuVX8PXOcRzf95HiLhuRu3fvrtPpAltC/HxnZwfZYTs7O/V6fX9/f2dnB99c+Z/wUmt3dxcJH+fn52+//fadO3eg8fLly7u7u/g0i4++u7u729vb0N5qtfb29nZ2drAbxca81Wq1Wi3sJ1Q6wsOUarXaaDTEIY1GA58e5QPk1tYWKrLjxTIwaZq22+00TZGkefnyZfvdjxyR6PV6vu/LZiiO43a7LdW7HcdBchX3WOj1egrA+RbD4XAymchyNpvNut0uvzNEjrN8vAuCwAbwCMfjMSrZV+aF57E9Fbxq1oE0aibE+zM2YTgcCgDpcu5iWwnV6aLb7fJX536/zyagAjrysQRgFvtOTCYTIUT3D4c+tahmHUEQYEjykh9532IC8rK9eZuILMv6/T53gUC6LpvQ6/UMdbpA0rTyiUudLlC8nztjsAnIBGeNo9GIo4CkZmf+wQup5dzpQpmA7Hj+NoS/Zzis3E/AmffWkMYUygTkGnPBVdUyBem0yLQQQBAE3KsHya3rd7pAdqf6oHbPUqlU9vf3r1y58vk657yp8FkbYwyy3eUVker6ggYm0+mUAYPBgBccZNPLmxJkuwse94Izn5lZlmFiCAAJ+7I+II2aNWIqSh6bnBRB3LMsKztd3IPgwx9elCJtY/3ME7w9Ojs7kzUTJyu73a4kgWVZhpPR0ukCzz4JK2pLMv7s7AyvHpz5zGy325J2bYw5PT3FI9jBdzEZcaVSUTctXu3KJYMvVrDRwed5Tk97TKTZbEpKnR0FJbVajTM9UWKEPcYbVhDaABVWh54Q2DSorEPOQQahAvAfgkoj1sECjfabLTuTgBnsPz2xC1E+UYTFJlSpr1nuCItNAKFiUD6xGRQeeYUFNvLfHiDkDN9cEwqcplJcVdxByAO2o2DbaBMWAJTTbCdDoyJUE8P2CY+wsqq2lsq3vR/BB/0LJPwsix0m/id7ZqrftW9nDpMixPrAhLkaC6YuAOrm4vTYSqXyWSgR9/kSz/PusxCUvcGwEzo5Gx3PPh4A4+15Yr9h4mXfjaJILnDUk2cqtsMyabIs40O/pTw04f0BSlNIXJAVzmFCFRYOqw1QYWXCXIBD691FEcpzyyZcqREbhQdKeLEm5BJymHIJbUCxCUrjPRAWAGwTLkTj+k67BxMuqoNBKSzYXsiTAm6Xp05uWPk8owLIuRYFuGfCZQB1qSZSHMflPHlogn2JvQZm1DLFmb/dkS9fdljtHUsxIS/jn+9OF4+P2G9HSimllJXygDpdPOZiv0f8vEuZ9/OQ5bOQ91M+TUsppZRSSimllMdLPP6SNZvNcP5IfoI6p3KpCu2U8qkIWirKnylpmk6nU/5o7fs+v8WdzWZclRgAFVYurIzarIwPgoBr5iZJoiZGEAT8EjGOY3R/xCWyzxR+JSGbAEIFUCYgb1F84vs+DykIAq5GPZvNptOpAvBlFEVsAvJnGYDDfWyCIgzDsMAElNFTGu2wcoFsVAlnE3hIqFfLeBAqExRAmaAAilCZgFzRAkJEgVcYVDmXy1wTGBDHsR1WBWCfKBOQnFv+QX/hYhZbEMxmM/4moO4FVEbmEt4IEy84WNMUQC7VvWCMwVRUGnmqB0GgGGxCLlddviB8+IKiNhzWKIrG4zEDuLA71kyOY5ZlCs+EjuPEcWwDZJ54XIw/jmOcLRc0l5l3HIfBpTxMYbejHRg/Y7ihAQD8SIjj2AaorYNaO8bjMcd9Op3ygxll4xXhbDYz1MGAdzM4o8F43/e5QQGaxLFG3/d5q41JzFsHe+/CJuCYiQLwgxk+URp5swKfsAlqL6L2oPjLgR/M2G/JZRRFNqHC834LO0IGqN0PfMJrh9oZKBOw4nNvDWwZCwjVXgRNv8Vp2E4xIR5y7BNlArZHohGEojGXUJmAQ14MYBOwqVXr6Ww2q80FmYvuvFye53lxHCsAeg/h0nXdKIpwgpIBcgkv4bQgPgbNZjMFiOMYWbdCiMOAuYSIS5ZlQpgkiSJUJkRRhMOArLFareaagOR6xkOjM681V6lU4jhWALRPEo08MaCOn1KYujxPcHsyQN2tk8mEn2qIoyJUM3MymSiA2pcrALdYsSdSHMefboukx1DwoFF/bnF/EpwCk6hh2eeJgWcf43GOVS6xpWGl/ORyp9OpnGhNkiSKIj63htOk8n0XU4SzT5BrxuodOtOBmj2bAjj5X+HvTWMxYTFgHRMeDqHk/WDdkTMOWNA5eT4MQxwvBwlWTwXgz/ZxHOMgNBNy3GW1BSG6/KBNgQD4QDu6Bwgh1mvWqExI0zSOY6URJ6vFBDwwGMAHjrBxYZ/gASBDUibIE4UBygSky0EFTGBCKYUnPsEDgwEuncmHT8QE3JmsMdcEPtsCQuUTrgKAjjzKhAJCbFjZJ0y4pgkelRUAoRy3SdNUdhICcKhqQK4JSiNHASbgQF+uCdCoCB0qWq0mEnYeLtUpwDsARWg7TREWa4TTJAq5GuUy1wQzP8SbS4gwKYAculQmyHsOwQOgfOJQ9XPkTglhrglc1yDXhCzLpKwAALzg5GosIITGZYSYmcYYBZBLNZGQPIuJAYBZbJMMAIcJgOrajVrNYkdPpF2rjp42oUM3S5ZlXH5iHcIZNas2VudXs9gi1DYht+eoIlQ+wURaZgJrxNkIPIl4yZrNZnKgHX/R9ft95P3YYc2yLAxDxqMKCa8wcRwrgDxoNs56Lj9+fSpSZj2XUkoppZTyWMlnK+u53PqUUkoppZRSSimfaynfJZRSSimllFJKKY+XVL797W/LB12UheZSy2dnZ5wHMBqNuCJcKQ9T5JNwv98PgkA+/KMxBefE9Ho91ICSsKpOF6rvBFoiCAO6OnBWjWoTEYYhNHJjCmex0wX3WEjTtN/vs0bVJiKKIvSdEEC/32cTptPpaDQSgDEGpfQFb7eJ4Fr70IhMIG/e1aHf73POymAwQMIHLlGbXz6rwwSHvmEPh0NkAolP7OYbqtPFeDwWE7IswwmDGvXWCIJANMIETjEZjUbc6cL3fdXpYjgc8nd6ZQL6CfB3+vF4zJ0ukHIoGpFyqDpdoLMj9xNgjcgk5bAOh0OlEQleYgKWlNq8JQJS0SXhAwn+7BPVW0N1ugjDUHW6QG8NJuQoIH8/jmPJJJhOp6pZx2g0EhuRdxkEgeDRk0FMQN/HKIoEgC4QPDNVNw/f933fFzxMkJkm+bmsESZIWIfDYRiG3CZiMplI/yIVBZhgaxSfIKzcMToMw9FoxK112AScxJlMJoJHWwkO62QymUwm3HdiOBzWqNOFMgEa5VLdCzgxwJ0uMDF4wRmNRtzpAgDudNHv92UiwYThcMh4rA/wCU5RjMfjVqvFAEmmTJIEiyS8ivwSJkRvDWexWcdwOBRCDEmcjK4vHAV08xB8kiRoPs9hHQwGDOh0OvL4xvrAUQCD4NM0RfcP8QnWNOk4maZpp9ORNRM3F5sAgOQNZ1nW6/W4gUkcx51ORwizLGu32zJPjDGTyaTf7ytAmqbS6aLf73OniyRJzs/PFV5y2pA2xK0zjDFoUI95UvnOd74j668zbyLPGbicLWsn5JbycMRdrNmPxC65VFlBeIpzAh1KS3Eca1QY3hijWgTYACa0NQLA1c886jXhuq5NaJvADACwRi5mD0K7sYMqb88bPlsjRsiAmtWWobaqvYZysjIBlwqgnMB4PIGWaVzmk43aa/CeVREqE+Bk3pKqsLIThNArbCmAIdl47oBha6xZTQyYgRP8c31SQIjfUiO0TRCNy3ySO3OUjQUm8C4cRxxsn/AqnUuolvGCKKAYrq1xGSFGqHrXKJ8wobM4dcUE2QQLoFjjMkJxAufb2pmRrFEAitCe2wzgFSzXBLuDEMaMHyqNzuKKZBMCoJysnKDwtgkFjR2WaSwg5Gx6x3Gw2VJRsAG8f1AmOJTbLhoLCJGfLo26HMepVqs8Zj4QIBbJzFw2wo/DivMC/G/Fl3we9d7k1q1bh4eHBwcHj2cOb7vdrtfrm/Zh5Vtx01NmuYBN8RsRPnyNjyoh/2RThnsjfPga78dLD4fwgfokl+HCp+LD1/jZJ/x0TXj4Gj+bhMUAlfV8sSZ8Cp0u+v0+Op+rqfDoSZqmZ2dnly9f5r2q7/sVq+3oSnHLM1+llFJKKaU8TvJAz3xVV0PWEN/3v/e97zmOc3Jysru7+95777muGwTBc889d3Jy8tprr6GClud5X/rSl05PTy9dusTf1x4lmU6nd+/ezbJsd3c3iqI7d+5MJpMbN2589NFHcRy3Wi1jzO7ubhiGnU4HhS6uXLlyeHh4fn7u+/5kMnFd95lnnmm1Wo+kf0oppZRSSinlUxePKyfikWzoTHuv1+NSjJPJhP9V5Ac/+EGr1Xr66aePjo6CILh79+7JycmTTz75z//8z2mavvPOO81m8+rVq8PhsNPptNtt3/dzeR4B6fV6WZYdHBzs7u42Go1ms7m/v1+pVG7fvt1oNPb391F0GImBOzs7R0dH7XY7juPT09Nms7mzs5MtNhuHsLtGoxEyMXGJhDt+h4f8WSm5i+Q1BiDTUy6n0ylXwEzTdDAYKEKuLh3HsZoYyPSUQSIhl0uvKo1IIRQTkEKoAFw1OAgCe0hqZnI96yRJBoMBVxmeTCZcXRophAxACrBcIiFXNCIJURFy0XSYwAxIVhWfIK2S6xorjUjkFBMkFZQB7BMkKXPJXVW+VpmAhFwFUD5BNjprZLwyAamgXKIX23fxCUxQAL73kRkqJiAVlPHIKWYThsMhL1koIiyESMgVE5Aeq5Y4NgE+UYRqqisTVNliJPCKCZLhyxp5ZqImuBoS43NN4Gr90KjCqgDj8VhVZpc4GmOQN600qrByCV0URucFh01AOoTC88yECQrA64NtAjTKJRL22QSsMAxgn8AEGyDzBOuDMoGLAgPAd+tkMrEBXHAfOcVCiLuJ8bw+oKy5TagK7ttOkEucw5CZibDiZAYDCkyQkxwCUD7BYRQG8JppjJlOpzZAnIxln8Mqqd8C6PV6XJoZScpqSEJojFFhTdOU8WaeFi0/CYJAAbrdrswTD/UfRRmv7868CjAry921fPDBBzdu3MDux3Xd3d3dJ5988saNG5gfaZo+9dRTTz311NHRUbfbfbTbqRwcHFQqFew28IFvb28PaZJHR0d7e3vy9arRaBwcHFy+fBl16BuNBu63J554orj5LeqWctS4RYMzr8krl7kAvkSdU55kqjsSCtoqjQqg5gkzrCQ0xihChc8WOzAbqy+PMiGzOjbDJwJAaeYCE1AMmr2E8rIFGuM4ZkAuXvmkgBA+UYRcjB82Fmi0nWzjbadxdzbbBDusxT6xATah0sg25hIWA2wnFDvZ9qoNsBkUXs3MYkJlAgB8WeyTXEL+w0BKJzPedprCrzRh2QiXAZgQgd7IJ4xX93suId+twBf4xNa40idYMQpMyL09lUY1M5nQzIt6b2SCmpkFhM58TVMAvrTniQLwmgm80siXTt6SpQC2CfYOROGZUGngbzlfAAAgAElEQVRUa6Yxxt7SsE+q3NeiXq9funSJ3zocHh5ywvb29naS1wylWq3yIPBVy3Vd/rNyd3fX930+Tv9ICgz0ff/u3bvHx8fiAXUcyZmfD/c8D8EwxhwcHOD1D+fAQ9hpOzs7xhjBVKvVg4MDTtTf3d31PI/Denh4yIC9vT2+3N7ezrJMCCuVyt7eHscdJwZl/LVaTU0MjFk0NpvNer0uKjzPUxpxRlE01mo12wR+AdZoNNShFeUlnIFkn+CVG2uEt8Un6uSOykOHT9iE3d3dAo22Cfh2ySbIYQQQ2iaosO7v76shMSE8LHjXddXXUmVCtVrFxFAa5SdbW1vsNBA6JDCB5wnCJIBms8km1Go13u4D4NBkRlgF73meMkE5rVqt7u3tKQCbUKvVOEyu68rhWNbIhGpFgkZFyCZAo1zCIewT5TQVJkSBNdbrdb6V4DT2iTIBGsUEOwrwmPxEmeC6bqPR4L+vlMZKpYIVhgF8d6iJ5Lou3+yONZFgAv9pAQ+rmckmYMxyibhzWLHCKBPYJ7YJPHMqlcr+/v4n2a+ui4nBGvf39/lu3d7elhoBMiRxgooC0jT5pBI08gq2vb3NJigbsT7YJihC9okyAQD5CW5njgIAcolVmk3gXkYA8BIHE9gnADCDHdbDw0O5dF1XETabTXXG7eDgQF7eYNl3SCqVChNiAOyTer1+dHTEhPworPKs5dsYYh9Oy939vPLKK6+//nqz2Tw5OWFCoX3jjTcqlcpoNHrllVfOz89thkdG+v0+Kkl4ntdsNqMo+vDDD2/cuGHv+exvW51Op1ar7e/vHx8fq1OCLOqfck858qUdVgVQIXMXTznaGu+B0D5XWWzCphptwmKATagAm5pw/4QK8BBMUACbUAFswmKNtgnFGh8CoQ0ovlkuXKNNqAAXTvjwTbCPjhfHcdMorENYvCDcgwnFhOuYwEucu1j1wLFW3VyNCqDWzE0JbUCxCfdPeA8mFJ/Px56Pf1JMqAAXk/V8/fp1kLZara2tLfz55bru1772NZSduH79uud5N2/e3Nvbsw/+PUqCgloouLS9vX3jxg3HcSqVyhe/+EXE6cknn8RfZtjnuq578+ZN7JYODg5qtdpHH32kXr2UUkoppZRSSikXKNU0TWV/l2UZvyp3HCdJkgp90ViWslOr1Z5++mm5lNdTTz31FP7n5OQEz/633nqr0+m89NJLj+rh7WazKaUtHceR127ygk6cI5vQg4OD6XQax/FkMvE8rzJvLLxM8F1Tvm3hmzSHCXsprqqnAGma8qexLMvw+YAZFN6hrzy5hPxdCROpQONKE+6fEMnjwpBLyF5SACQJFQwp14QCQtvJ909YbILSmOuTYo2435dptAlXaiwmXMcEAHjJ4m9tNmGuxgqVoARgGeEyGxVeAMsIlU8KNOb6ROEv3IR7IHQWFwT+dJ47kRQD3++ffUJnviBwjco0TfnS1qgAtkZ+2uZqvHDCYhPsm8smXKmR9w/FJjjWoyrLsjRN+S9/zgqyTQBDMWHBlsbjExNhGJ6fn/O3xk6no87FLNsAFcjP/MzPiD1HR0evvvoqf3MtxXGcRqNx7dq14+PjS5cu3bhxw8565qCMRiN0GMAlOl2oI13qwJQC8HEGx3HG4zEaCOAymVdtZ0I+yxNFkZoYOPYig0TNdT6CoQ5YqWNrOESmAPaZLxmSMcY+gcWnSHC4QE1dZYKtUZ35Uidr1HmoXEI+ITUej/nMF4548Mka+0iXOhzE51wc69iafeYLGpnQNoEPRKCPBBOiiQoTqhNbtgl8fAmnkzisfIoEAF5wEFY+MIXuHMuiAJ/wCSmcMhMTcJhITMiyDGESvDq2hkNkCmCbwCdroFHwONqjTOBzLjhlliwe5VOHwtRxJ457mqZoMMIa7bDyQRh052Cf2CYUHNFK0xQrDAPUgsNxN/M2EQWE6rSRfeZrOBzykGCjXKp7Icuy6XTK55WgUXyCuLNGMMjEg9P4iJY6MIW+E8oEPq8kfWME0O/3JUzGGNxNgk+ShNeHLMsUIVZdcXJuFNSRrl6vx1FQB6YAUIdMbQa5zLJM+QQdjRjQ7XbVCU0F6PV6ho4gDAYDNdM6nY4i5AVnOp222+1lhFj22SdJkih8t9tVM5MzbZBeIvOk8tu//ducdlRZLMSHL3Oyk3Jd9x6+W3Hy5vb29mNb5blAPM9rzqXRaNj+canThTuv0c5JfLk9GQSAcuMKwJfVvC4QCq80qonB6atC6M3rxHtWbX4mhHX2kNhkRYifKML1TZCpbmvMNSGXEB+V2SecFGwTso3wSdVq1sEmAG8TFodV4cVLEgUboJxcmTcoKA6rYzV5sAmXAQrmiR0FDjR8opYs+14o0GhHQREWmIAfFhDyTCsOqwKo/Es7CsUmcG648okAlvnEsRYQ5RNn3i0k18krfSJ3K2fgetROxI6CaMz1iUMzpzgK/BbBo9YZy3xi49kERQiNasGpznssyJCWacRUL/CJHXdvsftHMaFjLVn49WKfiEYMo0KdMcSEZU5WJjjWvSCrbq4JMk9Uck8URZLubZtQyWs/UkDIJnwKtZ5LuQdxy1rPpZRSSimlPE6SPshaz+XTtJRSSimllFJKebyk3P2UUkoppZRSSimPl1S+/e1vS6KP7/vtdpvLf52dnfF3u+FwiG9pn9p4H2OR7+5ITZVv0nEcd7td/ije6/WQWi9h7ff7DOh2u/xZHY0sBJAkSbfb5Q/5yJ4TjUEQ9Ho9nhjInhONSDWVBA6k17FGZBBLPgdShhmABEAhREawAIwx/X7fpbIfyHUVjcgQdKkiBdJ1RSPybfmzN3IY5RLpt1LxAjmJDtXUQdq1EKKdiNKYJIl8BUdGsJiQzYu4Cx6J3soEY4x8tEZzDyFERrBoREpgmqaCVyYgWZUBSPTmsKIbAADIep7NZoJH+q03r1OHZNUkSSRJH30qOKzD4TDLMh5SHMe84LAJyPSczWZMOJlMxAQktyqNMAGESDEWE5DpGUWR4FUU4JM4jqVqCNqJiE+UCUjMDIJA8OjFISYkSYKuLwLwfX88HnNYkbMsQ0L3D8HDBJlpSKMOw5A1wgQOaxiGctQUzTqkkWKuCdPpVPBIn1dhDYKAAaPRSL68S84yTDDz1hmCRyY4hxUJ+wwYDoey4NgmQKNcqnshm3f/kDqQ0MgLDnpxCAAzB+VInHlSM5uATHDG9/t9mSeSzC6lLAGQXt1yUgRhQsrwcDgUQpxNceYVazAzh8OhEOKghiRT4kgBRwHNeQSfJAnaUklYcShBAWQZz7IM6fYyJKzzgscqrcLa6/XkkHKapp1Oh1cwZQIAUj8ZOctRFHEcO52OEGZZdn5+LouwMQaZ4FLoMsuydrudpimqMmLZZ58kSXJ+fq4IjTEc1m63K4TGmLOzM0kM8ngrY+9sii+dxbNIuaIANn4l4CET3j/gQWt058KXNkbhl/2rTWj/iuetnic2gEeoMpaKB7yM8J4HsM6vOIVOW0ZYEIVN76aVAy4e4TqEG9m4psnr+zD3Jzwx7i2szqIUz9VNw5prUcEg1wQ4haI0rmPRyigUx2WdG7z4XzfCO+s5rUDFSosulnAdH96/kzeaus7ivXMPNtpi/3rBun0PUbMBNn/xk0K5yB7SOk7+5F/DMOTz/UmScIL0bDarUPkZ1UmklIcmLmU946QoF7dAzQMJc5Ik7mLZBn6P4lhFEVRtm2WEMrFAyBOjmNAG5JqgCG0T1tdol6a4TxNyq+84dDfahKrWBQjVkFZqZCfYdV9sje5iOZ91CO/ZhFzCTU3YtLbNhRAWmLCywtBKQrtYTrEJxfV+QMg1TnIJHargnFuFxV1exyXXJzZhsQnFhBdign2zKEAB4X3WtoEJ/G44V6O9ZDFeLXFpmipCXnVzTcC7ZL70PK9YIy/juRqVRfdvAh/Iwjq/zAQnb4PBL6cdx4miqN1uS9bzOoTKJ/aW5pPjkOWZr8+FuOWZr1JKKaWUUh4nKc98lVJKKaWUUkoppVyYePwlK0kSrsTqOI7v+1xqWjWLL+VTkSiKwjCUMqNZlqkwhWE4m824sKkN4Ms4jhVhEAQKH8dxMSG3v43jOAgCIUQOoJpIURRxpVRbI5swm81sgDLBJuQhRVGkTLABygRWkWWZbSNrzCXkF6uz2YwJjTG2RtsEZojjuMAEECq8Ciu8WkyoAAUm2ISz2UyZYAPUgsNehQkMyNWoAMoE1miMgY0bEXLV8k1NyLIMc5sBtk8Ug8Irn2BiKIAywda4zARjDGwsIMQKowBcw7fYBHX3wQQmxJDUzLSHpAiVCcWEygQA5BJLHNeOxwqjAOputQHKJ8oEG69mpg3gNdM2QeF931c+4crsa5ogl0hzVmFlQgBUWBXA930uzax8kqapjVcLjq2RL8MwVHEsJpzNZlw7HgBxsschVLW0HcfhkuqO43B4SnmYwltSHITh5y53jXDmB2HkV3DCgh+0OMsjlzgkwssft1xw5gdhRCPOaDDDZDLhhxCK9/MjQWnEqRNFyDfedDpVJjADzq0wHv0HRCMOfSgAz16cW1Ea+ZkRhiETZlkGG5nQ9gnf6r7vswkg5GL8k8mE8UEQTKdTLnWP80rLCOETNSTGh2E4nU7ZJ5gYDFAmsEYsPQrPGrMswwEoNoEJkyRRzTdAuMwErGVKI0fBJoQJvEu2TWB8FEUchTRNMbcZoHwymUxsjXIZx7FtgiLkmwtRUENivDLBJkRDQBVWbp0BAO8I7bjzIwEaeWaiBQoD2AQQcoMC2KgI2SdYYZYRyqEwBZBLxJ3DqtqDAMB3Kw6FKQD7RE0kxFHhlQnctAEA3tRykxbsRZgQK5Kamdy0AQDewKmwYp2XS6zSKgo2gDcrOH6oAHzJnW2wueERZlnGayYIbYBcGmNUWHGckAHKJ6o9CAD87FNhzbKM+5kYY7jRDXzCAMdxuCOK7nSBstCSJ+VZla3NI92h/TMrLnW68OYl1d35KZ7cKu+VxTYRquR5bsFyiWxlsQuEN6+AzoTc6cKzGhqA0Fu704U9QmVCrVb7pEL5EsJNTbCdYFe+L3aaTciF5/HrEjXW6FpdILx5oXoxQRHaYWWfLItCdcNOF6pOfO4IRaPdf6CW105kWY8FFYVcn/BEcqw2ERhSQRRWaqxYrTMUoTJBNOYS2iOUicRhzdWo8BIFz+rFUVnV6cI2wY6jrVFNJO5gwITKRsyTYie7VkuECrWJKIiCIrRXmFyfOPO7VQFsn7CK3BYKamYygMMq84R9UlnsdGFPpGKfLAOoES4jdPLWQPaJxFGNUIWVO13kLqqqFUZtSfcPZsg1QeaJ6lyhOl3YJqhGFvV6nQmri50uFsL6KWY9v/vuu/v7+2ma9vv9Z555Rnz0aEun06nX661Wa6MU5jLruZRSSimllMdKHtms5/39/UajgRKLj+QHtTRNT09P1f6y2Wzy27VSSimllFJKKeUhy8W8bgmC4Ac/+IExZn9//9lnn3377bclT3ZnZwepUl/+8per1eo//MM/JEmSZdmXvvSlTqdzeHhYXNnvcyfT6fTs7CzLsp2dnTiOb9++PR6Pr1+/fufOnTiOW60WfBJFUbfbzbJsNpsdHx8fHBy0221kfriue+PGDamYWUoppZRSSimlXKx4nAsWBMHp6SlvR87PzzmPktOyWH70ox9tbW2dnJzcunUrDMPz8/PJZHJ8fNxut6fT6eXLl9vtNhLxjo+PT05O8POzszPOzns0pN/vz2az3d3dVqtVq9Xq9fru7m6lUvnwww9rtVqr1UKiKBojNBqNvb298/PzOI5PT0+3trbq9Tp2jWrrw14aDAZoBIHL2WzWbrc5+7XX63FOcRAENoDDOh6PUeMclyiRzvjBYMCJ1QgxM6AAuQwSBcs5t1RpHAwGnIgdRVGn0+HEzMFgwCagYDkn3PX7fcaPRiNOZ5vNZopwOByOx2MxIQgCWyN/1Z1MJihdLybARtbIPkFVLs5ORa198cl0OmUnIF+P8SgbLz5BAxNFyNnuQRB0u11O8RsOh4yHCewTTAzWqMLKGo0xnMhpm5Cm6WAw4MTMyWSiTOj1egrAt7zv+71eT0zI5sX4WaNtAqc9ogWK+AS3lZiARE7GQ6OYgAYFnPuJRE4hRA8WGRLS7RmPbgAykdI0HQ6HnNqJniriE/RYUENiQmhUJjAhMkNlZsIETu2ERk7w57jDBMbDaewTrDBKIy84bAISeJkQf9pJWJERzISwkRecfr9v2yiX6l5ARjC66zCA79bhcKgAvV6Ps+O73S6bgBVG8ADw3ToajTqdjgJwgn+v1xMTkMCrCDudjgqrIux0OpzMrqKANhFymSQJnqqicTqdttttBvAyjpuLhwSAXGKVlqmIsDJhmqbtdlumOtYHG8Dn4Hq9Hk+MOI7Pz8/lMssyXjORJX16esoAdPMQQL/fZ5+g04VcGmOUT3zfZ0JjDJ62uNS5bNJ9BqJyTZal5rz33nvHx8eIKFb8S5cuPf300+++++7R0dHVq1fxNqjZbGKzhSMDj9i+B7K3t4czVvV6vdlsNpvN/f19NOU5Ojra39+X6dJoNI6Ojmq12vn5eZqm9Xodd+OTTz4pPX1ypVar8fZIZeMCwHWWcwF2WAVv5xghc1bNkwKNnL7nzDMKFZ41qlxXaNyIsFqtorzs+ibYQ+LLjxvBEGF13kUo12lwsgIoQnvMCp9lWTEh8viKnaZMKMariaRSmLkMq22CHQWETBHyoqGGpLJxlzlNxV3ZWOATl84KrGmCN293JZd22mYxIa+oQlgwddkc2wRnPjEUQJnADOs4zcYrQl6cVSqra50PsJ1WHIVcQhvAl3YmO49QeRUAFVYmdOfp+ewElWxb/OxTY86dSBuZAIAitAFqhMUmFDtZzZzceVLsk1yAIlQ+YYDjOPYSxzsQMPDf4conSiMI1d1asKVx4zgWjxhjjDE8XH6iOPMtrWPJ7/3e7z377LN7e3tJkpycnHz3u9+9du3atWvX/uIv/uKZZ5556qmn/vzP//zZZ5/FxvPy5ct//dd//fWvf/3WrVtPP/204zh37tz5yle+osz4nAr2dvhL4sqVK+fn5zdv3mw2m3/3d3/34osv7uzsvPXWWzs7O5VKpd/vX79+fWtr6/XXX3/22Wc//PDD3d3dZrO5u7urpqmzOPMQfgaoMOEhWhxWBbAJCwAgZMDD12gDLpxQmVCscc0RFjM8aJ/cvwkbabwowvWd9iCisFLjSsIHMZEufIQb3QsP4eZaqZEBuRptwH0ukjbgAk1YSWgDLtyEz6BPkiQ5PT2VrOcLMUEuF/5M4V+DqENG6l9FXn755bt3706nU8/zrl69ugzmum673V72r4+GDAYDvOh2Xbder0dR9NFHH12/ft22Wv0En0JQxub4+LjgBJxNpcJkR23TsBYD1iF80BqLLy+EcCON9zDCh2DCRho/FZ88fBM2IlxH40r8pzuRLmSEG93OFxL3jVaYXMJiwD0sWffphAtfJC/chM+gTzZl2GiEF5P1fP36dfmW4Xne888/j6TdF154YWdnB/+zt7e3v7+/t7e3tbW1u7t7eHj4/PPPt1otx3FardYjc9y9Xq/v7e1lWdZoNLa3t69du+Y4TqVSuXnzJr5nnZyc4NVOo9HA/1y/fh396nZ2dmq12p07d3Z3d3d2dj5tU0oppZRSSinl0ZTKb/zGb8jHvziOR6NRo9GQ7dJwOETOCi6RoGTvSSuVysHBwcHBwf7+vud5rVYLnzB3dnbkf1DF6ODgYHd39+DgoFar4V+3trZarZbN+TmVWq22vb3darWQGbO9vb29vY3/wa6zXq/jkzMArus2m00koLmumyTJbDa7fPmy+pbvzNM+HMfB+yG5RKVUTtFAbqx8a4+iaDqd8ofw8XjsUSPcIAiiKBIGmxAlg4UQlVh5YiDRTC7DMAyCQBiQpcgap9Mpd/e1CZHyzCYEQcAMk8nEpXbEvu/HcSyE6NnCAJRRFsI4jm0AmwCfeJ4nJigASqoLQEqqyz4ezUBEI2q0i0YzrwoveJSZVyYwIerWs0983y8mZBNQZj6jRtYovc8+wQ2uNMolwipRQBliJkRhe2UCDwktF2RuI6xiAirqctNmOE1MAGFGbaVBKPeCMsEYg64RrJGjAJ8oAKIgUx0lwtmEOI55zUR6L5ugbAzDkH2CiaE0yqX0K4BGaSshiQHQqMI6m80YEIahfD1XJhhj0ItD8NAoYUVHBdYIBnGyMsHMG1koQg4rJoYCyIpkmwCNcqnuBTNv2iApHQDwgoMFQTEIHjW+ZSKZed8JRchTHUXDFUAydUAo7cSNMVgQWCMWSZ6ZTAiA+MQ2wSZEnij7ZDqdSs4oCMUEMy/dLgzI0+VLFOAWn2BZFkKkfitC3/cVoF6vwyfGGKzzHAVsMBjvui6bwBqNMaguvb+/L4RRFLETmNAYg6xtuVtRTb7ZbDKhONlTXXL4iIczX/7kksGlXKA0m82rV68eHh7u7+/fuHFDJWopUU2yVIMYJ6/PlwLwrztWQyiT15aruM9XFEVpmgoAXXgKCFWHKXThsZtksUZFGMcxE6oOU5nVqiy3p5UC8ABsQrvPV3HjMEWouimZvD5fcRwrjXbXLXYaM8AnBV23bMLZbKYI7Q5TygQEWgjtXmZ2WG2NyicFrcpUkyxoVK2IlEbbJ3ZbLmVCAaHtNPx9shHhOiYofIEJsHH9Pl+5Jth4NTOLCXNt5BHaE0m1rLJ9ohj4Ut19xmpVZvf5ytWofGJPDKWRfaIIARBCY7WoszuL2Saorls2IXeBAEDwWFS5+Y/qLIbdiVoz7WZnywgdq1UZCNknygST15ZLxVFVS1aLqt2WS+UZq553mdXny+4HxwBncUujO12gjLS8ibErWzulPACRt0Tb29uNRsP2s2t1uuCa6NXF/iRylEbwePHGAH4VJAXOBWBXvmeAEDJDLa9SvoxQASrzMvPKBMWgTKgtb53h5TWyUBpxvkAAtgnsE9uE3G4A7JNlJijCZU7b1CfuYjuRdaLALRRkzMtMcOfNAZaZ4Oa1UFAjrOZ1/9iUsGb1E1BnZ5bNE5m6BRrtEao2EcArAA9gHRPsmbmMMHeq2yO0b3+7TUSBCTWrW4jtEwWwZ6ac4FOE6mZx83px5E512wS+zG1cozSqBcfWyHhpiVBAyGEtcLKz2JdmmU/UgmMT2lO9Sn0naovn1NTUhcn80cBeH4qdXMnrO1GjVhh2FFQ7EZjAI2QnK0JncYMh86S2eFYuDEN0ugCgXq+rsCqNKgqKkJ+Vn2ani1LWF7fsdFFKKaWUUsrjJI9sp4tSSimllFJKKaWUhy8e5/EYYzgTwnGcLMsY8Eh24/rcSZZlKhB2mOywFgNWEjJgTcICgE240oR1CIsBF05YbAJKTWxq44UTFgMeMuE6GgucgEsFWKlxU8KVUVg5dQsInc3jvs7N8jBNuCinPTjCh++TNQEFhI71eL0Hjfbjmy9tBhu/ktB+sqxvQq7GYkL+1wshZIDHhefDMORK1Y7jqI4HXGi/lIcpHJTRaDQcDrnwfLfb5S+Y6HggkUIlewYMBgMVVi7Gj6rtjEePBe7qwHXloZGTClFKn6u2c21+x3HQf0C1RFA9VdiEIAiYwRgDjWzCaDRS/QRUNw82AXXoFYAz7NDxgJt1DAYDBqBpgxDCBP4uPB6PuaC57/vs9izLRqOR6q1hm6A6V3D3D3QDUIXnGY+eDBxWuxWGCit38zDGTKdTxisTcOBCtcJQJqCEFQO4+wc6JHCbCNVbQ0UBTRgUgFewKIq4Y0mWZXCa4KFRtUTg3hpBEHBHlDiOWaMxBhoFH4bhYDDg7h+qt0YYhmzCbDZTGsMw5MtcEwoIEVbulRGGIXf/QBS4n4DdW4N9goM53HcCxevFJ9DIPgmCgPFxHPPdBxMUQK0PygRolEvcC+wT1awDNnJYx+OxDZB5gt4a3BIBK4zgAeC7VfXWwFQUJ+OSW2fgbuIBqKYu0+lU9Z3o9/vsExUFMDCeO6IgrDZALTi2jXKJVZp9opp1pGnKa6YxRvkEAHFylmVokSQANCSRyyzLVK+e6XTKzTeyLOP+JFj2OayqWYcxptvtqpnJvTiMMZ1OR+6dyne+8x1OpHJdV06sAc3pJhgHDhZ6nue6bpZlcul5H79JkksbkGUZjszJiU1jjAJsRGiMQXLTMkJjjEdyIYTuvAnAmoQMWEa4DOC6LkyQDDtjjEq4cxYLeBtjaoutJ1TaEAB8qXJ+bUKl0c5D4sxNENaWtxQQQMEIOZsVHuAkxHVM4ExPRShDsgFy6S0mVtuE0KiioACVxZYj6xCur3GlCUyIeVhbLGbvUc8BzEMBwMnVxe4ZtgmcOJk7wlyAIlQabQBPJBtga1Q+4QEUE+bOTAFwergaAHtJjdC1Sv7nmqDwTIgh5RIirCrbtCCsDCgYYa5GnuqSgcv55gUm5AJkhMoEGbNDsr5PIMontgl2FFS/AdsnBa0klE9ggk2ofCIAOIHPpigbbUKsgQUm5C6SdmsINUIV1gITlhEqJ6so2CNUPuEjz1mWxXGMrOdcQsdxGM8+kUenAkibpo2znst3P5+W8H1YSimllFJKKY+2PNCs540rLJfP4FJKKaWUUkop5XMt5VamlFJKKaWUUkp5vKTyq7/6q/KhLgiCTqeDzlz45/Pzc/44OhqNUDdavteen5+jpRcASL+VzKE4jjudDgPa7TZ/p0duGgPOz8/ls5zjOMiekxHOZrNOp9NsNgXQ6XTwqc+dd4Ho9XoKwF/lkcMoKtI07XQ6rLHb7aLatztvUNDtdrkCYbfb9TxP8jmQ5Cg5K8jk4hQW5PPK91dkfnGCCBLHqtTIYjgcCsAY0+v1+OMokiJFBbLhFGGWZUKITE9m6PV6nGqA3FUZIdLllNPQWwMApFHzxED2nGhEOq0wIGWYNSJRVAiRIcgZIVlgPeoAACAASURBVIPBAD0WQIg8TSE0xgwGA3deIh0moLcGAEhyZI1IFBWN8InSiImES2TLCiFMcBxHAKPRiLs6IAeZkxWQKMozE4Xnq/MOBsPhMKOmDUi7lhEiM5Q1jsdj7uoQBAHqxNfmlemR68p49BOACZKnKd/dx+MxRwHptKIRadRSvN82AYmZDJhMJmiJICbACQxAVwcJKxJFoRHJqkojRwEpw0mSyIf86XTKXR2Q8CtxRLJqHMeCh0YxAQm8WLIE4Pu+3AuolC8mILeU2wUgS1qmIkxgjUEQ8L2AbkJsAjRKtX5lAvoVhGEoAGhkn2AqMoCbMERRhInBJtga2Se4m6Q/QBiGvMRBo5iA9FjusYCcZZmZknsuhBgSLzg4xMBD4gYF6l5AyvBkMlEAXnAw+RkwHA6liVMYxbfP2oOJnxjXj2bTMO4Nx+fdvvGqfjTzo9lo4t9td6NZFqWZH83GftjpDc57AwVIHS+IEz+ajafB6Xl3OJmmjgfCwWh61ukx/s55x49ms8zxo9kkiNq9AWscT4O7550kc8JZCo3nnX5vOM7cCgDDsX/3vMP426fn0zAWE7qD0Wm761RqArhz1hYTJkF03ul1+kPF8AneD++ed8Z+KIT90eTueYcBt0/Po1kWpwaAdrd/1u0rgPGqQZyEcVKvVfD4lrDi2Yfmnogj+jvJgoPHt/S4BCBNU+l0gWefhBVZz0JojMGxLZ7qTAiAPAqrBaf+nPWORhfjiw+kOXkn1tQlp1DZAGOMfSjOLB4sVPhNTdjoXGLuANiEe3OyImSrzYZHqR3rGOFKhlwTVjq5eEh21ApM3tTGXHyxCWpI9uFPBVg58Wz8SievBPB3Z0W4bIQrAev7xNa4aRRWTjybwf7XlYD1437hYcWl0mgTFpiQq7H4/rUXyY1MWKlxnbAWAJbhi5220SKZiy+eJ++dDf7j37778XPXMWmSpmnKTa/wl4b8uTVLkizLGosA2WJmJpvFM0npNY7J0oz3uFmWxbNZdf7nljEmSZLUIqxt1Tz342R2pOTKXwJpls5mySd4k8VRXKlWayB0TJqkSZJ80kXLZHEU17ZqFe8TE0yW1RcZuElWHMeSnG4ck6ZpMksYgD/jxSdJkqRpqgD1Rr1Wqbx848ovf/PHVz6+N33a2gDeP9gzLVej/L+Lv9WEiAPmOA6/tHAcJ0kS/tsRAMbDfUKopggA8leLaGQAv+lxHAczgI87ofHb+oT80gKEht4VYZJx6j5MkFc7uSYwIXxSQKhMWMcn/M4g1wTlE36rAYCcFxNCBahQE9MkSYwxxYQutdrIsixJkmLCLMv4tJFNqHxiE96PCSBkryoTcgk96qIKQlGBW10BHMdRPmGNSZK41EU1TdNsfhhwGWGxCdDIdyuanrKND9oEdhoI+Q2cbUKapgxAmahlJpj5H0sMsJ1WQAiNHjVivDdC9gkT5pqwkjCjF7ErfbLSBACURofeEUKjXOaaYAMKCAEoNkER8kQy8/JgywiXaSwm5CeRWkCWaZTLWZL+2fff/V9/90+cUh6A1GvVX3z1i//+v/sXdlj5PSueC/bjmwFRFHU6Hcl6xoODz8Hxe1bH2oEUb2k2PvNVSimllFJKKZ9fSdLsL//xg9/8D3/0aQ/k0RTsfr7z33/z/qnKThellFJKKaWUUkopFyYev/tJ09RuQM/f1Wazmeo4H4Yhf2aLoohL+mZZpgCKMEkSrodrE8ZxHMex/MQmjKJI6mPmEkZRxJ/64jjmqsTGGJsQX8fEJzZA+YQJczXaJjDANsEGFBPaAHyDYBMUgC9hgvwE7xsV3vYJOyGOYxVWm1A5zTZBEbIJitDWCEIB5BIqE3I1LiPEK1al0faJYlBhZY0gLNAIE2zCAhNsjYrQ1mj75H5MgEYVVgUoJlzHBF6ykiRRJvCQQKjwrHEloe00AORSRcHWiCGtNEERFpgAgCLkVRcai6Og8LYJxYTKBADkUt19uYTrmKAI2SfKBLUGQiNXcocKviw/ejxowbJv7wcYoNZMPL4VA3Pi8a0YGGAT2gCZJ57v+zKtoyjiwtKO4wwGA54lqGTPW4d+v894NCiQn+A4EgNUSwTUzlcaeUFHgwJe3fr9Pj8Fh8Mh705wHIkZcEhEmSAMOMvDeJx3EEJUbVcAXgtQjJ/XU7505ieqRCOOIykbmRBHb3jt4O4BjuOg8r0AcJaHATg9xGFVTsDpIbnEQRghTNOUS+lDI/edwAkLBigTcCxFNGZZpjTiDIhohE8UgKOAQyICMMZAI5vATRtwioQB0+k0CAIxQVX3B6DABJwi4RvP931lgmq+geNIHFZ2QpZlk8mkgBBHbxRA3a0MyLJsOp0qvDJhNBrxWhAEgQorE5r5+SbBKxPSNEWYFCH7BO0+GKDCyl6FCdxbA10gxAT4RAHYJ7km8ACgUZnAhFEUcT8f2wRoVITcY0H11gAhh1U1JImiiPHQyD5RvTXiOJ5MJmwCFkkGcDsRZQKeQIwHQPlEEaoFhwnxiFJ4NTPlcJ9oZJ/kmqDwKqw48KgAPNVVexDYyM+RwF/4O7+UCxes0mqmcZ8Ks9iwyFj9RgDg/YYKq2rWgYcvz0zsB5iw3+8vdLpQJdJVpws+De7Mq31zIjfjHcfZ2tpShedtgCpYbgNU+XC7JYJNKD9RhGaxWYczL5VdTMgmKJ/YJlSr1WKf5JqgGhpIhq8zdzID1jHB7pDAJuRqVIRc/j+3Nr/yybKeDLYJy+rQF49QhVUx2D7hLGaPWigIoTJBxTG3lL4yQcW9mLC62FuDCV3XdRd7MiC/mE24Z43LTLB9UllsTOEt9p1YSehafSfsEapi/BWr04UdBYW3TbAJodF1XdtGNUIVhVyNG5kAQo5jLl6FVQAS91yfSBTUKm3fXMs6XeSaYBPaYRWAeJUXHNUSobLYd2JNExShPST519x7YX2fCMM8cdt81Bn/yfffdy5CLu1t/6uvPntpf/uD8+Fq9KJs1Sov3zj5+Z+6+cP3zi9kMJ8FqVa8L37h6Fs/cd0OK/YDDM7dD8gl9tY48Q6xw2oT8sz0FjtdOI5z750uSimllFJKKeXzKxeb9Xz95OB/+Tdfe/Ojzn/4/dcKYNv12is3TxpbtT/7/rvyw1q18sUvHL7w9PHv/dUbFzKYz4J8XrKeN+50UUoppZRSSimPnhzuNH/2pacv7W23GltjP/rj772zXa/90leefee0d7jT/L//5s1vvPT0i9eOB9Pwr374wTt3+89dvfRzP3mz1djaaW55nvdjXzj6+S8983/+5Ru1qvdfff35P3zt1iSMf/HLX/zC5b2z/uTNjzr/4y+92mrUnnny4Hf/4HvQWPHcK/utZ5443Nuuf+Ola0d724c7jWiW3rrbe/HacRjN/uC1W6Np+Auv/tjNJw4Gk/BPX3/vbDD5+Z965trx3nZjazgN/tPfv7Pfanzj5Wtpmv3nf/rwRx+2v/r81VefeyqKk7/6xw/+4dbdT9eln2Upz3yVUkoppZRSitNq1r72wtVvvHzNdZ2vv/j0f/FTN5842vm333jxK8895bnui9eO/83Pvuh57o2Tw3/3zZevXdn/l1997oVrx340267XPNd94mj3F778xb1W/XCn+Quv/tjNJw7/xcvXf/5LzwynoR/OZmnWqFW6o+B9+kBWq1Sunxz89HNfaNarX33h6i98+RnXdX7uJ2/8q68+ZzLzjZevf+Olp43jhHHSHvovXDv+l1977sp+699+40XjujeeOHjpxpVmvfbf/NwrrUYtM+a//fmfuHFy+F9+/fkf+8JRZzRNypbkheJxUlIYhmdnZ5yD3Ol0OI9yPB53u13OQmq325yD3Ov1OC06juPz83MGdLtdTgWdTCaKAZWt5XIwGKAhAC6TJGm32wzodruc9uj7/vn5uQLw173RaMRp0WmaKo39fp/THqMoOj8/55RhdK4QjfAJZz13u13G9/t9NgHdPxSAU0F932cGY0yv12MThsMh502j+wcDBoMBZ7OGYagA/X6fE34nkwnnTadp2uv1GDAYDDjtERWoFIDDOp1OObksyzKUPBf8aDQajUZCiAroDBgOh5wqjoLlotEYg14Zgh+Px5zZjXR7ztgdjUYcVjQwUQBOboVPOBW03+8zHh1O2CfdbpcZ1AkAJPiLCSpBDxptEzg9djwes0+CIGAbkR3PeBCKCciOVwA2ARmCAkCOIeN93+c4IjueM3ZxpIDD2u/3FYAPMSDJUUzIsgxhYo0chdlshtuTAePxmO/Wfr8vY0ZqOePR4USiAJ9wHiV6qqgEfzZBJfCiw4mYgNRyTsiFRg7rYDBQQ2JCmMBJyuPxmAnDMGSfwAS0KBGAWnA47sgEZzw0qrBydiqOCKgzCmICklWZMI5jnpmIgiLs9/uczK5MgEa5VPcCsuM53RUzje/W0WjEDABwJvhk/EkIWIzjdIb+H71263wween6Fcdxolny+q3Tv/jB+1988nCnufW//+kPv/vm7ZdvXLn55OEzXzj8+7fu/PH3bnWGPpO4ruO6TqtRe+HacW8c/B9/9sM/fO3t8/70tD/50YftP/mHd3JVO47Tn4R/8N237/Ymxpg/+vtbnaF/8+Rwu1473t8+aDX2W/Xnrl5KsiyKkycOd4bT8M++/74x5ivPf+F4v/WFS3vPPHF4tNv8sD2s1ypPHO0kSbpM0UOQLMtUWPHsYwCvmcaY6XR6fn7OAD41hSRojjv2A3JpjOl0OnK3YqozIXYscvt/ktwHsS/5J+pyTcD6/PcA4LzX9QnVmIsZbBUXa0LuTwoY1vz1YhuLGZRG5YGVhCvnyaYMm/76mr9SAFjn1/nvhE0tsn+yDmBTQqdQ3HmmMP86Xy77lZWcuYTrDHLToOQSbmTChUzdYrcXO20lfp2Zdg93x33iV5q86c11D3Fxlsum95qI57r1WnW7Xq3XKnGSOo7jR7M3b3c7Iz+apZ7r7m7Xm1u11GTxLHWM09iqViteteplxsyStFLxTg5arcaW57nGcRxjtmqVxlbVddxKxXMcd6dZ32nWx35kq06zbDAJh9NoOA2NMSM/8sN4u1F75ebJN3/ixh++9vbN8LBeqyRpFs2Su93Rjz7q/ODds0u727Mk642DH7539oN3zz44H4azpDcKvvWTNwbj8EcfdmxFD03WWeIK8DYg91c21Sg/qUrDMMdxtra2jo6OGL2/v8/52Nvb29IoDkQHBweM39vbY/ZarXZ4eMjPzr29PT4F02w21dEhpRH9yQRQqVQODg4YoDTW63V1Mmh/f58vW62WMUYRMmB3d9d1XfnJ1taWrZHPZ21vb3NTVc/zlMbd3V02oVarKRsVYaPR4DR413UBYBOYsFqtKkKYIITIgVcAJtze3mafeJ5na1SEdpiUCRxWz/OURkVYq9UwMRRAfqVer6sDHdC4zIRqtZprAodVzZNWq8WXzWZTzRN4lTU6dO+pc4LOPEw8M9kEz/MwpGUaYYKtUZnAN6N0+1vTBNz7TKhMgEYRO6zcETnXhFyNIrZPuOGxrdE2AT2GlkXBdV1lgtJYqVSUCQqgDh6KRhE1kSqVSrFG2ydbW1vcO8g+cIq5zYRKozRxzAUoE1zXbTQaTAiNamYqGxlQrVbZaa7rwgmCx+2swsoaa7UaLwi2CXJsRzTyveB5XrPZ5EDkamRC5fZKpdLcXpiKIq7rPHVp95e/9crRXvM//vWPHOfjJmFhnPzTB+2vtkf/wy9+yXGdP//++2/f7r7+zulXn796eW/bc93MmO7IP+tP/utvvhREydiPJ0H8vbfv/vK3Xv6f//XXPmwPf/9v3vywPfyZF6/+u2++9L/94ffSzNjas0/eczjyP5kxB63G9SsHYz+q729XPG93e+vZq5eO9ppPHu3+2fff+09/f+vkcOfFa8dn/WkYJ19/8emTg5bjOKMgZ4/10MReH/CoYsD+/r6amXwv4EkkLxGx7LMKPL7lUm1IXNfFvaAAnzxbyzNfpZRSSimlPD6y7MzX1eO9/+mXXt3brv/x996ZhrPvv3tar1V+4ubJ3/7z7cEkbG5Vn7t6+drJvh/O3vigfT6YPnV57+UbV2ZpNvajwSR8/3zwyo2Tk8MdP5rNkvRHH3biJP2pZ57Ya9U7Q//v37579fLej1877k/Cv/zh+9jo1KqVm08cXLty8Ff/+MGPXzt2XOef3m//+PVjxzj/9EH7petXjGPePxv89HNPuY4zmIZ723VjnH/9M8//5T9+8MTRzleee+rf/+4fO47z49ePt6qV8+H09VunP/3cU4c7jaEf/eDds/ZgmmP/A5byzFcppZRSSimlfJ4kM+a0P/n9v31TfnLa+zhDKIiT1985ff2dU/mn988G758N+Nf/5kcfKcI/ef2T8+1v3e6+dbvbamz97EvX9rbrmTGd4fS7b95586Ou4zivvXUHsNfe/Ph/vvvmbfzP//N3b+F/mvXaz/3Eje1G7eSwVa9W3vig3Z8Eg0n47ukn2TB/ShpLKZDKb/7mb8o7RpTg5Ep94/G4Qp20wzAMw5D7mU8mEy5ahWK18uY2SRIFmEwmLnWNjqLI930GjMdjfp/v+z6a9+InaZpOp1MGIIlSXu2CUAHYhCAI0DIdAGTkMR5lUoVwNpvZhGwCfML9iqfTKWuET4QwSZLpdMpvkpGlJV+O4jgOgkAxKBPQGpd9woRIeRZAHMe+7ysAfwYKwxCtcfET1GaVS+DRJpp9wkNCQiKHNYoiAdiEQRCgabP4xNaoTAjDUAFYozIhTVPYKIAgCJQJQRAogDJB+UQBwjDkKICQAchk57BGUSRuR64oZhoTsgm2Rp5I8ImYID1blpkgDU/kfkdVePYJXjIrjYJXUYBPmBBdYjissJEBNqEygQnhNOUTpZEnkjIBpdKwgOSaID1bGBDHMZughqQIoVFMQCXlJEnkfbttQq7GT9qPL5qAHg6z2YwBPJGkxQoDeIlTJqA/iSJUYcVUVBp5wVEmACB4xJ3DiqmoALyq2yYwoboXYEIURfKVBIS84GBBYACeXB/zJ8mtjzp2tcMsM4NJcOtOT3Y8D0IqntvYqsZJOg1nQz/sjTeoOp0ZM/Kj7sgfTqOPOqP//I8f3O6MV//awxVUO/zmK9ewznPcp9Mpt3DnhynC6vs+A1D3HN/LsGZyWPH4VoSO4/DNZWuUR6HHx5dQDpzNmE6nfDpJFWV3HIfLhzuOo0rjo4Q5A6bTKbfRUXXlAeBLVRof1iqNfPgIJihCNiEMQy4Dj+MDjPd9n32Csu58KAwbMjaBGbD7KTABVdiVRv7+iIAxIXcPEEJu1sEdEsQnHFblBJggl9gyctsdRYgdHvtEEWJDxmf9eMwwQeFtE9gJWLzYBEWI+4rxilBpDMNQTXV7YqiZiQ0Tm6BGyK2F4BMGqB438Al3/4BGxtsmMAP2lMonttMUIZ9GVITYCnBYGYCHlpqZ7HbsfmzCAhPixS57ygT4hI/yQSOf0AyCQAGUCTwkmMB4bFKVCbxkKULbhNlir0MQKhNsAPtEmaA6UgHATV2iKFKEfC8grHx4EBqXmYBnDOMRd+UTBbBnJjcosAn5XsAGjg8PgpBNsDUqvG0CA9T9bhMCwMu+aiAFmYTxd9+88723H2yNnDBO/un99nffvPPaW3fevt1b/QskWWbO+pM/+O7b/9f/989/9NotvDT6bIrdZwbPPgbYa6YNYE4VVpyIVHiemfaWhjvnVH7rt36La66rpg3uYgsFd164GgAkrjLem5dUF4DqjAE8p/RWq1V+27SS0FvsOyGEAlAmeHkV0G1AsQm5GnN9YhNKVuAyn3jzMvO5JrjzMvPLouAsaSth+4QBBWFd5jQ7rIrQ9ok37yeQa0IxoTKBAZh49+AT1mj7RPWdUN0/vMUWCstMUAyccMqErtWTYVkUFGCZTxiQa0KuRm5MoUwQJxf4xG7yYBPmAhRhsUZ+bQlCxbAyCrZG8ck6hHaPBdWnQuVuc9KuaOSZmatR+FkjfGJrVGFVGiuL3T/WjIKa6txPAAy5JiwboX23LiNcZoLC564wuT5ZZgK9oXc+6o7/39f1u59SLkSk00VuWDmv2V5wsCwLwHXdKIr29vZwqcIqDHKJ7UEBIT/ayqznUkoppZRSHiO52E4XpSj5vGQ9l7WeSymllFJKKaWUx0vK3U8ppZRSSimllPJ4SXUymUgFoTAMx+Px5cuX5ftut9vd3d2Vz2aTySSO48PDw/nXU9Ptdi9duiT4wWDABcRms9lwODw6OpLPsb1eb3t7W9JoptNpEAQM6Ha7XI9oOBy6VNoONdEZ3+/36/V6s9kEYRAEk8nk6OhIGHq93u7urnwpHI/HSZJIQcI0TQeDAWscDAa1Wk2qrkVRNB6PDw4O5ONlv9/f3t6WvJzJZDKbzaRYH8p77+3tCX4wGHieJybEcTwej/f39xlQr9eljCQyx4UBXR12d3cFj14iOzs70JgkyWg0YhuHw2GtVms0GtCIRO+9vT0BDAYDmCBhTdO01WpBBerE7+zsCH40Gnme12w2oRG5aTwxhsNhvV6XsCJFsdVqgQEdDFgjKve3Wi0QxnE8mUxarZYk549Go2q1KiYgNbXVaoEBXR1QCk9MyLJse3sbJuD0ImaaxB0miE9831cat7a2pIQacqK3t7dhAvL1ECbRaIzZ3t4Wn0yn02azKQX9cF6SZ2Ycx81mEybIYUPB2ybgtAIDXNdlE4IgkLJvcpxB8MoE5KJibgvAGMNh9X2/0WiAASmEHhWOQ7ouKpQ6dNhQAMjGFZ8gNXVra4sBcBp8ggThRqMBE5Bu71G1PThNTIBPUG1PCLMsk7qRSPQWpyEj2KU6kDBBpqIcNhRC5ERL6Uvk87LToFHwSEmWqYjsWmde49SZZ8fLzSXnJXnVnc1mgpdjL2yCMUYA0KjC6rqu5EYg+Z0XHDZBTgwIHk4TnyCsxhgpTAeNsuDAhGq1Cq/KkS4hxLkNmZkwIU1TIYSNOzs78IltAjQKXt0LcqRLKt0BIAsOTMiyjAG+70vJxCRJWjXnl//Fi6738ZPLGMOFOh3jZCbzXNeZP9qQ9K0BVB9VAXIIs8z1XHlWmswYY7zKuoSOMRkIDeAmyzLXdT33Y0BmMmNMxavM+UyWZZ7nuY6LS4gCqEsmNMZkRgM895OqtrkaK16lUnFvPnGIlGQO62w2G41Gly5dEgMHg4GsmciS9n3/+PhYANyfBEfAOKzYD1y+fFkAvV6v0Wjw/T6ZTIQQAHkULpQARkqRQ8KZbs482U0B+LK6WFMYuWnMwOm9QqgAfCmJdULIGUy2RphQQFhZrNxqj3AdQmWCMYZHaBPynLYJlcZ1fLJSI5u5zATlEyasLtb8xVHSAkLbRsWgACqsKid6mQkKoEywR2gDeIQrCZ3FiVcMUAnFy3yiGBQeq08BnsO00sZcE9RM44lkZ6bbTuMh2T6RLNdlJqwE5GpUeGUCT7NcE9RMri4Wg87VuMxkW6Nygq1RmZDrNNboLuZ9O/MwFRM6JOs4rQAPwgKNNqHnefaaWeA0tYDYC47tE9vJ/OhRDLYJykuVinfj5PDJS/P60ebj/2QzhM2C6zrOCgC2Fh9fOs4cgCYXFt5xnVUalxCCD3gj/25cRxYEY4xjHPPJ3gUAYjTGGMdRAI1nQsfJASwQ5mj0XNdx3Gq1YocVc1sFRc1MlfKs5ra6W+39gH3v2IBP5kmZ9VxKKaWUUspjJWmaciGDUi5WcIrw/nnKrOdSSimllFJKKaWUC5Ny91NKKaWUUkoppTxeUvn1X/91eUMVRRGykOTDWK/X4+yEyWQynU4lP9cY0+/3uev7YDBAZWvJeh4MBgzo9/v4SCzpsUhfZY1cOmw0GqGytWSrIUeYNaKUvuSWjkYj7gvd7/f5I/R4PA6CQAjTNB0Oh6xxOByiKrzkUSKlVwDIYpYsk+l0ilYY3rzIOvKmmRBl48UnyEpmgEOfxpGoJQBjzHA45M/eKP4tP0mSRBGORiM2Acns/IUVWcxyOZ1O0axDMsFHoxHHfTQacb+RKIpsAJuA5DUhRNYzaxyPx2iJwJngCsCdLpC4LRqR/uZSnwqU+BRClPjkz8Yo8SmESGbn9AIUJZdLVCmVIUmVUiZESwQxYTQaKY3c9QVVSoVQqpYL3jYBALk9kcWsfCIapcg4mxCGoRCi7UyWZUKI5HQOKyqrCiGSVQUfBAFyhMUnqAnOhLYJSuNsNuOZySYg65lL4yunSeF1+ZaPtGi5uZA+LyYg33Y2mwke2e5MiInBAG5cg3RaNkHV2ofTxAQprMyE3IRBiowrjXKZa4LSaJsQx7Hk7yOLWZY4ZQLaiYRhKHhoVGGNoogB3EtHOQ1Zz0g2Z0IOK6aiIlQzk01QDQowkdgnmIpyBAEAXsGUCXACP0cwr5xSHozg+YgHh0xdPPvkWAaelbyC4fEtJwwAmM1m0ukCzz4JK/YDQogTQg6lIytC7FjkUehx04Y0TVX97ziOuSdDkiQqT4jr1sM8BtgFxeM45hYKSZLYAJuQs76VRkWIljGKwTaBCZXGOI7ZJ1mW2UNSJtiAAhNyCXmE+CBdAMglVIA0TQs05oaVe2sUOy1XozJhI0JEwTZB+aQAYBPaTlNT3XaCbYIaodJozxMFUCYU+yRNUya0fQKNcqk0GmOUxtywXrgJNoAJbYAywSZkQC6hAtj4jUxQXi3WaIzJ1VhgAhjUzCwwQTkNI1SLqk3IgPuPQq5Plo0wF8BTN9cEXpGWxV0ucS8UD8nWyGk9ADAhs4mEYXj79m3poYGn79tvv20jH09JkuTOnTt8efv27YL0qdy4M8B+fNv7AUWo4sh4M+/rJ5f2DoT3D5Xf+Z3fkT+gPc9DTwaBVhe7RiCDmsuHc7F/wctfn968LrUCyKbb87x6va4ANl7+3sUf67kAJuQxV60y8/V6vbrY8aBYI/epEEIxAYQFJiiNtk8qeZXyZBUATQAAIABJREFUuQz8ShOWERZotPEFPpF65MonMmbbJ6zRtUrpK40SVsXAJuT6ZBmhu9hqQwjZhFqtxm6vLFbKz/WJwtsaVRz5AEKuCfxKz7NarGxkgjuv5a8mUoEJMkI1T5iwltc9QAC2T9gEhLXYJzah7TTbBMWwjJCdppysTFAaC5y80oRKXk8Ge54sM8GdN8ZRUbBNWEm4LKy2xmITls1MOVRYsTpprOMTvhdW+iT3bl32oJGwMgC3mxDmvvjJsixJkkajIS+Zut3uBx98cOPGDRv8GAr2qfIqZTabvf/++4eHhzUrwRmvEnPvVj7GxeuDzJPaYiML1H9hgIo7E9ZqNflQ4847qNQWdyyfzJPyzFcppZRSSimPleSe+QqC4OzsDAVpbt265XkePuZ+61vf+jTG+LBlNpvduXPn+vXrSZKcn58fHR2FYZim6dHRURRFnU7n5OTk9u3b165dGwwG/X7fcZxOp/PKK6/IfkikPPNVSimllFJKKZ8PiaLo7t27g8Hg7t27qG7K32UeeUmS5PT01HGcNE3b7TayJ5HTGcdxu91O0/T09DRJkg8//LDRaGxtbX2uqwZ4K7+6Fef9KOPtb94r03TslJSCRCI7Tcf+Am1r5MuVeT+KcM2kmWITNkokys37WWnCpkkzxVk4NsA24T7zflYSFqRr5JqwTtLM+nk/6+RC3WfSjJ2mowg3SmFZBlBhvUCNuXk/xYRpmm7kEzsXaqOkGcdKllqZprOOCfeQNLN+6lJu3s/KZCmVXVHsk3VMWJlptNKE+yEEoNgEG7BSo1wif8tZIjjpcvXq1Weeeebk5GQZ7LEVJJU/9dRTV65ckcRzW3LDqrJ21CKsdiBgYE4VVjAwYJ1EItHooYy6/EOv1+MHbb/fZ2W+7+OMleju9/s8+tFohCrpMlauVO04znA45N2J7/tK42AwYMLxeIxjI0zIgOFwyGnOYRj2ej0F4ABMJhOc6hLvDAYD9tdoNEIxe/aJAvDuBD4RQJZlw+GQ8cqE2WzW7/d5SKPRiH0ShiGP2Rhjm4CTL+ITHLVjjUEQiEYc5VMaVVjRAER8ojSOx2PlE6Ti85DYJ8i0F4Ysy5TGyWSCI1Hik+FwyPN4MpkoE5jBGAONy0yYzWbwKhMqEzAVGcCXQRAwYZZlOG7AGnHiaRkhTtJxWHHSbRkhzvpxWDG3WSObAJ8IgzEGGhmPNixCOB6PGYCDM+wTRYijOoIPwxCTH5dpmiJMTMg+SZJkNBopAC84yoQsy3CCkjWy02CCAqgVjL2aZRnO7gkeZ/2EECbgpJsQ4oQULvHnLzNAoyJUPmFCtIWRiWSbIEftxATlE8RRaVSECqAWHDbBGIOZxhptnyiAWoQVIYYkeHX3wQQbIPNkmUa5xERiQqwwCsB3KxZJBuBQp1xyCJS4ruu6rpnLMtgjKWI4pnSlUsmyTCUXQ1b6xxijZiYeVQzgJQ4zEx/UGMD7jfF4zGFN01ThB4MBz8wwDBWAH746uVUOj0GkBxCkttjfAAD+Sb1eVyXPFQAJZfKTWq1mAxShs1ga3waoLCrpIiSEnODGSZRCyABOKBafKEIu3A6fCIPruvYIcTsxoa2RTVBDsk0w1EHGo/ZVuSbYhCpMSExjE/iEPwDeYnMPOEExsEaHCurnEjrUwsYmxAhVoretUS45lVUI2au5JiiAIvQ8T/lEAWwTbI1ymesTla9XWWzuoQgx09jJ9pAKTMCBAEVoqNOFZNPLCGuL/QqURkkQXl9jdbHDiSLM1chOtjVWrTYUtgl8M9oa7TCpu1U5OVej8onSqO5Wm5DxaiLBBH7GwARFqBjUURU77rYJysmsURHmmqDwdlgZDxuFEFGwTZBLpdHNa+7BJoCQ/wYGgC8LslLq9frh4eF7772HP+bVI+8RlkqlsrOz88EHH+BVGZ4s5+fnd+7cQb88ge3t7b3zzjuu6+YenYNgiWPvYU1jgFriqtSmUBj4r1zVtgIM/BN17yhCx3H4WVlmPZdSSimllPJ4SW7WcxRFvV5vf3/fGHP79m2cWqpUKg8o6/azJnghHQSB67ppml65csUY0+l05K+yw8PDdrt9cnKCV2vYRhwfH6vNqPM5yXoudz+llFJKKaU8XpK7+ynlouRzsfspz3yVUkoppZRSSimPl1R+7dd+jWuu9/t9zpvpdrtV6pCA3DTudNHtdjktBilFXGRdtcLo9XqoWeTO20QUd7pAMqx8vE+SpNfrqdYZDn07D4IAvTWEodfrVRebPPi+L98jkTalOmNkWSYakTLMQ+r3+8iSAQA+EUCWZaq3hjIBKcNMiESwCnW6GI/HteWdLkajURiGAkDKMNuItO4KtURAKwwBoFkHhzUIAq4TrwiRcSy5QTgToTSyCcgIrlQqlXlXh+Fw6C02skCPBW/eJgIAeYOKpMjKYvcPITTG2G0luKsD0iq9xUYWCTXrQAKvt7zTxXQ6RYOCyrz8P7LtWCN3ukACLw8JmemiETnLHnW6QDcP+QvJNgFDYsBssU0Ed/NAJjgTIgnao5YIaIHCANXpAjbW5i0R7EYWqqsD0rQZwC1TkE6bWb015F4Iw1B1MFB9J+A0iQJyVxUgiiK+W3Hqgk2YUacL5GV7i20iFAA3l9ytdrOOKIp4zeSuDjgOw00bkEYtPpnNZrm9NbiRBXc4QSY4V/eHjconSiN674gJHAXklnJjCmj0Fpu6hGEoGRXQyAsO4s6dLrCoAg+N7mIDkyAIhBCAKrXOUCZAIzey4HsBWc8KMBqNZEWSfHzFIMs+sp45FamUixU8H9HlifuNDAYDbmSB/QDPzOFwyACcu+JOFzwzsR9QjSx4zcR+oNVqCaDX68mjsIq0bdnNqHOAKTVMyAUgIVz2IrgswK8ktPlV0plSkWUZZ7dlWWYz8KUxRjGoIYGwwCe2jfaQFN7zvGKN6lIBivGO5TQ8dNcfIQCKoQCfO+YCwmUD4GR+G1DsZHXcQKJWPELWWOzVlUPKNVlZvRGhjbdvFlvjShP4V3Lxy6KA0x92HBWhuvtW3p4OZT3n4vl+V0PCJWfs2qdOFN72qj1z+NdX2mj7xCYsMMGZLwgFhBvdC7i0NS7zyToaN437hRDa63yxTzbVWHxrlPIgxJ6ZxQ9T+/Ft4+1HlbpUt38BwMWfm0LNf5Q4jsN/8eM3M/ozCAC+TJLEpd6TxpiEehbmEuJvR/ER/3ULQof+4AahArBGuI8BihDGy0uFeyBMkoQPtsAnBRpBKO+KcjUyYa5GPg10ISbcA6GYAEKOo+0TRZimqQI4878PlhEqE/DMuGeNK01I09Sls3v3b4IiVCbkEq6j8T59wl61TVCE65hQQLgMUGBCLmClCRdIiOWYV7BigO0TrM73rDGX0NBbyVxChxZJAHjNtJ1mE26q0b4975NwpQn23FYAJlQaAeBLVUColIsV5P3kPr6L9wNqgxFFUbvdlryfTQmxLCvAJz1byqznUkoppZRSHisps54fqJRZz6WUUkoppZRSSimfOfG4hiPS2fg73HQ65XJGyG5TAL4MgoDLFiP7jAG+7zNhHMeKgQutOvMkRAFkWabwyKOUn8AEZvB9n99wRlEUBAF/GrQ1MmGSJDbA9okAjDF8aZuAvEgF4LrvcRzbDHyJNEn5SZZlykZFiBQ/BeDLOI5ZhU0YhiGHFT5RhCqsrMIYozQqE9I0VRMjDEMVVptBRUH5xA6TIrQ1FpiQSxhFkWiEk/lNahRFHAVlgjEmDEOFVz5BHAtM4CEZY6CRTUCTQjFBaYzjWIU11wS5VBpByH9Ag1CZoAB8mWuCArAJIOQlyzaBnWaMydWofKLWQLWCKRMAkEtoZJ9gYigTlE9sjYqQTcDEUABlggKoBUcRYkgbEfKamesTxgPAYcVUVAB1t9omKLwKKxfgBoBNwDqvAHKZLbZcKOVBCJZ9FUcua27mhxLkJ6rGNx6mfBmGoYqjIsR+QH6C/YDSKPPE4/sEp4fYAC6p7syPmTDXaDTivQj6CcgljpkwALn98hMcR+JHO44nyCUOffCNh3MrrJHXDhxHUoRsAmqu842nNOK8g/IJP3dxZINNYAZjDLehcBwHxfv5MWkD1BOCAcYYrpTvzI/eFBPyCo7a+QrAcw79B3jtsDXyaoUDFKpXBocVp0iY0NbIhHKWhwmVCTwk+7ZRJshZHibkh5Btgtr14uCMMoHDlGuCAqiZyXsL+0bFjc1PejW31R4UN7Zq96HwfKtj6VEA5RMGYK1RJvCfQ9gl2zayT5RGPMg5rOxVEPJyCY3KBAVgQqXRzM83CR4auasDjiMxQIU114RlhJnVWwN/zBSYoB7k0Mg+USs+NHJfGtUeBBrVptYOk1xiIikT+KGCPxXU3yrcTwAARahMUIQqrFjnlRP4kgmxI7QBfLcqE0DIzxGeNkJbfHn/AGdRPoOEF+ITd94uQ90LeHwzmNdMLDg2QL3s4LBmWabwOBAtl3j28Qi5I0rlO9/5Dn+f8xbrphtjVI+CarUqB9phpKpmjZ4DXMVcAVStelX13CbEF0T+iRqharOAOusKv8wEm9A2wbPaa9jl9hUhH2jHCJVPFEB1OUChdwDwQxtv+0QBRKMxxlusBI8hKZ+o+ve2RuUT5VW7mL1SkauRCW2AajkiI8QPbY1sgmvV11eEXl7bBD4rpwidvKkrJsDJDMgNqyLMHSGbkDvCAhNW+oRtNMYUEOKHXNfAGGOHFRMj1ycSBVXMni+VCWqEuSbYGu2bqyCsPNNc17UJPc9TPmEAnKDw7HaYoBZVNkERiglyqaauTZgbVlsjm6CcYOM5rCsJ2Wl4CniLvSNyJxID3MWuJkqjIpQw2StMsQkMcK22J/z/61zeP8BZlM8g4UX5xJsXUMCjCj+UJxH/irr98fiWf8UOZm9vT35ih1URSl8XDMbWKE+uMuu5lFJKKaWUx0vKrOcHKmXWcymllFJKKaWUUspnTsrdTymllFJKKaWU8niJ7nQxGAy4c0Wv15OS6o7jTKdT1BeXXAfVyGIwGKD6EH6CytaqMQW+CLrz8v+q00W/3+fPt6PRKI5jyapJkmQwGHCazmAwQPoCfoJS2ZySMhgM2ATkZQthmqaq7wSSprn8v02IulsAIOVQvmFnWTYYDFSnC9SEFJ+g7wQDnMVOF5PJpKDTxXg8jqKI68TbjSnYBORlVxcbU6iwco8F5KYxAJli7BMboEzwfV9GiNw0r7DThSJEInmFmnVwdX9kw7lUbw2pqWIC0u3dxVYYXOMRXR285Z0ukK/nLZb/d5Z3uoAJSiMXmUT6rYwZqeVmsbcGm2B3ukCuq/KJS50u7MYUbAIyQzOr7wSHlW1E0iITIqzsE1ujMoGbNgCgmnWwCUgt5/JlcBqbgAR/bkyh2sgguZVN4EYW0Ogt73SBTHAZIfJz2WnQyI0pVPcPeJUJ0TJFZmZxpws59iI+UYTIWVYmqDYRQRDwgsMmILc0DENuTKE6XajeGvAqtxtiE8wanS6QzK4IlU/YBAC4Q4KamTiUwI0suBOObQIA3OkC88op5cEIno+qgQmefc1mE5d4VvIKFgTBaDTiTheDwYA7XageLGmaojcXLo0x2A/w3cqE2LHIo9BTWWBqQqi0plyAbfOyXxc8Z88VE9oDWAkoHoPSuM4ANhqh/RN7PCudbDNspHElYe6vFwDsAawZ6GWAdXyiSNbhX+kEZdT6Tlvp85Ua1xwha8wdoRrSpiYUuNG1bo37tMhZFaZ7UHGfE095daVP7p9wTRtZxT3MzJWDvB+N6zjB9slK/PpRsP+1eEj3EFZIFEV37tzh02cXIkEQvPvuu3I5m81OT0/b7fbFankIkiTJ3bt31eWy1OGVM99Z79GmLtWvrDPTlgF01rOhpl32pS2bAmz8w9f42Se8T42lk9chfARM2JRwpdw/w4Mm/CzIfQZOTgXfM6H9rxdLuNKECye8fxM2JczNeo7juN/v7+3tyfuJC5EwDM/Pz69du4bLIAjeeuuter3+/PPPX6CWhyDoKnrlyhVcRlH0xhtvPPfcc/JyRWRZ1vOmYV2Z9Xw/86SqoOtskO8HsM4W/kFr/OwT3qfG0snrED4CJmxKuFIufKfy6G19nPsO3MqpuKnGCye0AQ+a8P5NWJPQGJMkSRRFrvUWwXGcNE1RrHI4HMq7md3d3clkUq1Wn3nm/2fvzZbkyLbsMPeYIzIjByAx1YChZja7qi/brlkbTWa0Jk00PeiVD/oO0bof2c2f4F9IpuFNLzJKYlNkT/e2mqy6fWvEmAASGfPokx5Wxb4r1/bwiAQSKKDg+6H7etbC2mfvc/wcD/c9fBBFEd7itNvt27dv9/v9Bw8eoHbinTt3arXa3bt3a7XapUuXbty4wbQoItXv9+/duxcEQa/XY8BrIngp9f7778dxfHJycnh4iHpgBwcHy+Xy2bNnV69eRTnTwWAwGAzw0fNcKi58E3uRdVJ++CyllFJKKeVnLgjds2K2uafmYrF48ODBcDh8+vTpvXv3six78uTJgwcPsiw7OTl59uxZGIa1Wi2Kort3745Go4cPHyK05dtvv10sFj/88EMURVEUffPNN1IK/+uvv8b3L7QiPu9Dw6uROI4fPnwYBEGSJI8fP0YsY7/fD4JgsVg8fvw4juMHDx7EcXzv3j2Ebb3RVQNqs9nM3vIh1uzg4MBWxmAw6HQ6HLQYx3G32zVAv9/f39+3y9FoVK1WLW4aUYpMiBhnifjb29vjEODd3V0OUg7DsNPpgCFJktFoxPjhcNhoNCycDRF/Auh0Ohxbmqbpzs6OBeSORqNut8sxxbVazQKxUTi12+1yQG6r1eJo1iiKdnd3LUh5NBrt7OwwvlKptNttCwWdTqds42g0ajQaFoiNHx/C0Ol0OMI3y7JOp2Mxg5PJZGdnh+Nta7Wa+QTFZBkAEzg0LEmSdrvNMYPitDAMW62WRfjOZjNeGOPxuNFoWFwkOiq0222OZmWNqNfZarWgEf0H2u02A7hqJRogCAM02srMsswIUd+WVxpiXS16HaX3BVCv1zmcNkkSTHSwitzENJlGmGDTOpvNms2mhfghNNVMQCeNZrOJMaO6P6bJNKZpyibMZjOsbQOEVDsUPmk2mxZ8iuhaxrMJ+AGKtW2AgGp/oWuE12h4TKvNAkxAtVIDwARbmQi/ZUCWZbbhiAkoChyGoQHgNDMBhLVajQGYd/gEXSPq9TpMQHhsEASsMYoimwX4pFKp2Kv7xWIBp9m0IsPATMBvX94zEV1rJsBpTIh7waYVGQY8pCRJDC8moGkD7nfTiHuBpzUMw52dHQNEUWR7ppiA3+tJkhgefSpsWq0O8u7uLg+JNxxvAvbALMvwIgQ3i60TNFQ3E+I4xrzbhoOXMUYIgOExJLs9UQEvjmMzAQC7dzCGNE3BAJMR2Q2ltVpNeoOLVKvVy5cvf/zxx2EYLpfLDz/88Lvvvuv1eru7u8jVQPB7rVZbLBbdbvf27dvtdvvu3bvvvfceUi5ms5k50Lz09OnTP/7jP5a2G2+c4Dnyiy++mM/njx8/XgdDHgavTBxVCGEOVodvq9Xiu3WxWBwcHBgD94oAYRAE5lg8Dwi+2Wzy3TqdTg8PDxlgR2FFelpJwFduQyg2j/u/BKti/Owm6QuG/i/2FynKDgBf4lHA/oLNRTRyhwRLcGAAX8IEdqjvosU+gQnSdUt8wio8oTdBCL0JzIA1Ia3KuJsSfOIJeVr9kIpN8BrFJ+KExWIhJrw4obQq84SiUXwiGnEkiE8EsJFQGoFhh2UTpBEYX8KEAqdJk6zctlziNN/sTNpyFZsQRVEBoZ0xbAKvHBzMBRpxqokJfloLWpVBI5sgjcBwTAphQZ8vmQVPKH2+/CzAaQU+8Rq3McEuc2dBGoF5EwRQbAIA6wgxC8WEbEKWZZhopHohqRYPB9FK8CvXLrHhRCTFAFxibUAwQgGs04hf9dgDke8jPvdiv1tqqzr+lUplOp3evXsXv2qyLMNDcxRFe3t7n3zyCf5hvV7vdrsff/wxV9Z+gyRcNanAgqlWq2maYhEKMjvb48JL5lrl4OxjjOyZ0dmWKfbrxWR5tmEcTlu5jM62tBONfPjWOL+90WjYYxRkb2+PH5A7nQ4XjQ7DkF/8BEGA10K/iyqq1fjFjxHaX/ALhr+/8mubIAh2dnaYsFqt7u/vM6Db7XJZevwK5ILo/NoGJqRpylXnRSPeAxlhvV7f398XQjah3W5LhfW9vT3G7+7u8jfmWq3mCflWwa8TLv6NHxzsk4Bi3UHIALxY4mkVjbu7uzyt7XbbfoeBWYaEWTCNjUZDFoZoxO9IYwAh48WEer0uhHg5Z4T2i818srOzIyZkWWYm1Go10YifwgUm8Nu1YDWt9pdqtSqzgJ+VBSbYb2UzgSMBYYJoFBNEI25VnlbO2Pca8aPKADCBNeIXEpvAGvFbnG9eMaFardo7VCPkmwsmeBvXTSuOE69RfCJeZUIcVHzvSPgqNBaYgNdCBSZAo13KLFSrVYkA9SbkarRLmQW8Ni7WiNuTAXwzigl4fcgaG40G3yyVSmVnZ8drZJ+wCeGqOcliscA9iycGa0yRZVm9Xk/T1M4OvEPlKiHYw+3FKgCGR7q+LRUQJkkiAK4SUqvVsiyzlwr21idJkizL+CXuOvGfxuyHq7x4Q4WRS5cu3bx5Ey8vO52OvX4wabVaV65c+fWvf91sNofDob0CeX0EU3///n08xGPtPX369NGjR9PplE/hbrf7ww8/IIhqHRtOLnYjjioG8MmFu5XvtTAMu90uPr1BZGVWKhUh5E0YS10eafgoLDtdlFJKKaWU8pyCd0v4NCYNlV4rwVFtrzOl5xdkPp8/e/Zsd3c3juM4ji9fvozyb4eHhyhlV6lUTk9Pcb7u7+9/++23+KI3m82uX79+eHj44MEDPDTcunXLaKfT6cOHDz/44IPBYPDgwQP8Mjw4OLh8+fKr9MBGQWE2POgkSXLt2rUgCJ48eWIPKJcvX378+PGNGzeGwyEiOoIguHr1qv+G+EZ0uiiffkoppZRSSnlOQb3H3Lcdr6HgGSiKohfPRuz1en/913999erVMAyHw+H7779vOe14jEDWWLVaPTg4uHTp0osO/Y2SN+Lpp8LhIPiCK7r5RVOaph4glxdOeF6NHPKypUbBexM2EhYDNhIyYBtC/stGwhc34SX5pMCEjU7jf/6SCJ9Do8xj8bS+DBP8AJgwFyCE25tw4YTbaCwmfBkmbGPj9tPkRwgV25vgCdOze9qFEHrAOkKsMf6Q9Bw+8Sb4y4JtfEtAEARhGNbrdUvIeBHpdDoff/xxq9VqtVrvvPPO9evX+b/iOzvkZ1n3YRt5jucB+ZTG/zw4//NAWnjcVzgmaLFYPHv2jEeDOtN2OZ1OkeVvxvR6PVY2HA6RkYTLKIpOT08Z0O/3OYBuNpt5AA8XOYoGiONYNA4GA2Qo4HI+nwvhYDBgh04mE3ymNV/0+30xgQOjUP+Kh4TmG6YRPuG9YDAYCJ5NiKLIE7JP0G+EgxCHw2GxT/BW1gCj0YhjhBeLhQfItKKBgPkE3TlYI3oamE9kYYzHY5lWNMcwQtE4mUzEJ4PBgAPrkJhqgPl8PhwOOZwNiaZsAjpLmE8wTUzI04qSHgLgAD30G2ETME1sAsfXL5fLwWAgAFmZ7IQ0TTFNxSYIgKPX0W/ENGZZhur+bMJoNBITmBCdK9gEIUSDAsPDBHNamqaYJnEamzAajTgsEZ0r7BL9RkxjmqaITmWNPAsg5C0LHQ/MyQi8ZcLpdCpbHM8CVqYAeFqjKJJpgkYhNJ8kSYKFISaIT7xGu8w1AX0eWKPcXAKQm4tNyLIMQ2KNfLNgWkejEQOKTcBitssoinghwQQ0w+Eh8YYzGo3ECTxCaDQT0jTFUhSN7JPJZMIAMNg6SS4i66rZbN66deuTTz75+OOP79y5w89/iEf58MMPP/zww9u3b1vO0VslWBUyj71ejwH9fp9X5mw28wB+3pCVmSQJ47Ms6/f7NrNZli0Wi9PTUwb0ej1bJzUOMpIgyiAIOKB4GwDH9xleABy5WalU5P2Y8IPN8CH1UTI8hxCC0GtkgMRVeUKOGQSAGaw9jV1u9AlfekJvggeITzKK9Fw3wmKAXAZno/xkSNsQep8wXjT68uSegTV6nwge4AKNHn8uQO4I2WnAexOYcKPTxAQ/C4G7F0TFuUxA6opd5tro7x0OdxWNfGcZIf8RS3cd4ZYmyA7DGv0IZUjb+ET2Bw8QQlnq8lvfa5RZk0Hm+sRvwsU3F/8F+AIbPUCmSVTABMstT9NUJiV3ZXqvFpggPpFZgJMLDpowr9WGEAqglAsXf0xseXwzXu5fWZmBOxz5CQSzXHA6l3E/pZRSSimlPI8krmDSmyJJXqeLUi5K3oy4n5dBWkoppZRSSimllPLaSvn0U0oppZRSSimlvF1S/df/+l9z34l+v88lzk5PT/mbLqJfra58lmWnp6eMR3StRd5EUdTv9w0fBEGv1+OvvIiGEwAXD0Q4nnWBQNgU4xEVxX0nBoOBFe8HQExAA4Fw1Tqj3++zRgRBGyHCY4WQI/knk8l0OuXKXf1+nwumIYKYfTIYDAQQUIwFQke5ctdgMODvowiKtL/EcQyA2YiwbjMBEYIMGAwG7BPE59qXdYTHMgARhewTD2ATEGpqI0zTdDgc8qd6BIoaAHGXTDgajRBPYD5B7wurnzYajfirMAJ+zQSEDPNnZgSKsgmoV8GAgL4iI8TYxozATCYcj8fL5dI0wgQBJEnCKxMdCSxgYjweY+nmmoDI0CzLuLkHmzCfz1FI3krAITKdu3+wCXEcIxiWCaMoYp8gRNEIp9MpEyJKmn3iNYoJsJEBuBdwKSYg6plbEMBpbAKiZbkhyXK5tJsLVX3NqzAhiiLe4tDzhH0igPl8bj5B7XhxAnYkXCJm2UxIkmQ6nTIAUdK8MhHHLRqhqmn/AAAgAElEQVTt0gJ+zSfwqpXSQfF+MQGNIwyABiNsgs07op7n87nhoVGmlTXCq0YIjfBJtkog5wEgcJunFeHzotG2OG8CNNolFhL7BEvRcuwBsP3BmwCAdYlBVwOLtLPjjMMHEVvJoXjFAL68KMLgbERjAf65NT434TqAXYZhiH2eZ2EwGFgB0jRN8TxgdyvSZewrKg7TKIpQ0hDbPk8rop4Nj6hn3nCEEFHPdhRWOD88TVP5FMq1/ANXlB0AjkKKoohzi9I0XZxt5yaE/uOrJ+TS+FmWCWC5XHI+FAgFIIQbAd4nPOYoirxPzksogGIT2APeJ+sIiwEFJsDJAij2SRzHMq2sIssyr5EJPUB8kqZpMQBbMI/Qa2SfyAgNsI4QI5Rp8k4WBj+txSZ4n3jC7TVuJEySRKY110a+9NPqAULIG4I4DXhOb/R4P8ICgCf0syAmwEvn8ongvU88oMAEyfIVjX6EAMi0cvgmAHwpHUvEBLlZ7IGm2CfnNcGPsMBpYsK6lSY28haXq5EJJeU+2CTnwlwU4avXKIQF/yTLstz/KkchT2vmOmb4afUPDHwp0yqEuOSFl/sEYiMM0TUQF1giXK+Tf6AHq0OOU/v4QQzGhPTzF4T2ogWE/BMfe5MAOGkLptpPMZhXQIgbVQBsAjYOU4H7SjSG9HYq1wTvE2YoNgE7hQD4vQhOCAFwpHouodjIb6dAKADOocDWxk6GRsaLT3I18rTi5ZO9vorjuEDjhZuQS8gmgFCWYkgvk1A3wlTABLExoNdd0PiChH4WhJA1bjQBhD+hCSi2wRsCjhy+TNPUGLJVORABiMYCQmj0Np6XkH1SbIJoXGfC9j7ZSAiAmBAEgf3eBUA0yg7DrwCfjxAmJEmCtoncgVgWkj1qrCNcp1Eu2SfINRONvOHkarRL/zhVysVKrVar1Wp+WvkBw29xOL4ZsFgsTk5OLOoZZx/PI79bCoIADTr45mLCIAjQQhjrpMz5KqWUUkop5XkkKXO+SsmTMuerlFJKKaWUUkop5bWTCr/7QSwYf7ebzWb8ehD95QXAl/P5nB+oEZ4meP4QGEWRB/DlYrHgIsKecD6fF5vAJYO9CVmWeY38WR0/bphhPp+zT6IoEkLRuFgs+FsjTBBC9kkcx8LgCcUnHsDf6eM4Fo2LxUKmdbFY8Gf4YhPgE2YQwiiKhNBrFELx6nK55FmATwo0ignwybkI5RN1rgkMyDVBAJ6Qv0kLISLSxAQBeBMMgJfABSbgEzjfLBIDl2uC3FxiggA8odd4LkIACkyQ8CxoZJ8UawQhb1kSA5drguC9CR5QbALjc03wACEUgDeBCXM1sk9wNwmANxwxQcI15HaGCZ6w2ATGy70AE7xGvlvFBIn/kDCgUl6GYIvzzwMM8FucBzCnn1bBz2Yz/zzADHwUVvjsR1cHhkrHA2RUsTIuRB0EAQqW8wbd6/UYIG0i5vO571zBZxKyzPhO9o0ppE2E7yPB/kUFdL7xRCNq84tPBCCdLrgTRZZlntB3dRAbxQQGZFnGhe2DVZsIAyRJIt080H+ATRCAEEqDgiRJuK1EsMprMxNAyACkbLAJ7PY0TX2nC26dEcexJ2QTpLp/lmXIV2IThFBaYaCFgpggADZBOl2kaQobDY+8NtOIaeU7E3kubAITZnmNKbwJvtMFT6u3UfpOIIUKl0mS+G4e4hPusYCthPHSrAOEvgtEgQnz+ZxN8J0uYCPjz9XpIooiMcF3upAGJljbDOBOF3Eci43IqLJLmYUkSUQj0pfYJ2i6woR8KSbAJ74LhMyC73TBm7CfJiaERiPEUpdWGNLpQkyIosgTLql1Bu4mAfCGg32eAQWdLrAyfSMLmVZphXHhnS5KKRacXDyt2OcZwHsmnnWkcwUSae1SOl2kadrv9wXP6wRdnhjAPZpqHF1bq9Xk82273baIpICijSBhGHK6exAErVZLClcLAO3lWKMH8CXilewvnrDVanEp63q93ul0eAwypEajUT1bZL3dbjOg2WzKCIWw2WyyTxAQzYSiEdnyBqhWq7ka2QRmyCXMssz+UqlUPMA72Q9JfCIaxUY2AYQMEJ9gnTChd1rgptUTskbxCcbMGtmESqXiNYoJ3kbWiMg4MYGnSUyoVquyFLmMQrCKWi0g9Cb4tc0rLVej4NkE+EQAGbVMEUI4me+1Wq3GXq1UKl4j+7BarTabTd40AOZZ4CHlamSn+Wmtne1LA41CGJBAIxPmThOvTHGa1Ob3PpFOO9VqlVXkmiB4bwL/3gOANXJQpw1pnU/WaTRCrEz+yeqdJiZUzvYTwEJiQi7wYQAh9ENifo6qBiGb7AlzncaEFxKVEqzO+NPT09u3b5/rHyar7odXrlwJVkf7ycnJnTt3LmRgL0PiOH727Nm1a9dwmSTJ06dPL1++nOtMnCM8rZhHAcgGYvnwEFmrjUaDVyaObyHkdYKjign5oCmjnksppZRSSnkeKaOeEZb79ddf//Ef//E6DF5W9fv9d955h/8h3pBdvXo1CII0TY+Pj7/66qt/8S/+xYuP6iWJPP0sFosvv/zyk08+8bOPBD3psXVewbscvNF4EZ518kKDK6WUUkoppZSfh8zn80ePHiGYrNlsvvvuu3ivU6lUrl69mmXZ/fv38ah38+bN2Wx29+7dIAjwcWc8Hj958uSDDz6YTqcPHz784IMPRqPR3bt3G43Gzs7OycnJgwcPsix79913TR2KVkyn0++//z4MQ4lQefUSRdGTJ0/effddPOUcHBwgPGt/fx8RIEdHR6hmMhwOh8Nh5ur3mOBVVhAE7XZb3k1uL3hC3d3dfX6TCqXM+SqllFJKKaWUYD6ff//99ycnJ8vl8vHjx/fv3z8+Pv76668RQPbdd9/NZrP5fP7gwYPj4+Pj4+MnT55YxaPxePzNN98EQTCdTr/++uv5fP7NN98gaBVR21mW8VebOI5PTk7u3r3LPD+d6T8O6f79+0EQJElyfHyM4EgE4iwWCzwX3rt3D/8X5kgtQRN8dUJmBoK6ONJ0o+C5ZzQayTfWi5WKxN89e/aMZ6jf70ukJ4c5Z1nmg5ol6vn09FSCmjnCdzabCaDf7/uQYY5W81HSHFs6n889oUQEoxEELhE2JVHSHEfpo54RLctRzxyknBtGLVHPvV6Ph+QDt3lIePsnJnDMYBzHYiMiBDm2VAAS1CyB2wijZgCC1zg8lmPHglXzDZ5WiXoWjQir5JBhWWloSCJh1MaAb+2yMiUwU4KaEadpJsAnApCIYI6jROA2AyRwGz4RgKxMNgGxpRIlLSZwBF/gop7Rg4VjBn3UM5sAQt5hEZ/L0yoxgwjcNjxM4AhfTBNrZJ9EUSQaEWdtl2iZwhG+CE5njd4E3rKgUSLBxQSJkuZZwNcHDsxERDDfrUiDYI2yZ0rUswTwAiCR4D7O2i4xCxL1LDHIEuGLHYYJZcPhWUBsqRCKTyS2FBo5ElxMWK66c7BGMUFikGXDEROg0S7lXshWLRGEUHIUPEDSYIM8qdfr77zzzu/93u8dHR09ePAgDMP9/f1PPvmkXq8/ffr093//9z/77LNut/v999+fnp6+//77n3766Y0bN4QEI3z8+PHnn3/+2Wef3bhx4+rVq1evXvV1a5bL5bNnz9bxvJ6C+bp169b169cL3uugBCXCz09PT09OTk5PTx8/fjxeyWg0evz4ca/Xs8vT09NHjx71ej3r0oPXYyDEts8LA88DdomgZtlATk9PGdDr9X4X9cwPCtmqrqiJPK+hYqYAOHASNUCLCflpyRP6yzAMTUV2tkJ5sKpbyoSiQvCi0Y8wSZJKpcIaz0XoASAs1igmeAa5DM6KB1Sr1QKnpWkql/IXjw/OFkEvHuFGE9jedYQyC+cyIRfvNYrbC0x4PkK+F3KdzD9rtjGB7wVPmKYpr7RcwLlmQQC5hN5GIRQbhfBcGrNVkV9Wwf8cGi3aAHix0RN6gBAW3L/rpqnYhGKnyV/8paxMIfQjzL1ZBF9wL2SuL4Ts88HZTSnXJwVD2sYEGUDuNBWvE7+01r1UYP5arWZfXnD34X9gtPJ/8V8toog9EIahDIAlXMk6wCsTLjQfBEG1WsVP/dwvXNsMuLJq+VdZNZH002R/sVlD2FCr1To9PS3YwYK8BwbzM+ZRnmEYHy4WC7u3MRpeE7jzOeUso2yjIG8HDyhHwwM8odd4LkLcNhdLyICNPvGEMqRcQmHwJhQAttF44YRiQrZqd7dOYzHgJyE8l0bgX6UJAnhxE1424UvyyXPM4wvO+7kIX1AjLi9Q44UTbukTAPC9JjybOXtewlc2C3yZnO0UBun3+3/zN39Tr9e73e54PL5x4wbKuf3iF7+YTCa//e1v4ziu1+vT6fTWrVuTyeThw4dXrlzBe6nPP//8r/7qrz788MN+v3///v1/+S//5ZdffpkkycHBwcHBQRzHv/71rz///PP3338fuhaLxffff9/v94+Oju7fv3/lyhW8hvwJo54Xi8Vvf/vbw8PDJEnu37//B3/wB8vl8t69e1euXMEbzc8+++xXv/rVH/7hH3711VcHBwdZlj148OAXv/hFbtQzwqfsoafT6SAR72Uf39sTljlfpZRSSimlPI/8zHK++v3+r371q52dnVar1Wq1bt68iS90169fT9N0OBzeu3evUqns7OzcvHkT0crVahWFHm7cuIFoGPzU/OijjwaDwQ8//NBoNK5cudLpdL755puDg4ObN2/aAHq93nK53N/f/+6778BTqVQ++OCDV+6MHyVN08FgMJlMwjBMkgRf4o6Pj+1l6pUrVx49evTuu+8OBoPBYFCr1bIsu379em7G+2w2g1EvNXbnRaR8+imllFJKKeV55Of39PPll19++OGHyEK/cEHEdBAEYRh2Op3r16+/DC2vg+D1zHNne70aqf7pn/6pPdmhZCcXHBuNRlyBbT6fz+dzLuc1Go0Yj5hHq1CEADoGjMfjkLpGo86paGT+6XTKHc7TNB2PxwxATLRVPENlVQGwCbPZDE3ajXAymXBJJcQ8GmEURdPplAnxaGwmwCfcr3gymbDG6XSKjscAIBCMa6Yh5tG+TC2XSzw1M0AI0RrXnDydTgXgTWCN0+k0DEOeVrTGxV/SNJ1Op1woDwV8bYQwQTSyCejFYQBPiIYn7BOvkU1AfxIBBEHAs8Am2At5A6A1h40QJdUFgIVkK1N8gmA61ogO52yCAPiDI2q0m9uzVYsVxltnezNBCPHa1kyYz+dmQpZlCLJeZ0KSJB7AJoDQa7T9AdPKPoGNDOCVidjSjBqYo6OCXWJaxQQmhNPEBBmSLCS2MVu1ExGNBYToUyGEMiTsSLiUWUhXPRns1zCaPGzUaHgLyGUToigSQltIyao/CQN4ixMTslU7EcazT2CC18gbjpmQZVkcx8iCFhN4WrEUGeBngU0AwC7lXshWjSyslCU08oYjJoCQDyb4MHBSrVb39vakSOZFCbIx8N2wVqt1u92XoeV1ELz1wT7PszCZTLiFOz8PYFqn06kA7OTKVo0suGn8eDxmPHIg+ObyGm2dVDhVB4HxbANXhQ9ciXRwZRSFJEkiqInOADQosL9IekKweviwSySJGB7R5qKRH+ElPSFYPZCxCZzSBfcxfjqdsk+Q4MAMSN5jE3jMmAAhFBO8Rn4DhwQKIRQTuEEBCBkAn5hGrACeRzyQ2SWeQY0QT4RMiDxPXieyMKS7ChYxx+qLRjwymkbcFcyApxkxgQmlYZz3iZg8n89lqQsAJvC0sgqYICNkE0DoTRCfcFrK/GyLOmhkE2Rt4+GDfeKHJHhux4ZnUM4yE0LMgjFkrk0PHqM5bQ2/JdhG9slGEzwhpokJeRZAyAAczEIoJgieCWECb1nLs30AvQnSacgT5pogPvEmCCH7ZLFY8Ahho0wr57lEZ5snigk4YxiPB3fxiQDEBGmBIilUIBQTOEcMAN5wRKP0ewK+wATYyD7BPi8Au0zPtv0ywdeul1dgptVqffzxxx9//PFHH33ElQ9/loI9U6aJM/twtMnN5QHyPCDzyClgeCCRdcKAIAj4rKz+m3/zb6QIOr+JCcOQy7SHYYjO9eEqyj08W5wel/aIjcc6D+Ai6KhBLgC+rNfrrLFytiy6EdpfpNC7N6Fer/shFZuQq5F9UkAYBEGj0RATZEi+D4MxwMlcKl58Erhq+gCYT8wEDhbz01o87/V63U+rmCA+sTGvM4FfuQlhcLZtgo2wgLBWq/H7rVyfiEaoEKfZANiEYFUdX2z0Pinow5DrExkAT+s2Gj1gnQlYeN7GdYQYoSfMXWnrRoilLvc7t3HI1Sg7ksyCtNcongUh9CsTPvFDWudk01gwQtHIhMFq4QmAL9lp3idGKCZw7EWxCfaXXMJgtfA8QFamvfupnO1EEZy9ucyEghGu05jrk3UAPwueISDhLbqUi5VKpYJXLDKtMgu50yo9SfzBxAupgBD/Cs8DBgjD0I7CMu6nlFJKKaWU55GfWdxPKRcl8rD7ekpZ67mUUkoppZRSSnm7pMIxNFleSaiNgAL8RsCrJzyvxlfgE6ufsb0JnlAYPKH85WUTpoV19rYhLAY8xzQ9h8aLJcz9ywX6pJjwJ9H4NhC++lk410J6Po28+LdxmuBfMWGwZgsqBgSlvGTJnWi5LJ7Wl3F82/+uzWYze2mJEKHLly/bZ7bBYLC7u2uvsBDLtr+/H67ym/r9/uHhoeGRI7azsxOuskiGw+Hh4aF9jh0Oh+12277kIVj14ODAAIPBYG9vzz4EIiZ8d3c3XOUvDIdDxg+Hw2az2Wq1wlW20WQyOTg4MIbhcLi7u2tfzRE82+12LTtANCLprN1umwnj8Xh/f58B7XbbPlrDJ91u15I+BoNBt9s1jTBhZ2ensqp6ORqN9vb2DIBuJuYTBDnamLMsG41GOzs7TJhl2c7ODjQiLps1wgTzCcJjeR7NBJvWJEmMEKHlOzs7BhiPx5VKxQqaIcJ3Z2fHPrgi8N4uEX5rY0ZsGubdZiEIgna7bSZMJhOUwzLCWq3G07pYLDqdDoaUZRki+Q2PIMp2uw2NCLfnBnuTyQTRCTABUZMMQHKiXSKU1byEMOpms2kABN+1Wi2YgFhUlAkxAEeMIcbZCBFajmkyjWmatlotmGAamTAMQzZhPp+3Wi0MCT6B04wwSRLzCQixtg2QZRlP62w2E42Yd1wOR5Pvjk9H86QGE5J0sZhXKtVm60efLBeLJE2bjWalWsEsLBaLeq3WaP4OEATB7y6XyyiK7EN+lqbzxaISVpgwThIL9EGqDubRAFkWNJo/3jtxFC2jCMFJwSrqGdNkGuM4NkKYEDLhcpkkSavZDCs/mrBcLmvVKpuQZpnhoyhCEkrdfLJcYG0bII6ixqrkSZIky8XCa2y32wc7rZtX9+uVbD6fNxoNABARnGWZheIi7NoWEiKCwzC0BCJ4lTfh2Wxm855lGRKsDI+cr1arBadZgDADcPfZ3YocUjs4oihK09TwANjKtDy4vb09A8xmM95wkEgrQ2I8UoHgE5iASjmGn06nvOFgQzAGOKHb7do5AhNsV0/TlDP7slWZcjvaUKRYAHIZUg5pLoCzVnMJRWNACZgbNaZpmiSJbdrnNQFuKSCEGznVF4WVGcD5lcgoqlQqtnRx9l26dMkAg8Gg3W7btCL4/fLlywyw0zlbZVnZtCZJMhgMjDDLssFg0Gq17O7D84AR4onFDl/t8X7eQLCXHTjm+S9W44v/AkBM38a/FFw+n9JzEfohnYt/S0xGPU9+8ojC85qQu9J+citethQY6G+NeRT/x68e/qffHP/44yfI0jQNg9+VTkjTNAuySqUSBj/+OkrTNAzPAAIq1ZpmaZZmlUoYhvhLlhQTBlmaFBH+qLESVsJijZW1JmRplmXVSiUwEzId0lmNaUomeMIsS9PsrAkOkGVBpVL5xYfX/4d//vuHna2iJfhGe45VWvxPwlXThnX/5MLvi417Zu4/kb+cazMH2H5NLZdLPsgRFWTBK2maIrHfjlUALH4WlaPx4wSEURThodbwSNE3jUmSeEKL2E3TFCmo9pSMB/ECQjxG2yMpABZfDxP8kOwSeXAWSw4T4jg2QjzF2oM+TGCNANhP1lzZeDK+yieKMuq5lFJK2UqG08W/+9/+8n/+D1/+1AP5eco//4M7/+O/+qfXDnZ+6oGcQ97cqOdSSimjnksppZRSSimllLdLyqefUkoppZRSSinl7ZIKV05cLBbPnj3jr6f9fp8/jU0mEyvUHQRBlmW9Xo/xw+EQpaZxGUXR6ekpR1n3+32uzTqdTj2AqwyPRiOuFh3Hca/XY/xgMODarPP5/PT0lBkGgwGX9B2Px8PhkMuMisbhcMjFoJfLZa/XE0IuQzydTgeDAZch5ksQcu3mKIp6vR4PaTgcsk/m8zkPCYRiApefjuO43+8zYDQacbHXxWIhgOFwyNM6nU6ZEKFkDBiPx1ybFT5hwGg0YhNms9lwOOTqsaJxPB5zzc0oivr9PpffGI/HMq3MgEhwxk+nUy4/jeh4IWQT4BMBcPnX2Ww2Go24yjBsNMBkMuHy08vlEmubAWLCaDTiAriiESbwtKJ3NAO45O5iscDKMZ9AI+O9CQKQafUa+XI+ny+jskTKyxXMgk0rAni5wj5yU2whYVq5Qi4K6PMmzNOKkGHGQyMTYocRjbZOkGbBB4eU6I2iaDAYiAlMiOhX3nDEBCnRK/cCwmO5LQFs5A1HTIBGPkewz7NPmBAtKWx/QI7CYDCQIZlPkiTB2WeE8KrhsamyCTg4BMDlqr0Jgu/3+1ZJGSb0+30ByIYjQ2I8dmn2CTZJBvCeCRM8wJwMQp5WHN+C5x1sNpudnp4ygA9fbPvskyRJmBBBzVxdGs8DDODDt8IHOSLh+WmGy4cHq0wZAfClVEDHug9IpEEBYvULCKU0PjzOAGkXgOwhGVKBCesI7S/IgODnLfS4KSDkIypwPRaQxCEA8YkH8KX4BITSCoN7cSDDggFot8QmsAo/QtGIj/0FhEjZMAbcmYLnhZdLyLPwfCawV5EII4TS7oOdhswavvFkmtCeSUyQdh98CZ94G4WQ91NvAj+uoXWREMpCYhNS11sDDaHW+SRbNYT6ncYoZnUm1y/t/tFn7928uu//UynnFcSiyixIWwlZ6tLNAwy8MmWlSW+NZNVmyzTmEopGJgSDXPK9g9tTAMUmeDyPUEzA2ualLhoBkEt/N60jzFxvDQB4E5YOJ8mqN5kB5OaSbh7pqmueAcQn6arVIF/yD0IhlF3Xm4CjSvDik2ITigmD1cGxzifZqm+X/QXPA8zgTyKZJsZnZ/sRZVmG5wEh/F2ni3/7b/+tZbghQZfrRktTCBSN5sLV3BQCeMsBDoIAXSkEwC0XjJABfAmApe2hjrXguVQ2smF5zLmEXBpfCJEuW6yRS6rDaVy1nZuBmMmm0RNK9wBPuNEE8aER4i+o/V/gE2gsHqHMAjTyPIpPpLmHOA0jFI3sBDEBGrn7h9fop1W8ytNqPvEa+VJM8IBiE7i9gEzrOqcVEFrvjlwTvE/EBFSdL/CJaAxdA4Qozf7268e/uf8sOCtX9nduXzscz5cng2lQyvPKneuH//T33u92mpg1nlbZ4vzKbK4y6gNqkFIwrbmErFEIpfmP7bo4YFDlhPsV+JXJ/UlC17/ImyAj9HefN9nfraZRGqSIRvMJA3jPhAlWjcIY5G5lQq8xd8MRgJwjubPAl79r2rDqESEjZBPsJBITtvdJ7iz4abUlnTut6wjNBGbInYV1hMCzT6QHi/qkzPkqpZRStpF1OV8f3Dj8x7eufv+436zXrh3uBEFQrVR641m33axVK//fd4/vPul/8t7RP751tVIJfnv/9LcPn717ee+T9y7vtBuVMPwv3z95Npr+o/evXNpr//B48F9/eHKw2/rig+vdduO7497ff/9kPHsrPreVOV+llPIqRev9lFJKKaWcS9492vtvfv9mrVq5ff3wFx9e//64987R3ni27I1m71/dP9ht/U//9+Rwt/3uUff9q/sfvnO5+avqP/noxq1rB41a7calbppmYRj+wYfX58vos5tXmvXqlYOd//6PPjk+HY2mizq1Fy2llFJKuSipcKCAfG0NgoA/9wbugzEAHDQjgQLycTRw4RqoBisAT8ifVz2ATcDnWyEUEzjWAZ9XPaF8NRcAE6IIFRPy5ToTmAFVqgp8IhpRXnYjoZggADGBCa321zqNuYRiAjNsJPQmoNAWa/QMxYQyJE/oY5XEBFZhxcSKfVJMKD7J1VhgAuqtiU+2NwGEcrMUEwLAl0maE/djEgZBfzz/P3/93f2nwywL/v3ffX//6fDdo73DbjvJ0keno+F08d6VveuXuvVaNU2zp4PJX/7D/QfPhv/o5tGlbns4Wdy+evDp+0dJko5ny8Fk0RvPF1FcoPHnJzLv+LQkQTa8kIAXwMaFJLu0X5leoxDKweEJxQQOKAFANhxvwnkJxQQPkEsx4TkIi01gPA6aAhPk4PCzICaAUG5PPp1l1/UmACCX4hMhzD2+BSCEYsJzEPJR6E3wDyTbP9JUOGIXuTysTHK+EGnPM8Qx3kEQIBeA4ygFgEwc+8tsNhONkjA1mUw4fwFh6nzsIRfAAAhTFwC7YzKZSM6XaJSEKaRoSQ7XuXK+xuPxZDLhnC+f18ZzjFweDi7j/AjzCWdMiI2SMLVcLn3WWHHOlyfk6DNkH0gOF/sE+U2cgsFZKoFLmELKRkHOF3zC4WzQaPjZbMY5XzBBksLYBMlzwZAKCJExIQDOCYAJksMlJrDbsyybTCaCn0wmnLbmU7QklY8T3xDxx3jvE3hVTOBplcya6XTKI1wuzuxluXI6mt59MhjPFr3x7N7TwXi+rFbCW9f2/9nntz9576hZq9UqldkiGk2XO63G4974//q7Hx49G4Vh2G7W0iz79bfHv33w7O+/f1BIK8IAACAASURBVPIf/+u9dy53/9nnt472365PKsifKs758tMqAEm85XnHgVGcRIYdxgBg4Hh8bAgC4EtemTDBE3J6o5gABruUewHxuR7Ad6uYABV8jmCfZ59IMhFvIDBBEqY4iQyXnPOFu4kHIBmas9nMJ5Fx4LY3QQYgd+tisfBJZHyOeBMYj12ac75wcDDA+0QAkhIu04pMOrvEWck+mc/nPoeLz1YkC7MJnHQGQlknntB8UuM+IIghCkg4VDYIAiuDDUEMEQM4RjKXUADWkWedRgQ08Qi9xiq9G5cR5mrkctqINRON3icFNtZqtexshwcZYa1Ws0jVdYTeBCbksPF1GnlIuBSnyZiLfbLRhFyNYoL9xY8wd1qFUGZBCMUEgMUE8ep5fRJQQ4NcjcUmcBch7xMPqNVqaZoaoFKpeEBAUq1W/Zg9voAQUatiAseuCn+lWuHLXMmyALtfFgT2m6ZVr13qtqM46Y1nrUatWql0mrV6rVKvVm5fO/hNFP/XH57UqpXZMuqN5k/708t77d12Y76Mw0pYrb5dNckwTbLw+OccADJrnqFgZWLeGe83HA+wS39zVSoVufR368YR8oYjGv3KzD2JCpwmY8g1wQMKTMgllLOveIRiwsZZAEOBCRtPZ2/Cxmnd6GQB+OO+YFqDIOAY6mCVhyEAf/YVaORgeQvcXkdYRj2XUkopW8m6qOc71w9/79aVHx4PLu21m7XqX//24ed3rtVr1b/58X9Uvrx78o9uXrlz/WA4WYxmyyRN//Gtq1cOdubL+ObV/f/jr7/+f/7+7i8/eefdo73+eP43v33Y7TR/+ck7UZz+3XfHf/ft4/nyrfj4VUY9l1LKq5Qy6rmUUkp5IfnuuPfdcY//8u//7nv5Hw9OfvfK/ZefvrvTbjwdTHqjWRAEg/H84cnwfyVAEAR/+ZsHL3PIpZRSytsub9db5VJKKeUnl28fnf6/X94bThZhGP6H//LDX/324Tl6c5dSSimlXIRU/+RP/sQ+xSEUlDvUDwaDarVqH9IQd2lfzhBk1Gw2DY/gWfumi0AtBgyHQ3yNw+VsNptMJvwpbjAY8CUCRe3zIUK9GIAobIsRQfCaaETMBy4RamqEiORiQtR0NxMQEsjfO4fDIX/nns1ms9nMCBGkzF/uEY5nhIj4Y0JE25kJ8/l8MpkYAKFeTIj4XHayaESIohEiTFKGJCYsFgvzEqIa2WmIsjRCmMALA5FoFlgzn89ns5kxIGSYNU4mkyiKDBBF0WQyEQCbsFgs8IIdAIQM80KaTqfL5dIIEeTIAARZs0+EAdF54pNKpWImCABFRdknANjHdcRE87TO53PTiJjBLMsMP5vNxAQhRJVS8YkRZquq5YxnE6xqOQPYhOVyiZhH0WiXg9HkP311/x8enHnN8xwyW8TfPur9zdeP/vbrR98+6k0X5cf3IFhVO2xWQ54FFNhdLpcWvoACuzKtURQxYD6f246ECv4279mqiLDhUWDXbi58zGKNKCLMGw7Wdr1et5S0OI6FkJc66iALwHYkbwI02qXcCzBhNps1m00G8IaDDUEYbJ9HZHeapjj7slXZYibkLQuz4DXywYSUBWhE1PN0OjU8NlU2AZukAPhg8iaMx2PB2/1uweytVosB5hNLYjAGhDnzJQ4O9gkT4qzkTXg+n0+nUwHY4YtdmqcVR5XhsyzD8wCbMB6PBcBHIY5vdgKeWBgf0A7mCQeDgS28iqS8Fme8S0Ja4BLUpQL6uox3yRMuIJS8Yp8C55M5izPefYK6T95mn3gTkEbIKRWSWLiNCQXp4j67218WJ6j7jPfidPHcpP3i/HOfoO6zu7cnRCZkcYK6Zzhvjv15TSjOeEc2OCfCFGe8b2NCcYK6d9rGBHW/TgpS6GUWMpeTnyYpj7+UlyFI9j5XxrukAW/MeJd8cq/RZ7zLQsJSNAD+Ype5K1PSxf0IN2a8c/pSbtI+jzBX4zpC8ypblFvZRADiASaU7O7cpH0PECefK+M9N8eedzCv8bwJ6n4HK8g/35LQH99C6A/TdRqDsxnvWZYVP9KE+HVog8MTPY+GU29wpnLoON5q8CX/noZ6ATBhmqb8Y9QTwjUciO4BYRiKCZxQ4E3whAJgQpjAgFwTCgCi0RN6E4QwSRLOVwKh/eXFCfEwJypeUONPToj8qe2ndRuNAgiCwBLNQGi/yJ+PkAFbEvohFRCmaeoZZGWyRiHsj2f/7n//y//lL34TlPISBFHPV/c7G6eJ1zYuA9phcvEvQoi/5BLiRVEYhtx/wN99F6jxJRHmAsQEPqpy8ec1QQjlrMw9OAQvd6snLDi+czVuHOGLHN+5zwMFJmwk9ABPWPBIU+Z8lVJKKVvJupyvUi5EypyvUkp5lVJGPZdSSimllFJKKW+XVJZnO9pzQcxgFStql4vFgks5A8CXCLTk6AoBcAP6wJUlBYC/LCJWlL8Qe438CVnKkgar4FM2gQvmZlnGhZiDVfCpARDdJgD+2gqf8OdVMWE2m7EJFnBXYIJn8D7hD/9io5gAQgHwJSL+CggRtCg+EQD7BIT8kVs0gpCDZqbTKTPM53PxiWeQWWCf4CepAGRavUYxYT6fm8Y0TT0hmwBCXtsSAycmZFkGG1mj+AQLY50JIOSP3KIx1wSvkX3iAWJCnLwVpXd+QpFZQGwEBzcgNoKnFRuCAHjDEcIoigTPK3NLQjk4GC93X7YKUhYAbzi5GgUvPvGEbEKuRrtMV7Hk7BOPFxOsDrIB+GDC2SdeZY28P8AEJgQDnyPiE2ySQigmeABvOOITAOwSu7SYIADeM71PABBCMYFLPwPvnwcEID4REzyeV6ZUIcdxbz6pcb7Scrns9/s7O7979YqEKU6Emc/nlhSWZdlgMGi325wwhQ7y5r5+v8+A4XDY7XYtLgcFy/mbMXK+ONsopHLMSZIMBgPGj0ajdru9u7uLS3S6aLVanN/EJW4tMt8SHBCmzvhms8kpWv1+n4c0Go263a59O4RPDJCdDVOHCajCCY1oE8FeGo/HnU5HwtQ50H00GnHNSiyIg4MDSw4aDoeXLl1iG9kEpPIxYDwewwSbViSRWcYENDIhKgubCbIwYILkNx0cHFjGxGg02tvb44SpIAj29vYs52s4HO7v73PCVL1e39nZsfym6XRqDFjE7DTLh7IsktFotLu7awCYYGNGKh+WommE03A5n8+Xy6V5CbeZaMyyrNvtsgndbte+MSOrhZf6fD4XwlarZXiYYIQwodPpGAApYzytk8nEbIRPGo0G46MoMo3YeprNJmtEHIBNK2vE5sXlWZM4+v2bl5t1+4qP/x/gG/qPf8sKLoPgx/rPv7v0+IAqaG8NWIf/8R+cn7DIhEKNz2/CR+9catWr2K9tFnBEpWlqeS44NXlasUlaYgueDGzPxG9aW2n22G14aOSVCY0MmEwmWMzBaiHxDoZYVMbz3YeHmyiK2u02a+ScLyRYiUa7RK4Qr0z82jFCAPb39/nmSpKEAXAC58k2m00zATuM4XH32f5gDzf2gQ8APkewz2Oa8HAzHo+FcGdnh2+u2WwmhLbt2+98OAEPN3AC8GmaDofDTqdjWWZIFhaAbcL2qGFDwrbMeFjEJgwGAyHc29uzDQdnnwDsuM+yDD7heRwOh/aAgbPS9sxs1cCEATgrOd85TVP26mAwEPzOzo75BM8D9ngQBMFwOLQdr8bJ3rVajR99giDAkWaXeEqg+zbodDp82W63GV+tVu0AMzxXv240Gh4ghMHZfgIewDFNODLNWQDwJXZ/IRQ8B03DJx4gPjFAGIae0GJjzSfspVarxYT1ep0ZwjAUrzabzSzLDFCtVkUjCE0jCJlBCHEPGwN8IiNkE2q1mgewCVhUxSYENK0gFK9yeF29XmeGMAz5SQX49GybCJkmb4IHiAkVysDH1iyAgCKCc03gScGqYxM8oTeB1za8Kj4xBok8DVbtR5gw1wTxiWnErw42odtp/7f/5IP/7pc5n8ttvyu4DNyzyHkBrz/hC2lEc4M0lWnF2g5WUqvVeKIxrbwlAsAbjhD6jitCiB1GALKQZJ/nheo1cv8BAwihN0HwvDKlhQIABSYAsG6EwepuskvZQPy9AACfI3LQ4G4SPJvAZVk8IW5nXi1CiIPGnt7gE46+AqBgz4RGxssujT1NCGVlsgkACKFMUwFhsHoeEIAcbTytEnCW6xN+9AnOPtKUUc+llFLKVpK5HPhSLlCqZxv8vRFSRj2X8uZKGfVcSimllFJKKaW8XaJPP/xayV9uBJwX/+oJX73G15/Qi8df7JB+HoTn1bhRXnCangPwgvhSXoZc+FrdqOK5Fz//j5dqwutPuA3DufA/A0Ivr5UJFY6gRtQz/+fhcMh5LtPpdDQaGSDLssFgwPjxeMxJYXEcC2A0GnFI9mw2GwwG/FV7OBzy5WQy4SQvRDkxYDQacT7CYrHwADGBk8IQqMX48XjMwfwIUua3/Wi+wSagv4f5hC/NBE4OGg6HQsi5PIj8YsLxeMz46XTKhAiXYxtRDtwIEfUsADGBVSCCT5zG+QiI8GUGNN+wy/l8zgxpmorTQGgaEdAnADYBkeCcMeFN4AQHmMBDEhMQ9SwAMQEB8maC2IigRfbJaDTijAnJfxQTQCh4NgFxmgLgpY6wSk76gNOE0EyATzgFQ0wAoddol1JbtpSXIQj4tVlAvC2n0iDanad1MpkIQDZhnvds1aCANfLKRG4Rp9JgSLyDTSYTEKKanKQjgdBWJkzwhHy3ignRqm8Mm2A+yVYRvgLgu1U0Ysx8jmCfN0LcnkLIdyv2eQEUEOJuMjx2aTZBCMHABxMODtYoeJx9bIIHcIoWzj4DIMyZL70JaBzBeN5wZrOZANB4ygDj8VhMYHyWZcPhUKZ1MBgIgI9C8QmeBwQvW5YHmE9qfPCnaSq7G9fyXwfgS4kJyLIMpfTtYzYI7S+eMKEWDcGq+qQQFuDTszXUcwl5kFmWeQCHWWGEDBATPKHgc00QADs5FyCXAT3D5uIrlQo72TOI0+QvuYQFPoFDzqUxIMmdhTAMiwllZabUfgQjtPA3rzHXBCFkjRihAAI3C6xR5j3XBI4xFBO8xtxpFUCBxmxVqpUBPB7RmK3K3TIgpfK1Jthkd3d3EdQ5nU6n02mn0yljQYJV4QOLN89WJTb29vZy8VleBV4/TTKtssPwjoRlIPdvwVLPBfiVaUHcWZZVq1VpfJG7wxSbICP0eFmZBRr9vSM+2Uaj3x/kdING83zuNBWM0JtQvO37AUiZ4+LjGwPwQxKLZAMpHmGuT4S/4PjO3VSLF1Kxk4O8c8H7xBjKqOdSSillK8nWRD33er3lcnlwcIBUvsePHx8fH1+7du369es/xTBfL8H7M3s0TJLk0aNHURTduXNHkG9i1DNeH166dOmnHkgppZxbapshpZRSSinrBaUBkiQ5Pj4ej8fyBfDnLaiSV6/XW60WXupUq9Uoig4ODqSM1mQyQdgAalltQ46XLlwo4bWSJEmiKHo9x1ZKKRulfPoppZRSXkhOTk5QoK/f7werUpZviSwWi9PTU1QZ6ff7cRzX6/XpdHpwcDAajVBNbjqdHh4e4umn2WzO5/Mtn36SJFkul1Yo9fWRbFUcOcsyqadSSilvilT/5E/+xG5FhIJyCaPhcMg136yusX30RXVIwyN41krtWUlNA4xGI/4pg+A10civfxHcan9BaBgDELdllfEWiwUq3jKAS/khMtRGiEguJkTomREigk9qN7MJ8IkxINTLfvABz31lES4ngID6k6MeuQEQKCAm4Del+UQAiO8zjQiTZAAqq9olfqQaAOFvQphQd1/EJAqATUBdYyacTCbsNFQdZZ9MJhNeaag2y9M6n89tzPgBLbMQRZEBcgkTaguPyFABZNQ1Gr04jDBdVYVnjTytKDMvQxITmDBbVYUvMAFD8vWszQSEKFotV2jkctWsMVnV5mcAz4KdZ6yRCZfLpXzIh+DLV6/Xa7Van3/+eb1eXy6X+/v7b8O5iIWEQnO2dURRdPnyZYTJ1+t1RBcsl8ujo6OjoyPEjR4eHgpVGIboQYFNL01T9LiwThdxHKN/Au7HJEniOEZ0LSI9DYCVg0sLt0cMBGYZaw8AC/A3gEW/MsAIkdOwWCxQvK5Wq2HYXOKf13aapqiczrWhZ7MZV2bH3WQnUS6hrcwsy9DFRQB8t2JPEwCfI9hhjBBDMjw2Vdsf0lUvDqu4DQbehJFhYGWLMRFCGASBacQ+z4SooG0HkzcBZyUusUuLT5hQtvFs1cjCCAFgPNaVmYB9XgjNJ9mqFwcD+HkAJxdPK84+w+P5wfZM+IRrfAPARyEODvYqekUwnnewXELzSYXTUpDLw1FFkvtjt4H9hVPAgiCYTCbSLcUTclQywtQl5YovkapjeFgrGjkTB2HqzCAdqbB3cHisaJSEKeTyCIAjp+ATjtUvNgFPhMnZpDDO+cJ2JoDkbM4Xdz/BE6EApCGUB8RnW1YJoXcad9ECITPk9j6TdAPBc86XpGwELmEK92GBRqSxJGezSCQpjBOmJM8lcN3WYIIRpmfb9ASu2xpMkKQwWZnshPRsp6Fg9dQrsyAASeVjn2Az8oTsE5/XJj5hp2EzEhMKwgTxjaayknWwn5mg+jaHlNrTIceEwsl4+F7nHDsRkTkL59vDymIl2HBwg9gldi3+C559jdAAHg+AEWKHZI0YgBFaW8D9/X2cQ9J1C+e0LCR+I4hnEd4zsUkKwC7ldvaEsmXhYUUAHs8JU9J1KznbeTBzWWYA8DkCFxlA0tawS4sJDMDDBwcpY5O0S3hVCDkDy2eZSR6cmICjyi7xsCImSI6YN8Ez8KVMK4YkhLJlcRoaXiWIT4pNkNxASVvLzmZkV//8z//cHpQqlUqj0eAXJ2hcwk0V0EiIq+PLJZfTRqlpaabBVc/BLxqZEBrtEdsTAsCE6FQiALHIVKCCuJgAQvwl1ydc9Vx84gmhscAEaLTXEqIRj8Z+AExoDOITI4RGBvDbLGj0JgihaVxHKLPAJuSO0PukwASMEAAcIQWzUKlUijWak9eZ4DXmzrv4RG4WIazX60woI4RG72QZ0jqfrJsFmVZPKBqNAU4WE3JjcvHuZ2dnB28FTk9PF4vFpUuX3oZ3P8GqAgV+6aFhAh468SGs3W5HUbS7u2vPx3j169/92BJqNBrtdtvWUrPZ7HQ6aNQFAQCTa5cMaDabrVYLAKxzEBoeALtsNBr4eMcAdGYwAAgxGPxXWSd+25d7hw8aMMvtLwxy6df2uoPGazQGwTPhNiYwA+/zdnOBAc/EGzV6QjHBDtN1hOgIJF5dZwL462cbQ8kAjND2WA/wu674xPhznwfW+cRMFgZ/fK8jhEVsgp1EQvijT8qcr1JKKWUbWZfzdXJyslgsut3uyclJv9/HB5Fr166tS+r+OUmWZcPhsNfr1Wq1LMs6nc7u7m6v11ssFmmatlqtTqeDp5/FYvHs2TM8a3Y6ncuXLwuVz/mKogjfPurbxQmVUkop20v59FNKKaVsJeuefkq5EPFPP/h2xgF2pZRSykVJRepiycOQrxwotYMEH8ex1DvyAKnP5gHFhLm1B8UEAXgTuOrUxRJ6AExgjZ7QF2gq1iiExeUTtyEs9slGjcUmbEkoC6PYhMQV+ttIyAAQFmj0PinWuJHwQkzwhMUmXKxP0rPVEUt5GcKzgG8Zmate6FemAPyeKfN4XkJ/O59LoxwcsiF4jZkrFZi7wxQTeoBcehvPa8KFExb7pJhwm/KJr9InwZrjWwD+tGVA8RPIxgeMYsIKRzkhcYOVDQYDiQyVUta+kYUUWe/3+zya4XAoXR2kMYW0lZA2EfiaLhql04XXyP6yqhvmHRnAxk4XqPZtABQs5wg+38iC46xzW2eIT6S8t4+S5liwJEkGgwHbiBwQAyyXSw8o6HSB0H1xGvsEhNLpglfVxk4XMq25rTPYBN/pwpvAYY8ILZfWGdImYmOzDul04YOaOXITJnCdG2nWAZ9IpwtPKCZI3wnfmKKg04XMQuI6Xcznc1nqXqOUjS9fFb9syW0T4btAyLRyKCjC4XlafacL6TvhVyYHkxZ0ughWsaVCyC0RYIIQ+tY6YoLvO8HdP7C2BcB3q3R1iF1jitFoVNzpgvdAEHL8LAgl2cWmCaey9J3g/QEmMCGGxBG+fhakMQV3dchcmwgAeFrRqEoAdomDRjpdFBAiBtn3keCz1Xe68ITSOgNVMxjAR+F4PJbIbhnAYDCQ7h9MCIBNq9b7kahGH+RYDDgvfhuA/NHjc//J9vjif+7/yTb4c2k8r4u2/CfFTise4Xll4xScd8AbtVz4mJ/DJ8Xz8hwLVd6sbGPgxS5+vsyy7Lwrv5QXlwtZ2BvvlGLANlvQxjEUDGkbFS++2F7kBs8dcPG98OJnX+4wtv+vG8e8cUjbTNN5R3iueTzvgIsB4Sp+fC2g/DFXSimlbCNl3M9LlTex00Uppby5UgbTlVJKKaWUUkopb5eUTz+llFJKKaWUUsrbJRr1LDHFEhmKCF+OevalnKWusQ+LlthSD5DCyhxGjdgxBiBOk6OeJYpZAngRDSdByhL1LAVwfZCy9wlHq/kgZQ6PjePYh0Vz1DPqXUqoF+NRXY2jnn2QshQF9qHfUjdZKqXmRj1LhK8AxAQJo5ZSzlKuOjdIWaaVGRASKLMgtZ5lmhD1zCHDXmNx1LMPUhafyNqWctUo7SomFEc9c6Rn4MpVbxP17OtfC0BMkMhulPe1y+Jaz7myMUfsvIDXn/BFNGar9gLninrGDmMAlC3mTZjnPXOFkn3UM3YY0cgbjhQFlkLJWLpMKCV6MSRZmd5GIWQTJHA7N+rZa+RzRCLBcwsliwkewD7hqOfAFUrGLs1363w+l7BoOZi8CRKzjIwfI5RCybKNY3+QUsuCtw4n5hMOi86NehaAPB7ItOLss0s8P4hPfBg1H4XiEzwPMF7yNvA8IITmkwofWlhDAQnvnoFb5cGqpZRdYsfnwQkA5cN5B+f7CoR8KcX4cQiJRt6RseaYgU/ZYFX+n2dIAOg/IHuHADhPGD7hpx9PyKcgfCIAfjJAxyivUXzCN16xCRsJ0TSHbzwBSI+F5GwZeAyJL0HIq1YAIBQThJCTyOI49k4QQu8Tr5EJPcCbwNPqu3mwCSDkpSgZUmhdxD4RANo5ySwIQFYmDymXkDWmrrdGLqFUshcTklUzB4SnIAc+XEmWZRi/AbIsE4C/5PBqT4jhFRMawBMW458bcOEmWLhPkiQyC9bny6ZJ7lZsCALgu9Vvkh7P6wR3UwEh91TBE5vgZWX6Vhj82L3OBLtMVo3AWKO0UBBC7PMCsEt/L+QSyt0qrTDkHOGfCtmqz5dolGllQjzu8IYjPvEm8IaTrZ6bBSAm+CHZZbZqBGZ/ic/2G8nONizyJmSr3oXrCHF8C15WpgfwcY8fbMWEvDL9Iw0fviG6URpXHMdcFhpd+vjOTNOUC49yGzaMPgxDK0QNQmaIooiLd6GkgQCs9H6wKv9jhJhjwXOvym0IsyzjvwhACLcxIU3TAkKYYA0Kck14QcI4jotNSKj1LBjsn0NjRl1RPaFoTF0RtjiOubuTN0EA2xCG1DF0o8Zcn3hC69WwjQneJzJNATV/2GgCCGXMGzXK2g6oK+qWGpkwSRIBeBMKNMZxLBVESrlAQdQzniBDav2IWeBNNaXuuesAvGfKvAsAl9x/dxuNxYS8MmFRRr0nz2tC7srkk0i2uG18IjcXGIxQ7neYwBoB4EuvsYDQmyC77paEBT7JJcyyrMAEbCByfNv5vqUJ/Hjgj2+v0R/f8kRR/DwgGnOfB9Y90pQ5X6WUUspWkpU5Xy9TypyvUkp5lVJGPZdSSimllFJKKW+XVPjdj3znC1yAiHzfBUA+y/HHVHxZFIDEuAhALheLBYcmbCTE11YBcMgLgiH4e63Hc8SJfFEGwPtEPgBLpBGb4Akl4kS+6+eawCEs+GruCbOz8RwCEBM44iTXBO8TCQwqJhSARJwgkkAAYoIwFGuET4RQAolyNRabIIFB3gQByLTymPHVXDQul0sxQQBigvdqgQkIhigg9CZEUSQm8Koo5WVIkiQ8TXjfxpsqADKtApCVKYRxHHtCWZkSvikbjgSEYSkyXkLcsBTPZYLEi3ifeADfrWICAHyJfX6dCbKBgJDPPhCKT8QEwfPN5YOlZBvPNcHjOe5HgqU2moB9Xi7FJx4ghBI5JHjxiY80yn0eYIA/udgnAMilmMCAIAiYsMJRRb7TRb/fl7wYTtHKskzwo9FIiqyfnp4yYDAYSJuIXq/H5vkEK6lQ7htZ8OPLfD4/PT1lBmnyMJlMOMkrSRLfyEK6OvR6PQZIsw5UQOc14Qk5EDuO436/L4TSEoEZsiyTDCz4xAAgZIDv/iFO8HlwnGWWJInvAsHBYr7TBTIy2AQOrU/PJgsEq+4fbIIn5FlYLBZMmGWZZCdhhEzI2QSBy7yDCQKQDCxpEyEpXUhbM40glE4XPAtI8eAsEknpQjoDm8A5HQB4n3CgpWTi5JogAPEJZ0wghFA6XbAHSnkZIrOQutwfpPbYQkqSRMr/I0GSn5Klg4G0iZCuL54Q+VC8MqWrgyRMSdeX1PVYQIIkbzi5GoVQujoIIe8PSZKgo5Fo5HMETZmMEHeT4bGBSB6cB/ADHM4+9ok0suD9IXNtIpKz6czYH7wT7DJNU+7qEATBfD6XNhG87WN/kCwz6TshPkEOuBDK/iAM8njAPglWCdR2mWVZv98Xn/R6PQHwUTgej8UE38hC1snp6akQmk9q/KW5Wq22Wq2ApNVqcXvhWq3WbDYFwB+qG42GBRwFQVCpVISw2WwyoFarCUOz2RTCgKpTh2EogGazaTFQ2xDW63UL88wlbDQaHGYFn7ATxAQEKgoh4xuNBmuETwpMqFarjUaDCcHAGtknlUrFa+SgZsya2CiEiAheXz352wAAIABJREFUZ4I4rVqtihNk3mu1GqvwJsi0bjQBPhFCmQXEiq4jzDVBAGKCJems08gmeJ9Ao/jEAGEYikZvApbiuiEJIRg83sYAQrGRly6cLCPkZcMzUso6wXsLv/VtKX4WME0C4HvBTxPHgcpCQrQyx4HKvQBCGRIvZvRe9VuWEBYvJDYBI/QaC0wQnwAgJshJxCpwO7MKMUE2EO8TEBbs0nACaxSfyGEKjULIv/O9CblnnwD8HigA8YlMqwfItPIsAMBeEp/ARgb4PdM/YMi5IBq9k2Wd+Eea3zm5jHoupZRStpF1Uc/I9W21WrJzvQ2CT8C7u7v2F7waqVar3W73XFRl1HMppbxK0S6npZRSSinbS5ZlDx8+fPTo0dHR0c7Ozu7u7sHBwbNnz4LVi2i8Krh06VK1Wu31epPJZGdn5/Dw8A19VEpWtf7w7u3k5GQ8Ht+6datSqUynU/zcrNVqlUoFHxqQSb6zs1Or1VB1ECm4BwcH/Du7lFJKecVS3n6llFLK8wviCfr9frPZfPz48aVLlzqdzg8//FCv16fT6ZMnT65fv44i1PV6/cGDB/hXcRy/9957P+3In09ms9njx4+jKNrb20OkAqoGz+fzJ0+eHBwc4OV8o9FYLpcPHz68cuXKYrHodru7u7uPHz8Ow3A0GjUajW63Wz79lFLKTyjVP/3TP7WbEJUW+XPmaDTi6ka4ye31LKKQGI+wTYubQTgbA8bjMZfJQvVJ0civf1ELkgknkwkDEGRtEQkoHs0AvIU2E1Di0wgRXFZAGMex18hF6uATLio1mUxYI3wihPh1aICAis4hkJ4LbU2nUzEBBRLNJwJAKCv7hAkB4IgQZOqZUWmaio0I77URoni0ELIJiMw3AGIGmRCVW9knHiAmzOdzLsg2m83EBNS5wl+QlcYrDV8o2AQPCKiyHyJ82ScCQLaCEAoAReTMhMViYWO2ZEPGexOEkBcScka4LB6CrNeZgCQUrvmGPBo2AQGDYoJdIgVMPs2EYTifz5vN5u3btxuNBtbSYrG4dOnSaDTqdru//OUvEYrY7/dns9nNmzcRh3jt2rXgDRQkD+LxZW9vD+Xg3n//fYTx3rlzp91u4+7AJ8JPP/0U90un05lOp7u7u+12e2dn59KlS8KMKm2YJpvHbFVx2+JOkO5kCwl4AfAWZzmkmHdEszIeeTG81D0hbmfbcLAUbSFhxoWQVyaWIgP4drZkQ9Fol3IvwAQh5C3OmwCNfI5ghzGfYPFb2AoAvOHg864A7FxIV4WV2QQhxCbJJniNfDB5E6bTqeHTVdsDNgGHKQPEBK5ODABf4uAwQnhV8DKtbAIA/HiAfZ5NmEwm9tIXZ6X4ZDqdMoBPZxCKCePxWPABlUPE84AAbJ1UJOVVMt59djdnqQR5CeocSGR3MhNyJrPPeBe85BVneQnqGzPevQlMKBpzs7t9ujibUEwoJuQmqPMI47N15YO8jPeNhOzk3AR1xosJkj4auHTx3AR1MWGbjPfiBHWf8S5DkmkVnxRng2+T8c4qMpfx7jXm5tiLTyRfdKMJ58p4lwR1SaHPNaEg4x37qZiQm/Fue9PVq1fDMPzNb35Tq9WOjo7shLZjeDwe93q9TqdzeHjoed4IwWe7NE2fPn3KCSwI+ZTgX9v3Leh1MBi0Wq0rV66s4/f55z7j3U9rQca7X0g+452XYpqmuD23JMyyDAAxoSBBXVLo15lgl16jT1A/b8Z7cdK+bCDeBJ/xzk6DTyQ32/vE55OzT2QWcpP2/Z4mAPFJcca7P759grpsOBsJxQSPL854zz37mFAS2tkEzIIAmDBcLpf8Y45zQHIvA8pzeT7Aa064jYpz4X8GhD8DE16GT0ReBxOC8yz+XHwBIFsT9fzkyZO7d+/u7u7evHnzhx9++Id/+IfPPvvs008//Yu/+IvhcPjRRx8dHx9fvny5Wq32+/2joyNEvXCk8Bsk+DWJlGw80Jyenr7//vt4v/Xxxx/PZrOnT582Gg28qP7kk08ePnw4mUyuXbv2+PHjWq22u7vb6XQ6nY7MpkU9b5xokfNuki8OeBmEF2vCixN6edO3rNfwtP1pHxhq4r5zXb444DUkfBPH/LIJX73G15/QyxtnwoubDNnf39/b28N79VqtduXKFbzaaTQacRyfnJwcHBy88847yFJ++vRpu91ut9tv6NMPXpDjYx9eAs3n89ls1m638eKnWq0ixtk+InQ6nUqlgrcL+Azd6XTeffddSaI22WaPOhf+dVg5bxyhlzfOhDeO8BVrLDPeSymllK1k3bsfCCqPffPNN91u96OPPqrX63/7t39brVa/+OKLVzzO11CyLHv06NHp6em1a9dQOfC9996TSiRlxnsppbxKqfCnRCmIGQQB14oNgmA+n3Mp5yzLuKho4OrboqQmAyaTCT9voW6paOTvfLPZjON4EEbNALyFNgAqpQqA9+v5fM7lrRGoxXjkpxgAwQpCyD5ZLBbMkGWZJ2QTQMhDQmQ3myCEXFPYfMLlqsVGhIYZYRRFXqOYwIQWwceE/LkUJjCD1BdH8BpHEohGhIozoXhVTBDCYBU3zYQc24Qf6ALgaUWAvwBkZTIhTGBArgkCEBN4zJkryo4QQp7W6XTKH7kRS84m8JCyVVTjOhPwCbyAEGGVMiTGS1yRCHaDVqt19epVvNW4fPmyj+19OyUMw93d3Z2dHcSNHhwcrEv4l1nIVrGlBsC8y7RycIMEU4KQQ1Ik/gMArswuhNIqBxrl4BC8N8EDeMPBDiMa7VLuhWwVHisAvluxzwuAzxHs8wWEvD/g5uKyxUKI/cFPk13ioBGfMKGcRLmz4PHiEw/g0CXxCQB2iYNGppWLTW80AWcfPx6IT3B8C14IuZQzthQ+ClGenockhNIDAM8DAjCfVKSrQ7/f52cR6T8wm82Gw6EA+JJLZQerytYMkDYR6OognSv4Ei0ReNXKCLkqfBAEi8XCt8KQThf8eITi3Iz3nS6kMQXKzBtgNpsJITe+gAl8q6NEugDkTBIAV4WHCbwmUCJdWmHwMyhqrgtAHjV4TeCZVZzG218uIfsEpfSlMYUQep9Ibw1p1sHV/eW2gQnFnS7wDComLF2ni3Um4DZbnm2FwYRS3T9YPUbbJfoPMCGqvxSYIGtbflrAJ7z9iUbs11z+X3pr4JGRfeI7XYgJBa+Ka7XarVu3vvjii8uXL+MvN2/efEPT2l+G7O3t3blz5/bt27dv30ZIeC4MR05Bpwt5cMe0MgAHOT/98ErzhxY0cqcLr1F69aARzTpCLF1uE4EdhgG81HNNELysTGnWgd/tcnMJA19ii2MT5JgEQEzwAPlZzm0iMKRiE6R1Bu/z2OK4dQYAPAB0eTKANOtIzjYsSl2/ERxVfOk7XfjeGrwJ+04XjBcTgtW2LHjZkaQVhnSRkmlNzjbrAJ47XSwWCwFw94/qn/3Zn0llaK63LQW/UbiME9Sl4LeVJMdfwjBEtWwBcLXsRqPhK3wL3l4Ih6sy7Z4Qf6lUKt4EX1WdGXIJ2YRcQin4bQxhGOYWQfcmcBl17oaRS8hFyoUwWFM53nxihFK4XS6LR4ja9usA3ifc7MKbUFkVyy/2iUwrE4oJILS/yAByTcC0CoOZIITB6sOEADyhLAy+uWSEuQvJzwJrRCU91igAHqHXKCbk+sQAGGGtVmM8JCjlJQgy3mVa7d6RXVqmlfs22ETzQsqdd8bzzQU8E0KjrEwwYEkAYLb4hcSEBpAReo0yQrkXPEDuVg+QS3OCEAZn2/XYhuNz+rb0CZzg9wc/JDlH6quOOhtNWEcoG866/h42QjGhoCmKHabMwAdTpbDLit8D7fiWEfrngVzC4GyXFdvBfEeRH31Sxv2UUkop20hx3E8pLyhl3E8ppbxKqWyGlFJKKaWUUkoppfyMpMIhL1mWyQ87LusXBEGaph4gl6+ekAG5hBs1MiBXowBeKuE2GosJtwF4Ezha7WIJ15lQrLHYJ17jRsLzmiB/eUETvE9ehglyL3hCDzgXIf/XUl6GnHfesyzzAI9/kXn3hNtoLNgkN45Q9vlcEzzgwjUWExaP8PkIN877xfrkdTi+z3WYnteEYsIKh2T7qGcJbkXkF994EtSMyC+OBfMxxRxbiqAkBkjAL+LvCggRIWgAH6Ts0504gi9NUx9nzbGlCNwWgET4crRamqY+6aw46lnibRHNyqFe3gSJGZSwaO+T4qhnhMeyT3yQso/wFQD7BFGQ7BMOq4QJ4hOOMQzyInz9kAqinhGE6AlNI4IcJSyaL+ETJuQMiyAv6lmClJEXw7PAwaqpi3pGRoYR5gYpiwkciJ1lWbEJuRqZUOJtg1WinF1azpcEABVfvjggJHnFGl+lCcHq2yJPU5qmkuciCwkr87xRz5KbIoS5cdZyL0hsqQS38spM01QSpiTvNU1TbAisUTKwZKl7jcUmQCOfI9jnmVDCaXkDSV3gNpzAeyb2eSOUhCns0jytODgMgE1SCL0JjJcwagncBkBS+TyDDEAiwX1YNM8CsqAEYE4WnwR5Uc9CKEHKcjpnLow6TVMf9cxb1nK5LAijftF3P/73q1xKiuw2j2YeX/AT/DkeHotNhrqCn+AXrnGjT7wHNj7jswlbjnDjW4ftX0uk7mUS/9d1PvFOXqcRhBudLEPaaAJfbgRsNMH7ZOPN4kcoDAX43CEJoccXeHWjk4EJzgr/JQxDDyjAbyTMBRTjcwH81PK6mbDN2pZZyP2FXTCPWd67nI07jFwWDGlLEwqWejEhLovfAXjAxi1o4+1c7JPcPVA0biQ8l43nes/h8cHZ03ajCef1SfBcZ59/YDjv8W0AWFRAWEY9l1JKKVtJVkY9v0wpo55LKeVVShn1XEoppZRSSimlvF1SPv2UUkoppZRSSilvl5yJekY0K39mk5q/qLDJ3yZ9IwsOVkWUEwMkFnVjpwtpE4HYMQYgGs4ACNQSAL+rR3isAdKzsWYwQcr/+yhm7xP+1uiDlKXwvK/dLJ0umCHLMt/IwofHikZpiVDc6QLxthIeywAJGZbKqsGqWYdd+qhn38iCQ4ZzW2cUhAznmiBdHXxY9GKxYBNkKfq+E75ZR3GnCykG7Ttd8JizLJO+E7kmCMD7hEuv+kYW0hLBt86QafUat+90UcqFiG9MgYVhAN/pAjsMA3ynCwmP9S0UJDxWglVlw5Ei4NImQrq+ZK7HQi6hb4Vhl3IvZC5wW4pHexMS1+lCArelTUSyRacLTsfB/iCzIHgfuF0cRu1nQQJ+OUcBJkhQsxTcx9knAL4Un/hOF7xnZq7iNgD8eCA+wfFtl9nZxhSZK1eduU4XEh2fng3cBl5WphDy4VuRlgi+MYWcMfKw4h9uxFrfCuNcnS4Q482r1muUYvw+RUtOTZ6hdIucL993wnd14Bnyz2c+v0mefuRM8gzy7CJ7h29MUZzz5R/g+MbzhNImYt3Tj2mUpx8synPlfHkT5E72zyJyJAihNIxDfoQMySdMSYrWxpwvAcjKLCaUnC//OIVeSPJQKykYPomsOMusmFByvtZ1uhiNRr1e7/kiCJfL5ZMnT3744YderwfbkyQ5Pj5++vTpc7D9DERmIV31kGdAcc4XHo/46WebnC9pieAzsIofHeScloQpn/MlDyvFOV/AFzw6yM8nEPreGnbpc77804/P+ZJGE9JuSBKmpNNFerZVTu6jA2/72OKKO11Izpc0yZJtPN2U84Vdmldabs6X/NzyzxZ8ea6cryAIpPtH5jpdSCpfktfpQp4IPcB8Es5mMytEnSRJFEXceXixWHCx/ziOkyThutGLxYILUS+XyzAMrRB1mqbL5ZLbRCwWC66dH8dxHMcC8IRWjB/2CADVrNkEIWQTcEhbdOE6QuuxkCRJHMcCqNVq4hMD5BKyCWmaRlHEQ1oul9VqlX2SJIkAWCPWn/hE8N6EAsI4jtM0ZZ9EUVSgcRsT0jQ1hucgjKIoDEM2IUkSYahWq2xClmVMGMcxD8kTxnHMSzGKIjitwASxUTTCxnWEYgK2M9GYZZkZ5U3ATSs+8TbavSCEMIFvFiHM1Qin2SU4g7PyzTffjMfjO3fu7O3tBeeRNE3v37//4MGDSqVy48aNd955p1arnZyc/Of//J8vX778R3/0R+die9MFUc9YGDYLlmhjm2ruQgqCgAG4nXGJaZV5Z0IANhLyUk+ShFcahmQNB2QhZauULgHwhiMaoUJGuJFQTMiyTAByKQeHN4EJczXaJW4uPvuEUDYQEPJhCoD4pMAEbPvVapVNwGHKANtUPSE0yqX4xBPK8S0m4Lhf5xNskucl5MMUxzePebFYyBOL+KTgkabM+SqllFK2kmxNztc333zz9OnTy5cvNxqNvb29/f394XCI33D7+/vtdnswGMxms2azube3Z7/G9vf3q9XqV199tbOz89lnn2GDWy6X33zzzZdffvnBBx/84he/eMUG4pdltVrtdDr45RoEQbvdrtfreFfRaDQ6nQ5elmAX3t3dxRfV3d1dvH1sNBp4KYgeSXj91m632+02viDX6/Xd3V1utwQpc75KKeVVSu2nHkAppZTyxouVAO12ux988MFoNDo+Ph4MBjdu3Dg6Ovruu++iKDo6Osqy7OnTp6enp1mWHR0ddTod/AJ++PBht9vtdrsnJydJkly6dOkneQh4+vTp8fHx1atX8Va/3++HYdjpdJrN5unpab1e73a7lUql3+/3+338jrcgmN3d3V6vN5vNDg8PHz16VK1W9/f3wzA8OTmp1+sHBwdxHD958iRN00qlEkXR1atXX72BpZRSikmFozeSJOHP/EEQLJdLDkCJ45i/0gHAlxIXiS9f/KpcCKFRAHwZRRG/ncKrMAHwj9GNhHEcc4RKLqGYIIRRFHmfFBOyRu8Tb4J3WgEhNPKQcgkFICYIoQDgEzGhgBDvG/kbtte4kZDLUgnhc5iwUSNeugrheU0QBpkFTyh4ISwGeJ/kmiA+Oa9GMYHVsezt7X322WdffPFFmqZPnz7d29u7efNmt9tdLBbL5XJnZ+fKlStXr15FFN3BwcHh4eFkMjk9PcWX/vv379+7d+/Jkyenp6ftdvvSpUu5Wl62JEmyu7t7+/btWq02mUw6nU6320UQcbvdPjg42Nvbi6JouVy+8847H3/8MZ6KPE+tVrt69erR0RGeij777LPr168jBuLKlSthGPb7/XVjkFnABwvZkfxC4k0yPVvhzU8rvmici9AvJDk4PJ4JsRS3JwSg2IRiwlyNdrnRBLnfQciHHQDbm4BdWqZVCOUc8SZ4vN/nBVAwCwAU+CRXY8HzwPMR+uN7nU+CNc8DAUkxYXD2CaQioaD4WWbQfr8fnY0M5SjmLMssVhEyHA45SDmO416vx4SDwYAfJvADSzTy6MfjsQSXicbBYMCRm/P53A+JJ2A8HnOYc5qmonE4HHI069K1zhgOhzwliPziZT0YDCRKmmOK4zju9/s8JARqsQmDwSCmCF8fs8xx0HEcMx4apSWCaPQBvxyIjVAy0cgBuSBkBsm8E58gtFzwHPYYRdFgMOB1LMmDyAXggDuJCEaQo40Z4XVCyNOK6HgG+BBjiaOURhaI0zQT8EGHAWICMgbYBIlBFo0wgVMypfsHYhI5xI9jUT0hoiAFINMqhNBo+HVRz0EQVFcSBEG/3793796jR48Q0njp0qVr165Np9Nvv/32+PgYd+hyudxdye3btz/99NM4jr/66iv48NmzZ71ejyMoX43U63WEDGKbRqRtq9U6Ojo6PDwcDAZPnjxBFGdlJbx3pavSt+CBYy2mAWGng8EgDMNut7tuDIjH51mQVB3JAIjjGHeTARARLPH4HOEr8baSAYCgZgEwITRKSwTG4xlXTODZxJB4w8E+LxrtEvdCQZsIACIKUh6PxwLgfB3g2QTJNvKE0+nUA/inCPZ59onHi084IDc+2wEJJngn2CV2aTYBB4cA+ByZTCaewS6xS3OzDt93gvdM+ISf4wHgx4PRaCQmMB5npfik1+sxgA9fmCCR3R4vPvEA80lNes3YvQqRyzAMLc40F4AdoQBfqVSkOU4xQP5rrsaNhHKZnS117zWea4QA8F9yfXJejQWTgv/EgI2EFtm6bgDFs+ZbGhVPkzCsw5/LBPHJxlnwAL/UN05KMeGLmBBs8iou2Y3yz3PHLPiNNxcf3ts4ed0Hqel0+vjxYxyQYRhOp9PDw0NEZWJ3Ozo6Oj4+DsPw6OioUqkcHBzs7OzUarVHjx71er3xeIxnApwZvV6vWq2Ox+OCp4SXKq1W6/9v78qWI8mNJKp4NEdz9ZiOMWke9Jl6kpm+VWYjs26SdR+sPIB98CXGyz0LWUVyWr1LxFv2+HikB5AASAYifvzxR2TzfPjwAX/h+vbbb3GGuL6+xm+t2rb94Ycf8FP+bDbjhT6EcHNzc3Nzs1qt7u/v7+7u7u7u/vjHP/7www9XV1fffPPNKdfnhF1m8uBEKhMKwP+rT4xTL/Ayj6Mrxui3c9HGcekbCiHeZ3RnuSgmfOMhDK1I/q1dGuSLducXxMQlOP715wF+HNXoq3pJQs16rlat2jl2Kuv506dP9/f3bdseDoe//vWvP/3006+//opfKn/8+PG77757eHjYbrfff//93/72t81m8+uvv6aU/vznP//yyy+LxeI///lP27Y///zzL7/8gssa//73v1NKf//737+wwMfHx67rfv755xDCYrF4eHhIKX333Xe3t7f4/eu33377pz/9ab/f39/f42z0l7/8Zb/fPz4+4i8L33///Xfffbfdbn/88ce7u7vNZvP58+emaT5+/Pjx48f5fL5arW5ubn766aeffvpJvNes52rVvqTV00+1atXOslOnn2pvYvX0U63al7Ta6aJatWrVqlWr9r5synmXSEbjv/hKUWDUq+W0Jq6bHCwxE+lsQsi/bUJ2mwA4Z1lK9MbjWtrhuUQvp4J65wr+aRUFcJlQPEqbCKT4CcBjwqn1LkG6f3jt5va404UQcnZteG6JwJng3gqDY4LyJALgx8PhwIRIZxO8xMQ7V8iwMgMkMN7bRHj5aZHgrySjwIS4hyyE0v3DPYoEjhJSVhlwOBy4dUZ3XN3fJYCQkxDF46AEAXhMOI36HAlSVVyGddBjfqy/+PkC1nUdzzQkn3LuOQAyrNKwSBZhHnck5Aqh1ASX6tLwyDNTqorjWpwQioQCoUsAID/Kt5CsWQcAHBORgHcWPOfbtsfVpWUBSVYguz9unTEoQXoySPcPbBwM4CsIyTqcwKMQyrAKoRTcl34jAORHrNIyrE4oMREGOR5ITLBVCV6GlZPnZDMFIcckHjfrAF6WLK9nnWMylS1B7llImwgpWA6AnEU4fMiE99MP3+Up9/mSo0N/XF88WJsIXDconH7knks67iQShk4/g32++C6Pn37kcCO7mnvkLccPK/zCwXosyCwPdiJsx/p8eU8rP9x4Tys/i/CwepOswumnP+6qE+wA1ww1yRLCcp8vnH7KhxXZ+JkwDfXW8AOcn37yo58I/TglErwtl3ytHlXBjxJKny/pMCWnn6Zp2F2138Pk6BBjlNNPa32+ZEvA0UEOtTKOfljh048QtseNwwaPDr5PM6G35TpHghDKTl8g9J0eAD6s+E5fOP1Ea9YBgPzEKE2yvC9Y4bDSD/X52ls7tvwYrVVOY32+vFVZ4fQzKMHPFvLjlvf5YvzO+nwJQG7aSrOOZG2jpPfZ4OlHOl34kSbPkwn6MGR0SolzpGOMnH4/CLgU/xrCl3mUx3CcSf5Kwt8pJvwvAhiMSQEwSnjOK4XjOwiv9/j1E14UkzMJXwMYxb/slbLGUcIYo1QAqvaGhryfEIKPggxTsKkeaE07Z1hfAJBFL9hMew3hm0g4nzC8ep3/8h4d8Hvvtm9CGL7i3bZmPVerVu0sSzXr+fe0mvVcrdqXtJr1XK1atWrVqlV7Xzblv7rhL4vpOI+Hf9TDH4wFwI+SeSCpYcGSVfHXVgHw3/kkWRV/mxS8JM2UCfFH9HScmSUeOeMEfzAWgMdEMrMKEuQPxgBw0gz+iC4AkSAxcTwnV0mO4aAEdgFCSYuWmDhAhpUJU0riUVKG8Yd/AYgEZxAJTAgJktvkEgQgEpgQEhjQNA0XTYcEAcjMZAkpJfEoEvq+9yxmj4kkIQpeYuKEEhPXyPj6Z68vYBh3HlaMYwbIt4CsGgHIgsPjjl/gSXZmmbA/bh+EiSQbhxOKBMl+lQVn0GOBEF/TKcJkqeIA5EeRkFJCVAXAX6skSwEgMfFhYrxcenBC2Uc8Jo6XYXWASPBXyo9Y4mRYBVCWAADvrRITSdxOlr4p2Veymfqw4jzAeE+idUAmnPJZATXm+egwn8+Za7vdcmOKlJI3suA86LZtHx8fed9dLBb8Ie12u9lsxgDpU7Fer6VCuXe64Ig/PT09Pj7yGr1cLqXHwnK55D3GCTkm6P7BhIvFgvcMxIRHyDtjSOH5+XzOQy4dEp6enrgad0rJG1lwTXTEhDWisD0PqwCk7wSKuEunCyHkxOqmadyjdLpghnhcIj08NzDhTheIKhPKsDJhSgkeMx4V0HOUvHXGZrPheX84HMTjZrORmclRQv6+NLLgYUX3D/4yN5uNdLrg5hsxRuk74c060MWFPfLMREy8t0Z+3O/3LEGq+4fnluYsgT0m63SRb3CgqcVkMum6LsaY21wgMWgymeSuF2iWxAB+TM/NkvA4nU6dEO+fPeJPbwzo+x41Z93jdDrt+57x8CgShLDrulOE2eMpCSDsuo4BHhNhAB7ZCah2ncMeY9xut9Lpgqc6hpVTO+UqCS6CcPn//X4vbSX4Y8FU55YIeCX+WtfrNbdEkL4T0vUlWpsIIez7HoukAPKjfAuQwAB87/y1oqMRA7gxBQhFgvSd4PUhxoiNQ16J9xF0ecqEWBCEUD4uBmDV5ROhSIBHxpe7OgAg3T+kc4Xc8oTeAAAgAElEQVT3qWAJ2DiYED1qMmC73TIgxihtJWRmYqsSvMSEG+fhgMEHOJmZfd8L3mPy+PgohDkmV//85z+RagebTCbffPMNJw2h0HsGXF1doRVOBtzd3fHj7e0t//V6kBAVXWHT6ZQZYoxCeHNzc3t7W/Z4fX19ymOM8cOHD5z3dH19PUqYJaSUJpPJ3d0dp7Pd3t5ywWyPCXuEBImJE3KJ7ul0KgzyyBLwhu4xxwRpXwKABCGcPjegGPQoEnhiwGOWgM2AXYQQoHFwWLMEAYiEzIA3hEcZ1uxxMpmwRwB4njAhe8z4UQkeE0zFwZhkQn4l9uhBE8JRCU6IN2RCB8i3kz0iyFdXV/wCCAKc4myByZ9PBmDIwruuu76+ZgCmYn6MMTIhAHd3d/lkgKmYCeExA+ARSwriEGNEmy32yHhM/vzF4azDHkMImRAeWUJeEPIjPJ6SAI9lCSEELAgYiOl0ysM0mUwwjnnUMO48M/EC+REAHtbBuZ0f+WPB/4WvSQBCiFf63wTSyeQUYZ66/oYFCYOEoxJknf/w4QMD+DGEgInKr5QBGGWRgKkugMGYOGH2KBLkDV2CaCwTYuIxIC/jeViFQR5FAqZ6fpTzANYHB3Dumg9rxgNWliA7kRBijXJ8XsHC83lgkLBmPVerVq1atWrV3pfVrOdq1apVq1at2vuyo16++C0u/2f82rYMuBR/KeGX9/iVE77MI//Lpa/0MsIy4HclfIHHF7zSKwkd8OaE/10Jb+XxzQm/cExYwu80rO7iC0t4ASCQvUBCmfAcj6+REL7Wdf41Hv9PEL6hx6lUEeXUsBACp9eFEFDbMQNSSl7KWaqCeilnqW9brvWMYpFCyADUdswApMsxwKsSS0lNLx4tjSnW6zUzeIcEqfXshZWlTrwQeqcLYfBSzpzAixQ/fiUpVz1Y65kfUQNUaj1L0KSusUwM3D7IHlEBvVDrGWVMOXFbJEhvDdRF9erSpyQMFo+WusYyFb3ysperFjwPKyRwGnW5XLUTDkpgwsFmHZwJ7o0syrWeB8tVC8DLVYsETruWlim4LykAL7DLiZnSQkHag0ACL1lyhVPqGqeUoPGUBNyjEUC5q4NcnJGK2/FEoWQZBW9MkR9FQrSmDaO1ngdLM48WShYJApCYuAQvzczDOlh5+TW1nr3vBH/vLkFuGwEvdY1HCTn3XO5Hg5/zbaU0M1ZpmZmvr/UsdY05cxweOWVYJESr9ewx8VLOo7We+XjgtZ6974QMKyc144AhEqTWsxPK11ognPJda7lTh/+ZTwZt2/JqGELgpSdYLfx4fC0wPF9U5tXKAeKRt1UnbJqGN0Un5B0oS+ARkvvkkMAxGfTIEuRqtHtkCbjMKR5FghOWY8Kbor/hOR6dsOCx73t5JXkUwjMl8CvhXswpjyB0Cbx2CKBtWxlWf6UC4aBHJnSPAJwizK90vgTxCAm8NAxKkFEQj2VClyCjcI6Eizw6IXt0wr7v5ZGD4BJ8ImEqCoMMK1/AhMaMjzGKR5Ew6NHfmQk9Ju5RZmZZwuAwnXpDvIAULpE1kwk9JlhwfCqKRpmZ/kqFmGBiCECC7IByTHjX9CVLPMo6/wIJ/fGtfvGIRxkFxmPNHJUgE0kkCN6/BQHIvuAey4R4Z8H73icA375PEYbjwiUIMh/Tw/EBo2Y9V6tWrVq1atXel9Ws52rVqlWrVq3a+7J6+qlWrVq1atWqvS+7+sc//pFrDSF5jQu4bbfb6XSaaw2hXQDXoNtut4xHNm6u8IZcMCFE2VM8IsdQAFx+DQmDmRCZWeIxhJALhUECM+x2O5aARM4MQOam4FNKmRAJegKYTCYSEy70t9/vucadSEBylRCKhKenp7KEtm2FMNeKhUeWAEIByLAyIRLuxCNLQE4iA/b7PccEf7HOACRXMQB16/Mb4q+zAogxsoTD4VDwiD/3lglFggNSSjwzWQISzkIIGYC/WPM8cQBLAGH2mP+kzXiXUCBETAqEgxLEo8fEPQph9pjzwxjQti1L8FeCRzzir/giwT1mCTmDLS9ZSMphCcgDAENOfeAlTiRgpjFAPi6XgBKOeIRHiYl7FELx6IQiwQEyrOwRGSqnJORsjLKEtm1z1TsA8orkMXFC/rhyTowQ8oLjEg6HQ8bLt5BTWBggMREJAAhhHgUkEjlAJLhH3kdcwtPTU8bH57YSPKxMCADvIy7BCXlY4TFXAsTWlpd9ELpHrqKJ3HaemU7Iq3rTNIfDIQOQ5syFgiUm2KoEn88D6blZhwD4vCExwXlA8IFWsEHCHJOLO11Ia4vZbMaP6HSRH9u2lUYW53S64DSowU4XDODK1iGE/X7vvTU40RLlwznFTwhR7TvjG+t0garwGYBOF5xcJo0sRjtdrFYrjsl+v5dOF1wVPseEL0wxHoR86QNdHQTAuWOoQ88XYV7Q6UIkcHeOGKP3G+H7CE3TlDtdSOuMNNbpous66QIx2OlCADIzmTDGiGFij9Imgqu2hxOdLvgijLTOGOx0wXNbOl0cDgfWiB9FpJGFt0SQ3ho8rCAsdLqQZh24wSFfHxO2bSsScF2RYyItETBM7NElCEC+VtYICYKX7h+Y20LIwyptIuSqDm6piAReA3GtlSVwm4jwfEEyPzZDnS6EkL9WEHqnC15wXIJ3usgxwbBK5wpZcDhoya7qYNyl0wUT4pVkWMWj96k4v9NFtDYR7fF1Zixx0unC20oIoXSuGO104a0zZGZy2wcQ8j04HgWcDKQzxnw+lwYmApBmHdvt1ntl8KNIkE4XMUYmxILjHhkvDUyw9zFA1kzpdCG7M7ZC6XQhvTXm8zkP636/l1YYs9ksD+uEj044z/7hD3/IaJyb5Ec37gux3+/5ET9D8Gnx6emJ+07gsCk/aTEAh03+mT6EkAuK41DPHvFbDf6pommaAiHy6nM1bsx7kTCdTuUHHW5MgQM4x0QIcRw+JQF3Abh6N37Twz+/tm3LAPxQwhJSShyTpmnEI0sYJMydATJhdgEJojGEkA/1kMATAz/J8bD2fZ9f6RTh9fV1/lkNP5QwoUjouk4ALAG3YLIEJ8RP/BITmdvwOEiI5Yw1DsaE5zYI87CCML+zE+KejsQEnShOScCvBMTjKQm45+IeWQJ+gmcAPOKx6zr8JMcS0JahIIE/T6w7/LXiV0H5R3B4FIBI4BWm6zpozBLwqyD+md49cluMcwhZIwC8ZopHaGTCcyScTwiASAjUsqDve3gsSOj7nvFMmJ47lwmAFxz8hq9AyBMJo4BFkgklJiKh67r8KN/CICE+5/y1igS4kEcZha7rcs8EWUBAGGMUQF728TidTnmY2rYVvEjoui43YZBlHB8XxwQAIcwfFwixO58pAcsyP2KF4Zhgd84A7H2nJICQt0KXcDgcBC8LTtu2+QQCj3nnckIA5A25LQzOA0L4W1OXeuerWrVq1apVq/aurGY9V6tWrVq1atXel005oST/BjIbV80KVlssPP8qOxt++ZYf869tGcBJOVLpyz0OEgqACSFBAC4hHVfuKngcJBQJ4sIfeyrcd46EUcJRCa+MSVnCpTFxQvxyXgBSR2s0JqMeBSDD6oAXEHJMyoQiIaXkHssx+Uok5H/Jv2x/KwmIiQOEUACjMXkN4aUeByV4TF5J+AIJMo6jHnmdf+UoOKEsCIOEjve5XSAcBMjj+R7fnPAcCVjnCx7b4+qpsn0PrrqXSnDCwvY9uN2XzwMi4ZzzgAdB8Ocfaaack4jMTXYmyaq73W65XPIIceZXCAFpUxmALCcGSMrw09PTYrEQAD8ihZCTywSPbDgmdI8cr+12K1nP0hkDiZz5X5BrxgFF1mT2iIRcJuTktfCcMswxcYDEhAEpJWkrIfm2XddxCmF4zrfNAGSzMmC9XvOw7vd7zkHu+54zQ8Nzvi3HxLOYRYKkDItHkeCEqLnOEviVUkrc5CFYAi9iImnRTIicRAE0x00eOAc5xiiNLKTfiGR6AiAzU+rES1F2SRnuum69XktKoMSEU78REyZEfm6W0Pc9JgYDOLUcya2cRi1dIDCsnArKpfHDc7MOjomkRaPvRPY4KEEIJRN8s9kIIUto25Y1RmsXcDgceBT6vsfclqCxhMGg5cemaXhiICZM2Bw3rnEJ0rQBHnkUMLeFkCVInjUApyQkS9zGMEmGrwCYUCQge4NfAFOXhxUrjBDygjPoUQg5jRpTUSTw1yqp4gDkedIfJ+xDAhNiAeGvFVdD5JV4Y5JMcHxNGY9FlSVg4xAA7yMuQRJ+PZmdAdja5GvlV8JWxY8SE0ncBp6HVWICj/zTlAxr13VCyDGBBMmblq1QJPTHedY4kMhUl7RovgB0nVJKKeWcXz4HAM2HIfwLPwreAf7I/5KGutMJYJS//EqvxA8C5A1H3zle2BvyohieCXjlC5Qlu/F/nUwmgyEqBK38hiB0j6OE+R/PDFE5aC5hNKrnSw7nfVyvfIHC/zI4aqPvfE7QRhkKb1j+lNxFeRq8QMI5LkYFvuB/eUOPozEPx3PvUgkve4GLpkE4IwiFhf1lhJcCLt1MXzDxykF7we48Ou5CKC7O2SvLgEu379E3LDDUrOdq1apVq1at2vuymvVcrVq1atWqVXtfVk8/1apVq1atWrX3ZVNO5Oy6jvNzQwi73Y7zcw+HA+cYppS4cmsIYb/fc8FcJBUKIaffNk3jAP7L39PTExPGGN0j5yC3bctJi+G50URZguA5gRcxKRA2TcNZ0um5XvgpCX3fu0ZOzm/bVhjk8XA4cPYrYsKvhFYYLMEBIkEIRSPag5QJeVjbtmXC9FzynCWg3n+OiQ+TDKu/kkwk9ghCBqDKO0twgBNywp17FAm73Y7/juwSLiXE3GZAQUJ6LgN/SgJyRUcJBcCPIgGEvIC0bSsSxGPbtrLgcBDSczH+izyKBPaYnvsJXCqBv9aLJMQYMbcFwB+XeOyeW1uwR44JJoYQigTOywbhKQkpJWgsEGKFEQAvwi6B8fL1QYIAPCb+SkIoEhzAH5dI6J97ZWSPWOeZkFPRZQ0EoQMkJiLB8TIzHcBrpksQ/G63EwmcPn+mhPyInUuGlQmxV8qwOoAfJSZYJE8RhufzgABkH5FxdEL5Wp0wx2Qqlz44QTqEsFgs5HIQ3/kCgB+liHvXdXKJDDdx8r+ceeeLv+TBO1/5EcW5y3e+JFdfPEqPBb+iJRKQ984jNHjnSy6RyQ0sniK4olW48yX34PzOF+4K5Tc8584XV7JHKr4E7aI7XyC89M4Xf3jSJgI3MuTCVOHOFy5EyJUuXlwG73zJhSm+bYRrKXLnSwi9f8johanCnS/cIilcIvMLU7vdbpSQX2m/3/Ow+p2vQQlyv6lAiHsx0gqjIAFrmXj0e3ByRYt/HMLVHrm2JheseBT8zhduYMmFKblZI1e6PCbeyOL8O18yCoiJ3/mSmekAPhHyuCfrdOF3vvB5MmD0zpdfIpNhdY8vvvMFCXJFSwjlchAAEhO5u+d4jsk5d764xwI0Zrzc+cLMLN/5kqt8WOfzI1ZpGVYB8LKPz3n0zhdLkDtf2CtlwfE7XPybBWkj03WdXNEq3/nyzVTuwQ3e+ZKZ6UeaHJMJWgpkdE89yfC63LATFy5ycwAAGN/3PXeOHCTkXpUxxkht1QYJAzUtc0LxCEJ+57IEEDJgUIIAch/HTMj/IoAXEIoEJwzUFRV58gWPo4Qi4RQh7BTgopjgIy8TStAu8vjmhINRxSgwIQMcP0roEgoenbAMGCV8gcf/6xIG8bI+nONxlPCVEvyVhDDQInmOhALhKUCBcBBwKWE4XudfQFiIyaiEN4nJl/dYJpSNRnbb0c1UAKOE4fLzwOBWVTiByHlg1GOZsN75qlatWrVq1aq9L6tZz9WqVatWrVq192VTTu+Q1LAQAucwhueUQAFwWo+kScYYBXA4HPjPeJKgd4qQ/5ToAJcgAJHAGSqnCBNlGjmACUXCICFLQEyYoWkajsmox7ZtRwldggBEgsTEPTKhe5T64iDMgEHCsgTx2Pe9M4gEIZSoDhIKYFSCAFxCgVAkIDOgTOgeL5XAUYIE/lhGCaWu/KAEIXQJ7lEIOcVNCPu+ZwkvIDxHAi9Z8FiQ0B+3CxiUUCYc1JgfZdwhQQh9Zl4kQQgBKMQkHne2GYzJqAROiQOAF5xBj5cSigQHyKOP46WEsmb6MOVHWUAggTdTACQmBQnYaGRYhZAXVScEQF5AYuKEvn2XCf08cCkhb4VlCcEur5SPNFO+cnU4HB4eHtjZfD6XzFBOc04pzWYzxi+XSybsuu7x8ZEBi8WC9ez3+8fHR97G5vO5pAxLttpsNmP8YrHg4w4ImUFSjDebjTSmEI/L5ZLzKJumeXx8ZAZp1oGY8LQWj6vVSgrPz2Yz8SgSmCGl5DnLq9WKU/zcIyduo9q3ACQHmdOcQcgASdxGKhlPDMkER0IfZz17UjOXum+aBhODPYoEzrNOKXFaZXhOZs8ekV4nHssSpO8EMgQ5JpyglwmzhMPhgKnIr8QS9vs9p0VDguClqwNn8DkhYsLpsZJOizxNJuTS+OE5VTzHBEmOnEfpSc0soT9uFxCsZUrbtuIRadH5cVACAyR9HhI4j1IaUyD3XCQIniWMEg5KYDx6sHBMJIEXHkclCCE365BMT+Tn5m8B6beczYrM7jxPREKylGGXgBVGADkm8MhdHSTfFhOJhxUrDAM8JqJRUoxlZmIqZgCuTUgmuAA4IRcJvCKBE3jhUZLZOcEWACZkCdj4Bc/rQ0ppt9s5IH87MUYeVpxdGI9VOg9rjFG6Osgyjm9Bspi9rQTHRFKGsVdKTBzAx4PVaiW55LPZLD9ir5RhfXx8ZADvXCCUicF4vABPdSeczWY5JtfX19c5pejq6uru7i6QffjwIScQhRBubm74KANA/t9DCLe3t5yRNJlMPnz4wHgBXF1dCYM83tzc5NzYTFjw6IS3t7cigTPLBgk5JtPp9O7ujhmcMFGrEAD8BZiwLOH6+nqQgT3izbMEx8uwlmMCsBAWgnZ1dTUIEAn5XwYJOWgg5CDc3Nxwqpp4nEwm7lGC/AIJMgoeZHlDBriE6+trmZnOII9I2WOPHAQZJgQ5MyAmgncJAuBRQNCYEFEVCTIKopHfcDqdOiCQSUx8WK+urrACMKFMDPbohAx2CT5Prq6uPCbusSzBPb4mJhimDACDjIK8kgTNJfBL4lEI5ZVGR+H29pbf0CXwG0rYXQIA+VG+PhDyz8DA81SXiTRIOCqhEJNBQv9YTkkIIVxfX/PmKDsRPOZxRyavEH748CFLmEwmWOcF4Ou8AMoxKRBiFBzAUZKN6czzgABk85VvgU8s4Jd5UjjS1KznatWqVatWrdr7spr1XK1atWrVqlV7Xzbl3yOllOQPW/74eoC8wRf2+PUTvonHNyf88jH5787MlxHKO4dje4HG1wThKyEsAN6c8PUaRwFfP+HLAF8/4f+DUXhzwv8Hw/pfJNROF5wuF0LYbrecLYuypAzgoqIhBFSbzf+C7DMB8N/aDoeDALytBGcEg5ABIMwA1DkVAKcYSy3XlJJ7bI5r5wuhdEhAte8yoUjgbNlgzTqE0CWg2ncGOKE0pkC1b/EoErhscRxqncGp8l3XycTwpg1SZN3bSgihlDyXZh0o4s4AJ+Rq/f1Q3wmPCQO8C4SU/5cuEKMSpGkDYsIZfKPNOkRC0zQigQHpjE4X5dYZIOR3FkJ0A+Bk9tFOF1I7v7U2EVL+v9zp4hQhf63eT6AwCtEaFDRNwysYCF2jxISLAkuni/a46wsuoUgQvEOCxIRzz9vjri/ROl201qzDYyKNLDwm3umiPKxOKB45cxwAIXSG/OgS2uPGFP1xpwuMggP4sdwmAgD+WqUkNwhzkPFxyTg6ocREGlPwsu+j0B+3iYjW6aI5bhMhy3ga6nThhDJ1nVAkeB8JfpRhxVbFgO12KxI4+V02U6yZIsHxMjMdkGMylU+doSEEvsERnqu2M5ecXXwS++GGd7XR0w9mAE8yP06JWi5ADkLZ+HnWYjzkqOExEUK+JyyXRNJxJ5EcEzk6+AEuP2JKydFBYiJrh2hETMqnHxlWWTv8qCExOecAVyb0A5ycfnxj5pjI0QES5OjgEvguz+B5Kz/KAe6c048fp1jCOYS+0xcI/fRTluCb1uG4YRzW64uODucQCqAgYfAs4kHzw0p+9H1XCP3oIIR+WNkfN4Qa9Fg4OohHzEzxWJAQh7pu+bA64NQBbvD0w98CJPhhRY5T3KDAzyJCKPuunH4wCh40IZQTobRU8vWhIGFw3Ecl+GlGCPn6Umtdt3yn5820P+7/mI6btKSUsMKcIgzPq64A5MctB+RHeJRh9cOKnAjllXh39tOPHDBAKEtW4bASnrdvDpq/oUgoHGlq1nO1atWqVatW7X1ZzXquVq1atWrVqr0vq6efatWqVatWrdr7Ms165krNwfJt8Wd4AfCj/JVd/jgaTqQMC6HkuHDGCTJIhFDSY0XCYI4L/23SPUoepQCEUFKGB9N0JAnRPXIiEf4CLR75UTJO8CdnIeSYSKIAACKBcx1AKEHzmAghD6skT+BPzkLo6bECkGEVBpfgMfEcZImJAAo5yEiGEADXwocEAUjKML9zskL1IgHpsfJHcRlWfqVTWc8ioZD1LISjEpAMIYCyBGloMCihkEY9mGfNEsSjpy4NSnCPpwizx/MlIKm5IKE7btoAj0zomUYiQVbd7rj3jsdEMo0AkJi4R16Ey4nb8i14phE8Skz8leRRJDhAPi4H5EeR4ISyBnriNhgkJh40IZSYCKHsIzIKkrgtiYOefeUSJCYA5Ees0jKsnsVckACAEPp54BRhsDxr2Z0HJQihJNEOEv6W9cxpSvv9/tOnT3x0eHh44LdfrVbcuSLG+PnzZ8Y/Pj5yTfS2bT99+sQb88PDAx8+ttvt58+fBcC72mKx4N4abdve398zYDab8Xlot9t9+vSJA/r4+Mh7xnK55EYTfd+Lx9lsxjE5HA6fP39mwtlsxvN+vV5zb40Yo3TGmM/ny+UyA5qmub+/5xGazWYck91u9/DwwJOMi3MjJtydo23bh4cHnrXz+ZwTq/f7vXiUJg/r9ZoLiqN8OAMWi8V6vc4eD4fD/f09TwzpN7LZbGazWWbo+342mzF+uVxKTB4eHnhao+Y6S2DCdFwiHRK4rHvbthimDEAd+uxxv9+7R5mZ3Cuj73uuoQ5C7jdyOBweHh74U1ytVvzp7na7+XzO5f8XiwXj1+s1V+uHBAFwAj5iwomW8Jjxm82GJXRdh4nBABnWx8fHzJBS4oYGLqHv+8ViIYQck6ZpZrOZAPjj2u12LKHve+kCgW4AWULbtvP5nGvno8MJX0GQUvfwmPH7/Z4loL0A187f7/cigTUirZJfAB6zBDRtEEJuRANCZtgfN20QCb31nXh6euKpDgncsuDp6Ymb+TRNw+OerOPB09MTf5593y+XSyY8HA7chKFt28ViwV0doJHxPKxIhuWWCIfDQRacxWIhr8SE+Bb21NVBeixgpuWYYCIxADOH9xGs8yyBmzAAwDHB3icATvCfzWZ5mLBPMx6Lav64EBMByMbEo4CjBuOxc7GE3W53f38vgPztxBhXqxVrBIAfZ7MZ99bAIsmA+/t7XnDW67V75OMB9r6Mx/ad8THG+/t7XnA2m83nz58FwFsh9j4OGhOmlDwmTJhS4q3w6l//+lcubo1a2lxvG5Wnc2VoPHL5atS6ll4ZuaI2ynU7INeiRjlw9yiNJnIddBDyCwCfy8+jj0RBggNcAiqIZ8Kbm5u7uzv3yIT5lXL9b8FnAAg9qizh9vaWK3xLeX4hzB4FwBIQ5FOEpyQIfpTQY5IB0vsCABlW7igCgHjMDKj77sOay9tnCfJK2WOWwACRIB6d8Pb2liXc3t7y3M6EpyTIREIMyxJkFDCRhOHUKAwSomXBIGEurl+OCVfHl5iAUADcJCETZo95phU8YoUpxITfWQgxTB4TAYgEiQlLyCsSS2BC4H1YCzFxwnMk5FYMeCX5uGSeACAeZWY6QNaH3Eola+QX4KDluS1BE0L2eH197XiZmQyQJctjAsJBCTx1xaPEJPeaGJSQZya6rwAQns1jwoThuMeRjIIT5iD7xzIYkzwKAuAX4KmbgyxvyKu0x0SCPCphcJXOzS5ObaY+7vKGIkEAv8Wk3vmqVq1atWrVqr0rq1nP1apVq1atWrX3ZVPOuUFJJf7Pfd9zWk+MkVNkQgiOHyVkQIxRAJz/Czx7PJNQGMoSBDAoYZSwAHAJZY9nEnLi9qiEMqF4fHPCQUCM8XyP5xCWJcBjWcKlHl2CMIwSFgCjhKMaX0Z4voRT+NfE5CuRcD6hjEJKaRTw5h59hRklLKxI+N/LgMEF4RT+HI+Di+SLJZwCfEnC13v8wjEJJ9Z5AYxupvJ4kcdo54HRmLzmgDHlRE5k5LGz5XLJfxpDgp4A+HG9XnMOctd1nH8XQlitVnxHQxL0AODH7XbLhH3fC2C9XvMFB0gQAOvf7XZcDDrG6ISc/dq2rQM4jXq/3zNhSomzJrOEDEBMGLDZbDgmh8NBGDg1FRI4IxgxEY8Sk9VqxUGQCpv7/Z5LasYYJWgioW1bmRioOsrDyinGMcbNZsP43W4nMVmtVgLgmzJN0/grFST0fb9erzlxe7fb8ZUKxEQA/IgS3tlj3/dSWVUkYJ4IgEcBdVG5hq943O/3fB8BdVEFwDdlUCedM8GliDBKu4oEAUhMJGhSDxceRQJnjsMjD+tmsxEAZ8ejtCsnZgohgiYSeMmSK5y44sExkeKw8CgSBCASttutvJITigTOPYcEnpkiQUr0ojotE2JiMN5j4gCRwAVwpWwxPEpMBCALjkvgXHWZupDAAHiUmLhHIRQJnMwOAJdm3u12AuC7wH3fbzYbzo6XKsNYQDgmWOcZwFcQsMRxAi+6DjCe14cY49PTkxvzkxUAAAnHSURBVABkY8I6zxIYj1Wac5CxcTCAl30QCoPgPSZOKB+XA3KQY4wyrNj7CoSHw0EAvFdiieNhEgnYfPlrbZqGCQHIMbnGz2rIKoox8toXQuBtPoTQ9z3vQBjj/L8HO/ohgvwv8nuUGKMkHgmg67rJZMIueJcFIKd94QWEUCR0XccusgQGXF1dSUwEwIcheGTCUxIKHnMaV45JmTClJIT8Si5BPLZty4lgGNaCRxzAeVqPSuAoDUrAvzOhSMgj7oRhaBTkp0nHIyanCPu+z8l3HhPXiKleJnQJPtMYH49/cdK2rcxtIWzblnMSJWguoW3bnLEYbFgRNP6E5XMeHAV5JR8F0VggdLwEDTFhhhy0PNWZYfBnTZ/qEhMGgJAB8vPupTHxH0adkH9+HfwR3yX4TJPH8yX4tyOE8gN3st/c+MyUZVkWhFEJAORvAR4dUJjJMnMGPTJgMCYCKCg6JUHWB94cXYL/JkY8tm0rH4u/kngsj6PHRN6QV2m8ob9SIJOJ5wDfiUa3b4mJn1jyKp1SKh9patZztWrVqlWrVu19Wc16rlatWrVq1aq9L6unn2rVqlWrVq3a+7KpFJ7nHKUw1NWBU4oA4D/LSansvu8dwH9rRHFuBsijNChA9lmBEBIEwH8phAT+86p75D8NQgIzSI8FlEhnQvEoEpxQOh50XScMLkG6f7hH/hOyEx4OB5HAKcZnSmCGUUIBSI+F/rhQfTjR1aHg0TtdXErYNI3MTJfAgEEJApBh5XfGX6zFI7fOiNZbA20iWMIoocREJAihS2jbtizBO13I1+oAWXBcggNEggBEAmtEnkHBY7ROF13XybAOesyPAIiEcqcLJ5Q1UyQIIQBCKACXwISDHkWCNCiQBcclFFpnpKHeGqMSGC/fghOCgb9WkQCAEIoEb4UhMRGAx8Q7lpQlOID3ER8Fx3Oni0slYJ2XR4mJd66QYS0TSkziUG8NPw8wYLDLU5mwICEct42aciY8OhiwM+l4gA4GPMm48UV4bomQ/wVNGJgQ5cMzYLvdOoD3pOVyyWnkfd9zW4kQwnw+5+MOinMLgNdHtETIHvu+F48obM8x8eYbvLigiDvPiUEJ2SNKpPOQo2lDBqD8P38nXCk/WI8FEPKQL5dLjgkKzzOAK+VDAqfWd13H7QWCtYkAoQD400WDAr4xIYTr9ZrvcEGCEPKpFKX0+VNfrVb8GaDHAhMuFgsGoGlDDjIkCIAft9stX0Pr+365XIpHjglq7fPHjzsgHJPlcimF5xkPjyKBP10hlB4LKSVcVzwloes6TAwGyLCyx5QSX2MJ1nei6zrprYEbGRwTkYDLRCyBO5bEGL23hkvgSx/wyFMdHUtYgnS64OuKuIkjAL56g+uNfJdHbp1AArdEQEMSBsjXKhJwQTI/QgLHxHtrsITOemvAIy/CLoHxGHcZVgG4BG6dAY8Zj3GXThd89QYAXnCwSIrH/CjfAiRwKwwQ8rCib4wA+CcHadbhvTU4JtGadQDA+wg3MMHGz4Rd18nXut1uue8EAHwPjkcBRw1+AexcMqzSyIKXfXxc/Ep93zMhVmmJiRPyzTucB5iBzwMpJRlWrPOM5wYmkMC9NWQzxZrJw4rzAOOlVw+6PMkb5phMnp6ect440tQ5V79pmuvr65y2jSx0vvnCKdZ4RPHp7F6S/5GmzoR93+fa2ADkuvXh+XIQEyL5n/HT6TRLOJMw9x9wQuS9S0yEUCTEGOWVyh4RtFOEuJFxEaHHpEyIezF8Uy+lVI4JewQhu0BuP8dECPu+Z8A5hDwKCPIrPcqwXiRhEBBCmE6nLIGnoktIKckrlSUAwAwI2ikJAhiMibxSWcIgYX7nQUL2GGOMMbpHlhBj9KheKuF8QgGk50theYWBx/x4jgQehfRca0c8FiQAIB75DWOM/kpCyBIGCX2YCh7LhJdKCLZxyIp0jkf/FkTCpYRlCbKApOcyTnyfiBfJQULsRIz3jaNMGGzvEzzHRLZvX8YHPfLjm0jg88Dg9i0HBt++5cBQOA+EoRNIISYhhKZpfuvFUe98VatWrVq1atXeldWs52rVqlWrVq3a+7IpZ6jEodJAnJTTWzEix0uhrVFCqSXo1Y2kIpMX7mMJ5xC2x7UEy4TRqh0OxqTgETHh/DgHXESImBQkSKUv9zhYBUsIGQBCkSCAgoRBQo+JexQJZY9vLqGz+mmvkQDCSDlz50gQhtGYuEeR4IQioeBxUELB4yihSBglPCWBCcuAF0g4x6MQyhpYlhCHihMyYX9cpG6Q0AHlmAjAR+GVElori/caCYPfAu9EcahCrDCUCaOVCnQJDihLKBC6hFHCNFTtsBATl9AdJ+yPEr5MQiA7R4KfB5hh9DzgeD8PMIB386Os56enp4eHB3Ym2bKbzYZzx1JKnAQdQkBCXwa0bfv4+MgAZH5lwG63k7xpSRlerVachNh1nRAiGy4z7Pd79+gZvhnQW9YzMgQzANmsDJCs5+12yxl8Mcb5fN4dJylLHqVkPSPJkUeBGVJKy+WS8ev1WpIQRSNShrNHJK9JWjQ/brdbdtH3vaRFI5FTYiIeOZkdGb6ccCceQSgSJC2aJUiyakpJ2kpsNhtJo5as581mI1nP8/lcsp45B1nybWOMkme93W65g0HTNJzVCIAMq8REPCIHmSVw9muwfiMglCTEgoSu6zgjOEvgYWWPKSVpaIBRyGHv+x6dbRggwyoePeuZJcTjdgHhubWOSOC0aHg8JSHGCI0ZP5gy7DnI/LXiaxKP+RFJypz1LHnWyAjmYV2tVvJK/DgowT2KBE6LPhwOnrjNuaXStEG6vmBYJYtZ7m2whGRZz/DIw4oVRgB5nrgE6bEg30KMURK32+PeO71lPQOQJ55MJEhwvGQ9S1o0E/Z9z8nsyZo2dF3HiduQwEnHAPA+4qPgOcuc4YuNQwC8ZkrueW9Zzx4TAfCaiZhIFvN8PuefHJbLJQ+rZD2nlCQTHOcBJpQLQJ717GnUEhNJi+ad6zrnPIYQptMp5xMFyt3LAC5c7QBOiQLeAVxL2z2WX4Bzsl7skfEgZIA8ukdOwsqEBQY85n8Z9QgJAuAXmE6niVp/OKG8z6UeBwnLQROPgxJc0fkeJciTycQ9XkR4KiY5sD6sL/BYGIWXSSgPa3kUgJeo8g8eAsAbjo6CRHV0ngSyc2IyOjEKEtzjOTEZnWnusYAfBJwfNCwdDpD/XTw6vrBICgMeRaO/8PmvhEcBvEDC+Z+zL9rheBX1mPgr+agVJAy+0qWjMLjOFwAXSQCefy8woftJg/jB7b4QkzB0HmDCUcDo9n1F3YqccHAF8+37N3zNeq5WrVq1atWqvSv7H1j23mXUX7bDAAAAAElFTkSuQmCC;" vertex="1" parent="1">
          <mxGeometry x="827" y="-155" width="767" height="445" as="geometry" />
        </mxCell>
        <mxCell id="IFEILFXidvJx-HZbIcQG-27" value="&amp;nbsp;Images Manager" style="rounded=0;whiteSpace=wrap;html=1;" vertex="1" parent="1">
          <mxGeometry x="570" y="460" width="120" height="60" as="geometry" />
        </mxCell>
        <mxCell id="IFEILFXidvJx-HZbIcQG-28" value="" style="shape=cylinder3;whiteSpace=wrap;html=1;boundedLbl=1;backgroundOutline=1;size=15;" vertex="1" parent="1">
          <mxGeometry x="680" y="420" width="60" height="80" as="geometry" />
        </mxCell>
        <mxCell id="IFEILFXidvJx-HZbIcQG-29" value="" style="endArrow=classic;startArrow=classic;html=1;rounded=0;entryX=0;entryY=0.5;entryDx=0;entryDy=0;" edge="1" parent="1">
          <mxGeometry width="50" height="50" relative="1" as="geometry">
            <mxPoint x="470" y="489.23" as="sourcePoint" />
            <mxPoint x="570" y="489.23" as="targetPoint" />
          </mxGeometry>
        </mxCell>
      </root>
    </mxGraphModel>
  </diagram>
</mxfile>
